<?xml version="1.0" standalone="no"?>
<!DOCTYPE svg PUBLIC "-//W3C//DTD SVG 1.1//EN" "http://www.w3.org/Graphics/SVG/1.1/DTD/svg11.dtd" >
<svg>
<metadata>
Created by FontForge 20090914 at Thu Oct  5 19:40:35 2017
 By www-data
Copyright (c) 2014 Indian Type Foundry (info@indiantypefoundry.com)
</metadata>
<defs>
<font id="Kalam-Regular" horiz-adv-x="268" >
  <font-face 
    font-family="Kalam"
    font-weight="400"
    font-stretch="normal"
    units-per-em="1000"
    panose-1="2 0 0 0 0 0 0 0 0 0"
    ascent="800"
    descent="-200"
    x-height="511"
    cap-height="718.001"
    bbox="-588 -471.007 2248 1031"
    underline-thickness="50"
    underline-position="-100"
    unicode-range="U+000D-U+F0402"
  />
<missing-glyph horiz-adv-x="752" 
d="M236 642v-583h280v583h-280zM173 0v701h406v-701h-406z" />
    <glyph glyph-name="uniFB01" unicode="fi" horiz-adv-x="528" 
d="M115 13c-7.33301 0 -16.335 6.16699 -27.002 18.5s-16 22.833 -16 31.5s3.66699 25.667 11 51c32 107.333 55.333 194.666 70 261.999c-33.333 -6 -54.666 -9 -63.999 -9s-19.333 5 -30 15s-16 20.5 -16 31.5s11.833 19.833 35.5 26.5s54.834 13.334 93.501 20.001
c2.66699 13.333 6.66699 34.666 12 63.999c16 94 37.333 160.833 64 200.5s63.667 59.5 111 59.5c35.333 0 72.333 -16.167 111 -48.5s58 -65 58 -98s-8.33301 -49.5 -25 -49.5c-12 0 -26.167 9.83301 -42.5 29.5l-51 59c-17.667 19.667 -33.834 29.5 -48.501 29.5
c-34 0 -66.333 -69.333 -97 -208l-6 -26c83.333 10.667 146.5 16 189.5 16s64.5 -16.333 64.5 -49c0 -18 -15 -74.5 -45 -169.5s-50.333 -161 -61 -198s-24.667 -55.5 -42 -55.5c-10 0 -18.167 4.5 -24.5 13.5s-9.5 19.333 -9.5 31s5.66699 39.334 17 83.001l40 150
c15.333 56.333 26 97.5 32 123.5c-29.333 -1.33301 -89.666 -10 -180.999 -26c-46 -192 -78.333 -307.667 -97 -347c-10 -20.667 -18.667 -31 -26 -31z" />
    <glyph glyph-name="uniFB02" unicode="fl" horiz-adv-x="543" 
d="M222.5 746c23.667 25.333 50.9971 38 81.9971 38s54.333 -8.16699 70 -24.5s23.5 -36.5 23.5 -60.5s-8 -36 -24 -36c-7.33301 0 -15.5 7.16699 -24.5 21.5s-20.5 21.5 -34.5 21.5s-25.5 -10.667 -34.5 -32s-16.833 -54.166 -23.5 -98.499s-11.667 -75.5 -15 -93.5
c36 6 65.5 12.833 88.5 20.5s44.167 18.834 63.5 33.501c38 28 57 76.333 57 145s8.33301 103 25 103c14 0 28 -7 42 -21s21 -31.333 21 -52c0 -52 -9.5 -133.667 -28.5 -245s-41.833 -214.333 -68.5 -309s-49 -142 -67 -142c-10.667 0 -20.5 5.66699 -29.5 17
s-13.5 23 -13.5 35s6 37.667 18 77c40 136 66 246 78 330c-40 -34.667 -107.333 -59.667 -202 -75c-46 -234 -89.333 -356.333 -130 -367c-9.33301 -2 -15.666 1.33301 -18.999 10c-4.66699 2 -9 6 -13 12s-5.33301 12.833 -4 20.5s10.833 47.5 28.5 119.5
s32.834 136.333 45.501 193c-9.33301 -0.666992 -20.833 -1 -34.5 -1s-25.834 5.5 -36.501 16.5s-16 20.833 -16 29.5c0 16 23.333 26.333 70 31l34 5c10.667 55.333 19.334 109.166 26.001 161.499s21.834 91.166 45.501 116.499z" />
    <glyph glyph-name=".notdef" horiz-adv-x="752" 
d="M236 642v-583h280v583h-280zM173 0v701h406v-701h-406z" />
    <glyph glyph-name="uni0000" horiz-adv-x="0" 
 />
    <glyph glyph-name="uni000D" unicode="&#xd;" horiz-adv-x="401" 
 />
    <glyph glyph-name="space" unicode=" " horiz-adv-x="401" 
 />
    <glyph glyph-name="exclam" unicode="!" horiz-adv-x="371" 
d="M119 143c11.333 0 25.002 -16.167 41.002 -48.5s24 -56.5 24 -72.5c0 -4.66699 -3.33301 -10 -10 -16s-13 -9 -19 -9c-16.667 0 -35.334 10.5 -56.001 31.5s-31 38.333 -31 52s5.66699 27.5 17 41.5s22.666 21 33.999 21zM214.002 810c12.667 0 30 -8 52 -24
s33 -28.667 33 -38c0 -56.667 -14.5 -156.334 -43.5 -299.001s-52.167 -214 -69.5 -214c-10.667 0 -20.667 5.5 -30 16.5s-14 22.5 -14 34.5c-0.666992 4 3.5 28 12.5 72s18.5 105.833 28.5 185.5s15 159.834 15 240.501c0 17.333 5.33301 26 16 26z" />
    <glyph glyph-name="quotedbl" unicode="&#x22;" horiz-adv-x="331" 
d="M261 846c7.33301 0 17.833 -5.5 31.5 -16.5s20.5 -19.833 20.5 -26.5c0 -35.333 -5 -85.833 -15 -151.5s-21.667 -98.5 -35 -98.5c-6.66699 0 -14 4.16699 -22 12.5s-12 15 -12 20s3 35.5 9 91.5s9 106 9 150c0 12.667 4.66699 19 14 19zM78 827c0 12.667 4 19 12 19
s19 -5.5 33 -16.5s21 -19.833 21 -26.5c0 -34.667 -5.16699 -85 -15.5 -151s-21.833 -99 -34.5 -99c-7.33301 0 -14.833 4.16699 -22.5 12.5s-11.5 15 -11.5 20s3 35.5 9 91.5s9 106 9 150z" />
    <glyph glyph-name="numbersign" unicode="#" horiz-adv-x="656" 
d="M146 147c-32.667 -4.66699 -52.3301 -7 -58.9971 -7s-13.834 5.66699 -21.501 17s-11.5 22 -11.5 32c0 16.667 38 31.334 114 44.001c28 112.667 46 187.667 54 225c-42 -7.33301 -67.667 -11 -77 -11s-17.666 5.66699 -24.999 17s-11 22 -11 32
c0 18.667 43.667 34.334 131 47.001c13.333 68.667 20 114.5 20 137.5s1.16699 36.667 3.5 41s8.16602 6.5 17.499 6.5s22.666 -8 39.999 -24s26 -33.667 26 -53s-4.66699 -51.333 -14 -96c59.333 5.33301 103.666 8.66602 132.999 9.99902c10.667 56.667 16 95.667 16 117
s1.16699 34.333 3.5 39s8.33301 7 18 7s23 -8 40 -24s25.5 -33 25.5 -51s-3.66699 -46 -11 -84c12 0.666992 26.333 1 43 1c42 0 63 -9.66699 63 -29c0 -16.667 -40.333 -30.334 -121 -41.001c-14 -60 -34 -139.333 -60 -238c17.333 0.666992 38.5 1 63.5 1
s41.667 -2.33301 50 -7s12.5 -12 12.5 -22s-11 -18.167 -33 -24.5s-59.667 -12.833 -113 -19.5l-16 -61c-24 -91.333 -45.333 -137 -64 -137c-8.66699 0 -16.167 5.83301 -22.5 17.5s-9.5 24.167 -9.5 37.5c-2 9.33301 6.66699 53.333 26 132
c-24.667 -3.33301 -48.334 -6.33301 -71.001 -9c-34 -4 -58.667 -7.33301 -74 -10c-24.667 -93.333 -42.667 -147 -54 -161c-12 -12 -24.333 -7.66699 -37 13c-8 12.667 -12 27.667 -12 45c-1.33301 4 4.33398 34 17.001 90zM451.004 488
c-55.333 -6.66699 -100.666 -12.333 -135.999 -17c-8.66699 -36.667 -28.334 -112 -59.001 -226c43.333 4.66699 90.333 8.66699 141 12c24.667 99.333 42.667 176.333 54 231z" />
    <glyph glyph-name="dollar" unicode="$" horiz-adv-x="534" 
d="M441 678c19.333 0 34.9961 -9.50293 46.9961 -28.5029s18 -37.833 18 -56.5c0 -10.667 -4.66699 -16 -14 -16c-4 0 -11 1.5 -21 4.5s-19.667 4.5 -29 4.5s-24 -1.33301 -44 -4c-26.667 -85.333 -48.667 -158.666 -66 -219.999c46.667 -33.333 83.334 -64.333 110.001 -93
s40 -58.667 40 -90c0.666992 -48 -25.166 -88 -77.499 -120s-111.166 -49.667 -176.499 -53c-18 -51.333 -33 -77 -45 -77c-6.66699 0 -12 3 -16 9c-7.33301 12 -6.66602 36 2.00098 72c-41.333 8.66699 -76 28 -104 58s-42 57.333 -42 82s7 37 21 37
c7.33301 0 18 -7.33301 32 -22s30.833 -29.834 50.5 -45.501s40.5 -24.5 62.5 -26.5c5.33301 21.333 26.333 95 63 221c-44 30.667 -78 57.834 -102 81.501s-36 46 -36 67s2.83301 41 8.5 60s12.5 32.5 20.5 40.5c42 42 112 76 210 102c13.333 41.333 25 70.833 35 88.5
s21.5 26.334 34.5 26.001s19.5 -12.166 19.5 -35.499c0 -16 -4.66699 -38 -14 -66h13zM354.496 127.497c25.667 15 38.5 33.5 38.5 55.5s-28.667 53.333 -86 94l-51 -180c40 5.33301 72.833 15.5 98.5 30.5zM197.996 479.997c0 -16 26 -42.333 78 -79l46 162
c-35.333 -12 -64.833 -25.667 -88.5 -41s-35.5 -29.333 -35.5 -42z" />
    <glyph glyph-name="percent" unicode="%" horiz-adv-x="890" 
d="M697 403c32 0 58.834 -16.833 80.501 -50.5s32.5 -71.167 32.5 -112.5c0 -57.333 -20.333 -110 -61 -158s-84.334 -72 -131.001 -72c-28 0 -52.5 14.5 -73.5 43.5s-31.5 61.167 -31.5 96.5c0 62 19.5 119.667 58.5 173s80.833 80 125.5 80zM633.001 89
c19.333 0 40.666 15.167 63.999 45.5s35 61 35 92s-4.16699 55.167 -12.5 72.5s-17.833 26 -28.5 26c-19.333 0 -40.666 -18.5 -63.999 -55.5s-35 -74.5 -35 -112.5c0 -18.667 3.66699 -34.667 11 -48s17.333 -20 30 -20zM628.501 732c33.667 18.667 54.333 28 62 28
s16.834 -9 27.501 -27s15.167 -34.333 13.5 -49s-13.334 -38.334 -35.001 -71.001s-57.5 -82.5 -107.5 -149.5l-182 -252.5c-71.333 -101.333 -117 -164.333 -137 -189s-33.5 -36.5 -40.5 -35.5s-14 6.66699 -21 17s-10.167 19.5 -9.5 27.5s7.33398 22.333 20.001 43
s33.167 51.5 61.5 92.5l83.5 119.5l244 347c-64 -38 -126 -54.667 -186 -50c-7.33301 0 -19 2 -35 6c4.66699 -20.667 7 -39 7 -55c0 -57.333 -20.333 -110.166 -61 -158.499s-84.334 -72.5 -131.001 -72.5c-28.667 0 -53.5 14.5 -74.5 43.5s-31.5 61.167 -31.5 96.5
c0 62 19.5 119.667 58.5 173s81.167 80 126.5 80c15.333 0 30 -4 44 -12c28 -17.333 55.5 -27 82.5 -29s62.167 5.66699 105.5 23s81.833 35.333 115.5 54zM216 382c19.333 0 40.832 15.167 64.499 45.5s35.5 61 35.5 92s-4.16699 55.167 -12.5 72.5s-17.833 26 -28.5 26
c-19.333 0 -40.666 -18.5 -63.999 -55.5s-35 -74.5 -35 -112.5c0 -18 3.66699 -33.833 11 -47.5s17 -20.5 29 -20.5z" />
    <glyph glyph-name="ampersand" unicode="&#x26;" horiz-adv-x="704" 
d="M569 91c32.667 0 54.999 -1.66602 66.999 -4.99902s18 -9.66602 18 -18.999c0 -31.333 -32.167 -47 -96.5 -47s-127.833 29 -190.5 87c-106.667 -65.333 -185.667 -98 -237 -98c-26 0 -51.667 12.5 -77 37.5s-38 51.333 -38 79s58.667 89.167 176 184.5
c3.33301 3.33301 6 5.66602 8 6.99902s4.5 3.33301 7.5 6s5.83301 5 8.5 7c-24 58.667 -36 113.167 -36 163.5s18.333 94.166 55 131.499s83 56 139 56c42.667 0 73.167 -12.833 91.5 -38.5s27.5 -54.167 27.5 -85.5c0 -59.333 -61 -141.666 -183 -246.999
c17.333 -37.333 38 -71.666 62 -102.999l107 76c86 62 133.333 93 142 93c20.667 0 31 -11 31 -33c0 -12.667 -22 -38.334 -66 -77.001s-96 -78.334 -156 -119.001c44.667 -37.333 91.334 -56 140.001 -56zM291.499 570.001c-16.333 -23.333 -24.5 -51.166 -24.5 -83.499
s5 -65.833 15 -100.5c80.667 71.333 121 125.666 121 162.999c0 16 -4.16699 29.333 -12.5 40s-20.833 16 -37.5 16c-24.667 0 -45.167 -11.667 -61.5 -35zM102.999 111.501c0 -7 2.66602 -12.832 7.99902 -17.499s12 -7 20 -7c34.667 0 94.334 27 179.001 81
c-20.667 25.333 -41 55.666 -61 90.999c-81.333 -68 -126 -107.833 -134 -119.5s-12 -21 -12 -28z" />
    <glyph glyph-name="quotesingle" unicode="'" horiz-adv-x="145" 
d="M84 827c0 12.667 4.16699 18.999 12.5 18.999s20 -5.5 35 -16.5s22.5 -19.833 22.5 -26.5c0 -30.667 -6.66699 -80.834 -20 -150.501s-26.333 -102.834 -39 -99.501c-6.66699 0 -14 4.33301 -22 13s-12 15.334 -12 20.001s3.83301 35.334 11.5 92.001
s11.5 106.334 11.5 149.001z" />
    <glyph glyph-name="parenleft" unicode="(" horiz-adv-x="485" 
d="M535.5 860.5c10.333 -9.66699 15.498 -19.333 15.498 -29s-9.5 -22.5 -28.5 -38.5s-42.5 -34 -70.5 -54s-58.667 -46 -92 -78s-64 -66 -92 -102s-51.5 -80.333 -70.5 -133s-28.5 -103.5 -28.5 -152.5s6.83301 -90 20.5 -123s30.667 -59.5 51 -79.5
s42.5 -38.167 66.5 -54.5s46.333 -29.166 67 -38.499c47.333 -22.667 71 -41.167 71 -55.5s-9.66699 -21.5 -29 -21.5c-32 0 -66.667 8.16699 -104 24.5s-73.666 39.166 -108.999 68.499s-64.666 68.5 -87.999 117.5s-35 105 -35 168s12.333 127.333 37 193s55 122 91 169
s74 88.667 114 125s76.167 63.5 108.5 81.5s55.333 27 69 27s25.667 -4.83301 36 -14.5z" />
    <glyph glyph-name="parenright" unicode=")" horiz-adv-x="504" 
d="M426 571c0 -64 -9.16895 -126.833 -27.502 -188.5s-41.833 -115.667 -70.5 -162s-60.167 -89.333 -94.5 -129s-67.833 -72.167 -100.5 -97.5c-69.333 -54 -116.666 -81 -141.999 -81c-15.333 0 -23 5.66699 -23 17c0 12 31.333 45.333 94 100
c62 53.333 120.667 120.666 176 201.999c27.333 40 50 86.833 68 140.5s27 104.334 27 152.001s-5.5 86.5 -16.5 116.5s-24.333 53.333 -40 70s-31.5 31 -47.5 43s-29.5 23.167 -40.5 33.5s-16.5 20.5 -16.5 30.5c0 28.667 18.667 43 56 43
c44.667 0 88.834 -28.667 132.501 -86s65.5 -125.333 65.5 -204z" />
    <glyph glyph-name="asterisk" unicode="*" horiz-adv-x="357" 
d="M381 726c0 -4 -12.668 -13.1641 -38.001 -27.4971s-49.333 -26.166 -72 -35.499c8.66699 -7.33301 20.834 -15.5 36.501 -24.5l38.5 -22.5c10 -6 15 -10.833 15 -14.5s-2.5 -7.5 -7.5 -11.5s-10.5 -6 -16.5 -6s-17.667 5.33301 -35 16s-33.666 22.667 -48.999 36
c-2.66699 -21.333 -7.5 -44.5 -14.5 -69.5s-13.167 -37.5 -18.5 -37.5s-10.5 2.5 -15.5 7.5s-7.5 9.5 -7.5 13.5s1.5 11.167 4.5 21.5s6.66699 22.166 11 35.499s7.16602 23.666 8.49902 30.999c-10.667 -10 -27.834 -21.667 -51.501 -35s-38.334 -20 -44.001 -20
s-11.167 2.5 -16.5 7.5s-8 10.167 -8 15.5c0 3.33301 6 7.66602 18 12.999l47.5 21c19.667 8.66699 35.167 16.667 46.5 24c-19.333 7.33301 -41.5 20.833 -66.5 40.5s-37.5 33.5 -37.5 41.5s3.33301 12 10 12c32 0 51 -6.33301 57 -19
c2.66699 -5.33301 9.83398 -14.333 21.501 -27s21.5 -21 29.5 -25v91c0 10 4.33301 15 13 15c6.66699 0 14.834 -4.33301 24.501 -13s14.5 -15.834 14.5 -21.501s-6 -29.834 -18 -72.501c10.667 6.66699 23 15.834 37 27.501l34 28c8.66699 7 15.5 10.5 20.5 10.5
s11 -2.83301 18 -8.5s10.5 -11.5 10.5 -17.5z" />
    <glyph glyph-name="plus" unicode="+" horiz-adv-x="600" 
d="M606 362c0 -29.333 -84.001 -52.3311 -252.001 -68.998c-24.667 -119.333 -39.334 -186.333 -44.001 -201s-10.667 -22 -18 -22c-9.33301 0 -19.333 6.5 -30 19.5s-16 24.667 -16 35s1 21.333 3 33l9.5 54c4.33301 24.333 8.5 49.166 12.5 74.499
c-57.333 -4 -108.666 -6 -153.999 -6c-16 0 -30.333 6.66699 -43 20s-19 27 -19 41s9.33301 21 28 21c98.667 0 165 1.33301 199 4c6 50 12 110.333 18 181c0.666992 20 7.33398 30 20.001 30s28.5 -9.33301 47.5 -28s28.5 -34.834 28.5 -48.501s-8 -56.5 -24 -128.5
c94.667 8 149.667 12 165 12c46 0 69 -7.33301 69 -22z" />
    <glyph glyph-name="comma" unicode="," horiz-adv-x="228" 
d="M174 26c0 -42 -17.999 -86.166 -53.999 -132.499s-67 -69.5 -93 -69.5c-13.333 0 -20 4.66699 -20 14c0 7.33301 7 19.333 21 36c42 50 63 91.667 63 125c0 10.667 -4.16699 19.5 -12.5 26.5s-16.833 13.5 -25.5 19.5s-13 13.5 -13 22.5s5.66699 20.333 17 34
s23.333 20.5 36 20.5c21.333 0 40.166 -9.83301 56.499 -29.5s24.5 -41.834 24.5 -66.501z" />
    <glyph glyph-name="hyphen" unicode="-" horiz-adv-x="459" 
d="M422 328c0 -10.667 -10.8311 -19.332 -32.498 -25.999s-74 -18.334 -157 -35.001s-128.333 -25 -136 -25s-16.834 5.66699 -27.501 17s-16 21.666 -16 30.999c0 14.667 37.667 28.834 113 42.501s140.666 20.5 195.999 20.5c40 0 60 -8.33301 60 -25z" />
    <glyph glyph-name="period" unicode="." horiz-adv-x="237" 
d="M145 -6c-16.667 0 -35.666 10.835 -56.999 32.502s-32 39.667 -32 54s5.83301 28.666 17.5 42.999s23.667 21.5 36 21.5s26.666 -16.333 42.999 -49s24.5 -57.334 24.5 -74.001c0 -5.33301 -3.66699 -11.333 -11 -18s-14.333 -10 -21 -10z" />
    <glyph glyph-name="slash" unicode="/" horiz-adv-x="354" 
d="M106.5 -4c-22.333 -48.667 -37.332 -72.998 -44.999 -72.998s-17.334 7.16699 -29.001 21.5s-17.5 26.166 -17.5 35.499c0 36.667 105.333 299 316 787c0.666992 2 1.66699 4.5 3 7.5s2.33301 5.33301 3 7s1.5 3.5 2.5 5.5s2 3.33301 3 4s2.16699 1.66699 3.5 3
c2 1.33301 6 2 12 2s16.5 -10 31.5 -30s22.5 -37.5 22.5 -52.5s-8.5 -42.333 -25.5 -82s-42 -94 -75 -163s-69.833 -152.833 -110.5 -251.5s-72.167 -172.334 -94.5 -221.001z" />
    <glyph glyph-name="zero" unicode="0" horiz-adv-x="500" 
d="M381 488c0 104.667 -15.334 156.999 -46.001 156.999c-14 0 -31.833 -13.833 -53.5 -41.5s-42.667 -62.167 -63 -103.5s-37.666 -88.5 -51.999 -141.5s-21.5 -101.833 -21.5 -146.5c0 -76.667 20.333 -115 61 -115c19.333 0 42.833 21.333 70.5 64s52 95.334 73 158.001
s31.5 119 31.5 169zM329.999 95.499c-42.667 -51.667 -84.499 -77.502 -125.499 -77.502s-76.667 18.833 -107 56.5s-45.5 79.834 -45.5 126.501c0 80.667 14.833 162.334 44.5 245.001s67 150.167 112 202.5s88.5 78.5 130.5 78.5s74.5 -19.833 97.5 -59.5
s34.5 -95 34.5 -166s-12.833 -143.5 -38.5 -217.5s-59.834 -136.833 -102.501 -188.5z" />
    <glyph glyph-name="one" unicode="1" horiz-adv-x="314" 
d="M271 651c0 -71.333 -17.002 -174 -51.002 -308c-7.33301 -26.667 -15.666 -59.667 -24.999 -99l-23 -94.5c-6 -23.667 -12.667 -47.5 -20 -71.5c-13.333 -47.333 -26.333 -71 -39 -71c-9.33301 0 -19.166 6.66699 -29.499 20s-15.5 27.166 -15.5 41.499
s7.16699 48.833 21.5 103.5s30.5 129.334 48.5 224.001s30.333 194.334 37 299.001c2 20.667 9.66699 31 23 31c14.667 0 30.5 -9.33301 47.5 -28s25.5 -34.334 25.5 -47.001z" />
    <glyph glyph-name="two" unicode="2" horiz-adv-x="581" 
d="M367.5 135c39 5.33301 67.667 8.00098 86 8.00098s32.333 -1.5 42 -4.5s14.5 -9.16699 14.5 -18.5c0 -18.667 -50.167 -39.834 -150.5 -63.501s-173.833 -35.5 -220.5 -35.5c-20.667 0 -42.167 9.16699 -64.5 27.5s-33.5 37.5 -33.5 57.5c0 16 32 48 96 96
c60 44 119 95.333 177 154c27.333 28 50.166 58.833 68.499 92.5s27.5 64.667 27.5 93s-6.33301 50.5 -19 66.5s-30 24 -52 24s-42.667 -6.66699 -62 -20s-35 -26.5 -47 -39.5s-19.667 -19.5 -23 -19.5c-11.333 0 -24.666 5 -39.999 15s-23 20 -23 30
c0 24.667 20.5 52 61.5 82s84.833 45 131.5 45s85.5 -16.5 116.5 -49.5s46.5 -73.833 46.5 -122.5c0 -144 -123.333 -295 -370 -453c16 2 49.833 7 101.5 15s97 14.667 136 20z" />
    <glyph glyph-name="three" unicode="3" horiz-adv-x="571" 
d="M473 324c36 -22 53.998 -51.166 53.998 -87.499s-21.167 -72.166 -63.5 -107.499s-93.666 -63 -153.999 -83s-121.333 -30 -183 -30s-92.5 11.333 -92.5 34c0 6 19.833 13.833 59.5 23.5l130.5 31c47.333 11 90.833 28.667 130.5 53s59.5 52.5 59.5 84.5
c0 17.333 -12 31.5 -36 42.5s-50.667 18.833 -80 23.5c-77.333 11.333 -116 24.666 -116 39.999c0 5.33301 1 9.33301 3 12c5.33301 9.33301 22.333 22.333 51 39l87.5 49c29.667 16 56.834 37 81.501 63s37 52.333 37 79c0 31.333 -17 47 -51 47
c-27.333 0 -62 -10.833 -104 -32.5s-65.833 -32.5 -71.5 -32.5s-16.167 7.16699 -31.5 21.5s-23 25.166 -23 32.499c0 20 27.167 40.667 81.5 62s102.5 32 144.5 32s77.5 -14.333 106.5 -43s43.5 -61.5 43.5 -98.5s-21 -74.667 -63 -113s-90.667 -70.5 -146 -96.5
c60.667 -8 109 -23 145 -45z" />
    <glyph glyph-name="four" unicode="4" horiz-adv-x="551" 
d="M441 532c10.667 0 24.665 -7.83008 41.998 -23.4971s26 -30.167 26 -43.5c0 -60 -19.333 -154.5 -58 -283.5s-69 -193.5 -91 -193.5c-7.33301 0 -14.5 4.83301 -21.5 14.5s-10.5 20 -10.5 31s3 26.833 9 47.5s14.5 48 25.5 82s20.167 65.667 27.5 95
c-63.333 -28.667 -123.666 -43 -180.999 -43c-38.667 0 -71.167 11.5 -97.5 34.5s-39.5 54.833 -39.5 95.5c0 29.333 11.167 66.5 33.5 111.5s47.833 86.667 76.5 125s57 71.666 85 99.999s47.5 42.5 58.5 42.5s21.667 -4 32 -12s15.5 -16.833 15.5 -26.5
s-17.667 -35.334 -53 -77.001s-70.666 -87.834 -105.999 -138.501s-53 -91 -53 -121c0 -36.667 18.667 -55 56 -55c32 0 71.5 8.66699 118.5 26s71.167 26.333 72.5 27c8 54 12 105 12 153c0 21.333 7 32 21 32z" />
    <glyph glyph-name="five" unicode="5" horiz-adv-x="537" 
d="M444 716c97.333 0 145.998 -10.334 145.998 -31.001c0 -14.667 -57.333 -31 -172 -49c-50.667 -8 -82.5 -13.5 -95.5 -16.5s-28.333 -20.667 -46 -53s-26.5 -55.666 -26.5 -69.999s7 -29.333 21 -45s31.167 -31 51.5 -46l61.5 -46.5c48 -38 72 -75 72 -111
c0 -56 -26.667 -108 -80 -156s-109.333 -72 -168 -72c-46 0 -87.333 15.667 -124 47s-55 62.333 -55 93c0 19.333 5.33301 29 16 29c4 0 13.667 -7.66699 29 -23c45.333 -45.333 84.833 -68 118.5 -68s70.334 15.667 110.001 47s59.5 62.666 59.5 93.999
c0 28.667 -24.667 60 -74 94l-60.5 43.5c-20.333 15 -37.666 32.833 -51.999 53.5s-21.5 44.5 -21.5 71.5s15.333 65.333 46 115s56 76.834 76 81.501c41.333 12 97.333 18 168 18z" />
    <glyph glyph-name="six" unicode="6" horiz-adv-x="556" 
d="M491 257c0 -56 -32.335 -109.499 -97.002 -160.499s-132.334 -76.5 -203.001 -76.5c-42 0 -76.5 14.167 -103.5 42.5s-40.5 66.666 -40.5 114.999s15.833 106.166 47.5 173.499s67.834 127.333 108.501 180s79.834 97.334 117.501 134.001s63.334 55 77.001 55
s27.167 -3.5 40.5 -10.5s20 -14 20 -21s-11.333 -22.5 -34 -46.5c-90 -95.333 -153.667 -170 -191 -224c74 -6.66699 135.5 -26.167 184.5 -58.5s73.5 -66.5 73.5 -102.5zM199.998 101.001c44 0 87.167 15.668 129.5 47.001s63.5 65 63.5 101
c0 25.333 -17.833 48.666 -53.5 69.999s-83.167 35.666 -142.5 42.999c-40.667 -71.333 -61 -135.666 -61 -192.999c0 -22.667 5.83301 -39.667 17.5 -51s27.167 -17 46.5 -17z" />
    <glyph glyph-name="seven" unicode="7" horiz-adv-x="461" 
d="M181.5 707c55 8 108.999 11.999 161.999 11.999s86.5 -4.66699 100.5 -14c11.333 -8.66699 21.166 -22.5 29.499 -41.5s12.5 -34.5 12.5 -46.5s-3.16699 -25.5 -9.5 -40.5s-15.5 -33 -27.5 -54l-35.5 -60l-41.5 -67l-46 -76c-14.667 -25 -39.167 -69.167 -73.5 -132.5
s-59.666 -108.166 -75.999 -134.499s-28.833 -39.5 -37.5 -39.5s-17 6.16699 -25 18.5s-12 24.5 -12 36.5c0 22 24.667 74.833 74 158.5l148.5 247c49.667 81 74.5 128.5 74.5 142.5c0 12 -11.167 18 -33.5 18s-58 -3.66699 -107 -11s-80.167 -11 -93.5 -11
s-27.666 9.16699 -42.999 27.5s-23 33.5 -23 45.5c0 6.66699 27.5 14 82.5 22z" />
    <glyph glyph-name="eight" unicode="8" horiz-adv-x="602" 
d="M562 697c26.667 -21.333 39.998 -49.834 39.998 -85.501s-17.333 -73 -52 -112s-83 -83.167 -145 -132.5c62 -58.667 93 -108.667 93 -150c0 -32.667 -14.5 -64.5 -43.5 -95.5s-64 -55.333 -105 -73s-78.167 -26.5 -111.5 -26.5s-66.166 12.167 -98.499 36.5
s-48.5 51.833 -48.5 82.5s16.333 64.834 49 102.501s78 80.167 136 127.5c-96.667 74.667 -153.334 124.334 -170.001 149.001c-9.33301 13.333 -14 25.833 -14 37.5s1.83301 23.334 5.5 35.001s8.5 17.5 14.5 17.5s14.333 -5.5 25 -16.5l29.5 -29.5
c9 -8.66699 23.667 -21.334 44 -38.001l69.5 -55c26 -20 46 -36 60 -48c39.333 31.333 69 55.666 89 72.999s39.167 37 57.5 59s27.5 40.333 27.5 55c0 25.333 -16.833 38 -50.5 38s-72.167 -8.16699 -115.5 -24.5s-69.666 -24.5 -78.999 -24.5s-21.166 5 -35.499 15
s-21.5 19.667 -21.5 29c0 20 25.667 39.333 77 58s103 28 155 28s91.333 -10.667 118 -32zM407.998 229.999c0 18.667 -22 47.667 -66 87l-83 -67.5c-19.333 -16.333 -37.333 -34.5 -54 -54.5s-25 -36.167 -25 -48.5s5.83301 -23.5 17.5 -33.5s24.5 -15 38.5 -15
c36.667 0 74.5 13.5 113.5 40.5s58.5 57.5 58.5 91.5z" />
    <glyph glyph-name="nine" unicode="9" horiz-adv-x="488" 
d="M470 509c0 -13.333 -8.49805 -42.001 -25.498 -86.001s-30.667 -81.667 -41 -113s-21.666 -75.5 -33.999 -132.5s-22.333 -100 -30 -129s-15.834 -43.5 -24.501 -43.5c-22.667 0 -34 26.667 -34 80s18 138.333 54 255c-48.667 -37.333 -91.334 -56 -128.001 -56
s-68.834 14.333 -96.501 43s-41.5 61.667 -41.5 99s13 79.833 39 127.5s59.833 88.334 101.5 122.001s81.167 50.5 118.5 50.5s66 -12.5 86 -37.5s30 -50.5 30 -76.5s-2.33301 -46.333 -7 -61c22 -4 33 -18 33 -42zM358.002 523.999l8.99805 66.999
c0 14.667 -3.5 26.834 -10.5 36.501s-16.833 14.5 -29.5 14.5c-35.333 0 -74 -28 -116 -84s-63 -103.667 -63 -143c0 -16.667 5.83301 -30 17.5 -40s23.667 -15 36 -15s22.5 1 30.5 3s16 5.16699 24 9.5s15.167 8.5 21.5 12.5s13.333 10 21 18l18.5 19
c4.66699 4.66699 10.834 12 18.501 22s13.167 17 16.5 21c12.667 17.333 22.334 31 29.001 41c-15.333 2 -23 8 -23 18z" />
    <glyph glyph-name="colon" unicode=":" horiz-adv-x="246" 
d="M202 336c-15.333 0 -33.668 13.666 -55.001 40.999s-32 48.833 -32 64.5s4.83301 31.334 14.5 47.001s19.167 23.5 28.5 23.5c16.667 0 32.834 -19 48.501 -57s23.5 -64.333 23.5 -79c0 -26.667 -9.33301 -40 -28 -40zM124.998 -7.00098c-15.333 0 -33.5 13.333 -54.5 40
s-31.5 48 -31.5 64s4.66699 31.833 14 47.5s19 23.5 29 23.5c16 0 31.833 -18.833 47.5 -56.5s23.5 -67.5 23.5 -89.5c0 -7.33301 -2.66699 -14 -8 -20s-12 -9 -20 -9z" />
    <glyph glyph-name="semicolon" unicode=";" horiz-adv-x="306" 
d="M171 8c0 -42 -17.999 -86.333 -53.999 -133s-67 -70 -93 -70c-13.333 0 -20 5 -20 15c0 6.66699 7 18.334 21 35.001c42 50 63 92 63 126c0 10.667 -4.33301 19.5 -13 26.5s-17.167 13.333 -25.5 19s-12.5 13 -12.5 22s5.66699 20.5 17 34.5s23.333 21 36 21
c21.333 0 40.166 -9.83301 56.499 -29.5s24.5 -41.834 24.5 -66.501zM213.001 336c-15.333 0 -33.5 13.666 -54.5 40.999s-31.5 48.833 -31.5 64.5s4.83301 31.334 14.5 47.001s19.167 23.5 28.5 23.5c16 0 32 -19 48 -57s24 -64.333 24 -79s-2.83301 -25 -8.5 -31
s-12.5 -9 -20.5 -9z" />
    <glyph glyph-name="less" unicode="&#x3c;" horiz-adv-x="539" 
d="M491 542c14 0 25.5 -5.49902 34.5 -16.499s13.5 -19.833 13.5 -26.5s-1.66699 -11.667 -5 -15c-4.66699 -4.66699 -26.5 -14.334 -65.5 -29.001s-95.5 -40 -169.5 -76s-111 -61 -111 -75c0 -11.333 24 -30 72 -56l144.5 -77c48.333 -25.333 72.5 -43 72.5 -53
c0 -14 -12.167 -21 -36.5 -21s-65.333 11.833 -123 35.5s-111.5 51.5 -161.5 83.5s-75 57.333 -75 76c0 10.667 3.66699 24.167 11 40.5s15 27.833 23 34.5c34 28.667 96.833 65 188.5 109s154.167 66 187.5 66z" />
    <glyph glyph-name="equal" unicode="=" horiz-adv-x="631" 
d="M247 279c126.667 14.667 212.167 22.001 256.5 22.001s66.5 -8.33301 66.5 -25c0 -24.667 -77.667 -47.334 -233 -68.001c-112 -14 -192.667 -21 -242 -21c-8.66699 0.666992 -17.167 7.5 -25.5 20.5s-12.5 23.833 -12.5 32.5c0 11.333 63.333 24.333 190 39z
M244.5 473.001c103 10.667 187.501 16.001 253.501 16.001s99 -10.333 99 -31c0 -11.333 -14.5 -20.333 -43.5 -27s-98.167 -16.334 -207.5 -29.001s-182 -19 -218 -19c-8.66699 0 -17.334 6.5 -26.001 19.5s-13 24.167 -13 33.5c0.666992 14 52.5 26.333 155.5 37z" />
    <glyph glyph-name="greater" unicode="&#x3e;" horiz-adv-x="561" 
d="M132 527c0 10.667 7.66699 16 23 16c45.333 -0.666992 100 -18.334 164 -53.001s115.667 -71.334 155 -110.001c21.333 -21.333 32 -41 32 -59c0 -25.333 -52.333 -66.666 -157 -123.999l-19 -11c-106 -60 -177.333 -90 -214 -90c-20 0 -30 6.83301 -30 20.5
s26.833 36.334 80.5 68.001l161 91c53.667 29 80.5 47.167 80.5 54.5c0 14 -27 36.333 -81 67s-98.333 51 -133 61c-12.667 4 -26.167 14.5 -40.5 31.5s-21.5 29.5 -21.5 37.5z" />
    <glyph glyph-name="question" unicode="?" horiz-adv-x="518" 
d="M222 -3c-16 0 -34.499 10.5 -55.499 31.5s-31.5 38.5 -31.5 52.5s5.66699 27.833 17 41.5s22.666 20.5 33.999 20.5s25 -16.167 41 -48.5s24 -56.5 24 -72.5c0 -4.66699 -3.33301 -10 -10 -16s-13 -9 -19 -9zM258.001 634l2.00098 -26.001
c0 -8 -4.16699 -13.833 -12.5 -17.5s-15.666 -5.5 -21.999 -5.5s-15.833 7.66699 -28.5 23s-19 28.333 -19 39c0 36.667 16.333 69.334 49 98.001s70.667 43 114 43s80.166 -13.667 110.499 -41s45.5 -64.333 45.5 -111c0 -27.333 -9.16699 -56 -27.5 -86
s-38.833 -56 -61.5 -78c-66.667 -66 -108.167 -118.667 -124.5 -158s-27.5 -61.666 -33.5 -66.999s-11.333 -8 -16 -8c-16.667 0 -25 21.333 -25 64c0 27.333 10.5 56.666 31.5 87.999s44 58.833 69 82.5s48 50 69 79s31.5 54.5 31.5 76.5s-7.16699 39.5 -21.5 52.5
s-31.833 19.5 -52.5 19.5s-38.834 -6.33301 -54.501 -19s-23.5 -28.667 -23.5 -48z" />
    <glyph glyph-name="at" unicode="@" horiz-adv-x="965" 
d="M607 730c93.333 0 167.67 -29.667 223.003 -89s83 -135.333 83 -228c0 -43.333 -8.83301 -86.333 -26.5 -129s-40 -79.5 -67 -110.5s-56.833 -56 -89.5 -75s-61.334 -28.5 -86.001 -28.5s-44.5 6.83301 -59.5 20.5s-24.833 31.167 -29.5 52.5
c-59.333 -62.667 -109.666 -94 -150.999 -94c-30 0 -59.667 12.833 -89 38.5s-44 52.5 -44 80.5s8.83301 62.5 26.5 103.5s39.667 80 66 117s56.833 68.5 91.5 94.5s67 39 97 39s57.333 -14.5 82 -43.5s37 -55.167 37 -78.5s-7 -45.333 -21 -66
c10 -11.333 15 -21.333 15 -30s-5.5 -26.834 -16.5 -54.501s-16.5 -47.5 -16.5 -59.5s2.66699 -21.833 8 -29.5s13.5 -11.5 24.5 -11.5s25.667 6.83301 44 20.5s36.166 31.667 53.499 54s32.333 50 45 83s19 66.5 19 100.5c0 72 -18.167 130.5 -54.5 175.5
s-88.833 67.5 -157.5 67.5s-133.167 -16.5 -193.5 -49.5s-111 -75 -152 -126s-73.667 -107.167 -98 -168.5s-36.5 -122.5 -36.5 -183.5s18.167 -111.167 54.5 -150.5s87.166 -59 152.499 -59c76 0 148 12 216 36c22.667 8 37 12 43 12c8.66699 0 13 -4.66699 13 -14
c0 -27.333 -31 -52.833 -93 -76.5s-121.333 -35.5 -178 -35.5c-85.333 0 -156.5 28.5 -213.5 85.5s-85.5 125.833 -85.5 206.5c0 65.333 13.667 133 41 203s64.833 134.833 112.5 194.5s107.667 108.834 180 147.501s149.166 58 230.499 58zM559.004 446
c-24.667 0 -53.832 -17.832 -87.499 -53.499s-62.334 -75.834 -86.001 -120.501s-35.5 -80 -35.5 -106c0 -12 5 -22.167 15 -30.5s21 -12.5 33 -12.5c30 0 65.833 21.5 107.5 64.5s69.167 93.5 82.5 151.5c2 9.33301 7.66699 14.333 17 15v7c-2 24 -7 44.167 -15 60.5
s-18.333 24.5 -31 24.5z" />
    <glyph glyph-name="A" unicode="A" horiz-adv-x="608" 
d="M564 363c0 -12.667 -29.332 -27.333 -87.999 -44c5.33301 -69.333 8 -128.333 8 -177c0 -84 -10.667 -126 -32 -126c-11.333 0 -20.333 7 -27 21s-12 38.333 -16 73c-4.66699 64 -9.66699 126.667 -15 188l-82 -21.5c-24.667 -6.33301 -62 -16.5 -112 -30.5
c-58.667 -153.333 -93.334 -230 -104.001 -230s-22.167 6.5 -34.5 19.5s-18.5 26.833 -18.5 41.5c0 6.66699 19 54 57 142h-7c-13.333 0 -25.166 4.33301 -35.499 13s-15.5 19.5 -15.5 32.5s33 30.167 99 51.5c10.667 24 19.334 45.667 26.001 65l64 156l52 126.5
c7.33301 18.333 20.166 34 38.499 47s36.166 19.5 53.499 19.5c20.667 0 39.167 -33 55.5 -99s29.5 -147.667 39.5 -245c18.667 2 35 3 49 3c30 0 45 -8.66699 45 -26zM237.001 342.001c47.333 12.667 97.333 23.333 150 32c-12 114 -23.667 199.667 -35 257
c-30 -68.667 -68.333 -165 -115 -289z" />
    <glyph glyph-name="B" unicode="B" horiz-adv-x="637" 
d="M575 254c0 -39.333 -20.332 -77.5 -60.999 -114.5s-93.334 -66.667 -158.001 -89s-130.667 -33.5 -198 -33.5c-39.333 0 -74.5 11 -105.5 33s-46.5 42.5 -46.5 61.5s5.66699 28.5 17 28.5c2.66699 0 15.834 -7.16699 39.501 -21.5s48.5 -21.833 74.5 -22.5
c-9.33301 4.66699 -18.166 13.334 -26.499 26.001s-12.5 24.667 -12.5 36s8 43 24 95c49.333 156.667 74.666 277 75.999 361h-8c-12 0 -24.333 7.5 -37 22.5s-19 27.167 -19 36.5c0 11.333 14.167 21.166 42.5 29.499s62.5 12.5 102.5 12.5
c93.333 0 165.333 -12.667 216 -38s76 -62 76 -110c0 -40 -16.833 -76.333 -50.5 -109s-82.834 -59 -147.501 -79l9 -1c56 -3.33301 102.167 -17 138.5 -41s54.5 -51.667 54.5 -83zM447.501 613.5c-22.333 12.333 -49.333 18.499 -81 18.499s-70.167 -4 -115.5 -12
c18.667 -20 28 -39.167 28 -57.5s-11.667 -73.5 -35 -165.5c16 10 41 21.5 75 34.5s60.833 24.5 80.5 34.5s34 18.833 43 26.5s17.667 17.834 26 30.501s12.5 25.667 12.5 39c0 22 -11.167 39.167 -33.5 51.5zM488.001 257.999c0 20 -23.166 36.833 -69.499 50.5
s-92.5 20.5 -138.5 20.5c-18 0 -33.667 9.33301 -47 28c-40.667 -160.667 -67.334 -247.667 -80.001 -261c47.333 1.33301 97 9.83301 149 25.5s96 36.167 132 61.5s54 50.333 54 75z" />
    <glyph glyph-name="C" unicode="C" horiz-adv-x="599" 
d="M470 718c17.333 0 35.167 -11.001 53.5 -33.001s27.5 -40.167 27.5 -54.5s-2.5 -21.5 -7.5 -21.5s-14.5 2.5 -28.5 7.5s-26.667 7.5 -38 7.5c-26 0 -57.5 -13.333 -94.5 -40s-72 -59.667 -105 -99s-61.167 -84.166 -84.5 -134.499s-35 -93.833 -35 -130.5
s9.5 -63.5 28.5 -80.5s43.833 -25.5 74.5 -25.5s62.334 4.5 95.001 13.5s59.334 19.167 80.001 30.5c53.333 28.667 82.666 43 87.999 43c11.333 0 17 -7.5 17 -22.5s-15.333 -35 -46 -60s-68.667 -47.5 -114 -67.5s-86 -30 -122 -30c-46.667 0 -90.667 20.167 -132 60.5
s-62 84.833 -62 133.5c0 62.667 20.5 133.5 61.5 212.5s93.667 147.167 158 204.5s126.166 86 185.499 86z" />
    <glyph glyph-name="D" unicode="D" horiz-adv-x="645" 
d="M151 721c62.667 0 129.5 -16.332 200.5 -48.999s132.167 -77.834 183.5 -135.501s77 -117.5 77 -179.5c0 -40.667 -28.167 -88.5 -84.5 -143.5s-121.5 -102 -195.5 -141s-135.333 -58.5 -184 -58.5c-12.667 0 -27.167 10.833 -43.5 32.5s-24.5 43.667 -24.5 66
s19.333 102.833 58 241.5s59.667 230 63 274c-21.333 8.66699 -38.333 20 -51 34s-19 27.333 -19 40s6.66699 19 20 19zM520 368.001c0 41.333 -24.667 86.1699 -74 134.503s-106.666 83.166 -171.999 104.499c3.33301 -12 5 -26.167 5 -42.5s-5.83301 -46.833 -17.5 -91.5
s-32.834 -119.334 -63.501 -224.001c-12.667 -44 -23 -92.333 -31 -145c46 6 97.5 26.167 154.5 60.5s104.333 71.166 142 110.499s56.5 70.333 56.5 93z" />
    <glyph glyph-name="E" unicode="E" horiz-adv-x="585" 
d="M208 333c-36 -114 -54.001 -182.999 -54.001 -206.999c0 -8 2.5 -14.5 7.5 -19.5s11.5 -7.5 19.5 -7.5c76.667 0 161.334 12.333 254.001 37c30 8 47.333 12 52 12c10 0 15 -7 15 -21c0 -24 -36.833 -48.667 -110.5 -74s-144.834 -38 -213.501 -38
c-30.667 0 -57.5 9 -80.5 27s-34.5 40.667 -34.5 68s9.83301 74 29.5 140s39.5 136.333 59.5 211s30 137.667 30 189c0 7.33301 1.33301 15 4 23c11.333 24.667 84 37 218 37s201 -9.66699 201 -29c0 -13.333 -14.333 -22.333 -43 -27
c-24 -4.66699 -55.833 -8.83398 -95.5 -12.501s-67.5 -6.33398 -83.5 -8.00098s-54.667 -7.83398 -116 -18.501v-3c0 -45.333 -12.333 -113.666 -37 -204.999c4 -0.666992 17.5 -1 40.5 -1s53.833 1.66699 92.5 5s67.834 5 87.501 5s29.5 -4.66699 29.5 -14
c0 -23.333 -27.333 -40.666 -82 -51.999s-118 -17 -190 -17z" />
    <glyph glyph-name="F" unicode="F" horiz-adv-x="523" 
d="M197 313l-2 0.00195312c-1.33301 -6.66699 -7.83301 -33.334 -19.5 -80.001s-19.167 -77.167 -22.5 -91.5s-6.16602 -25.833 -8.49902 -34.5s-4.83301 -18.5 -7.5 -29.5s-5.16699 -19.667 -7.5 -26s-4.5 -12.5 -6.5 -18.5c-4 -11.333 -8 -17 -12 -17
c-8.66699 0 -20 9.5 -34 28.5s-21 34.5 -21 46.5s19.167 95.333 57.5 250s58.166 257.667 59.499 309c0 10 2.33301 18 7 24c6.66699 14 26.5 24 59.5 30s81.333 9 145 9s113.667 -3.33301 150 -10s54.5 -16 54.5 -28c0 -8 -5.66699 -13.667 -17 -17
s-21.333 -5.83301 -30 -7.5s-20 -3.33398 -34 -5.00098s-27 -3 -39 -4s-27.5 -2.5 -46.5 -4.5l-52.5 -5.5c-16 -1.66699 -37.667 -4.16699 -65 -7.5s-45 -5.33301 -53 -6c0.666992 -2 1 -5 1 -9c0 -31.333 -13 -103.333 -39 -216c41.333 -2 85.833 -1 133.5 3
s76.834 6 87.501 6c25.333 0 38 -5.33301 38 -16c0 -20.667 -28.833 -38 -86.5 -52s-120.834 -21 -189.501 -21z" />
    <glyph glyph-name="G" unicode="G" horiz-adv-x="611" 
d="M461 624c-42 0 -88.501 -23.001 -139.501 -69.001s-94.5 -103.5 -130.5 -172.5s-54 -133.167 -54 -192.5c0 -24 7.66699 -44.5 23 -61.5s33.333 -25.5 54 -25.5c32 0 69.5 17.5 112.5 52.5s82.833 80.167 119.5 135.5c-37.333 -10 -65 -15 -83 -15
s-33.333 4.83301 -46 14.5s-19 18.834 -19 27.501c0 10.667 14.333 19.167 43 25.5s64.667 9.5 108 9.5c24 0 43.5 -10.167 58.5 -30.5s22.5 -44 22.5 -71s-16.667 -90.5 -50 -190.5s-58.5 -150 -75.5 -150s-25.5 9.66699 -25.5 29c0 18.667 4.83301 44 14.5 76l30.5 98.5
l26 82.5c-32.667 -55.333 -69.667 -99.166 -111 -131.499s-81.5 -48.5 -120.5 -48.5s-77.5 18.167 -115.5 54.5s-57 76.166 -57 119.499c0 67.333 21.333 142.333 64 225s96.334 153.5 161.001 212.5s125.334 88.5 182.001 88.5c18.667 0 37 -11.167 55 -33.5
s27 -40.333 27 -54s-3.66699 -20.5 -11 -20.5c-2 0 -9.33301 2.5 -22 7.5s-26.334 7.5 -41.001 7.5z" />
    <glyph glyph-name="H" unicode="H" horiz-adv-x="670" 
d="M120 17c-8 0 -19.001 8.83398 -33.001 26.501s-21 34.5 -21 50.5s14.667 81.333 44 196c-8.66699 3.33301 -16.167 9.16602 -22.5 17.499s-9.5 17.833 -9.5 28.5c0 8.66699 17.333 18.334 52 29.001c44.667 174.667 67 283 67 325c0 11.333 1.5 19.166 4.5 23.499
s9 6.5 18 6.5s21 -10.333 36 -31s22.5 -43.834 22.5 -69.501s-16.333 -102.834 -49 -231.501c88 18 174.333 29.667 259 35c34 138.667 51 227.667 51 267c0 20 6.66699 30 20 30c11.333 0 24.666 -10.333 39.999 -31s23 -42.167 23 -64.5s-15 -90.166 -45 -203.499
c30.667 -4.66699 46 -13.834 46 -27.501s-20.667 -24.834 -62 -33.501c-21.333 -78.667 -35.833 -133.167 -43.5 -163.5l-18.5 -72.5c-4.66699 -18 -9.66699 -36 -15 -54c-9.33301 -35.333 -17.666 -53 -24.999 -53c-9.33301 0 -20.166 7.83301 -32.499 23.5
s-18.5 31.834 -18.5 48.501s20 102.334 60 257.001c-97.333 -13.333 -185 -28.666 -263 -45.999l-26.5 -100.5l-19.5 -75.5c-4.66699 -18 -9.66699 -36 -15 -54c-9.33301 -35.333 -17.333 -53 -24 -53z" />
    <glyph glyph-name="I" unicode="I" horiz-adv-x="310" 
d="M87.5 43c-13 16 -19.502 30.6689 -19.502 44.002s19.833 106.5 59.5 279.5s59.834 280.167 60.501 321.5c0 11.333 1.5 19.166 4.5 23.499s9.33301 6.5 19 6.5s22.334 -10.333 38.001 -31s23.5 -42.834 23.5 -66.501s-24 -133.167 -72 -328.5
c-4.66699 -18 -11 -43.833 -19 -77.5s-14.333 -59.5 -19 -77.5l-15 -59c-11.333 -39.333 -21 -59 -29 -59s-18.5 8 -31.5 24z" />
    <glyph glyph-name="J" unicode="J" horiz-adv-x="468" 
d="M8 165c0 19.333 6 28.999 18 28.999c7.33301 0 27.333 -16.667 60 -50c12.667 -12 28 -23.167 46 -33.5s35.667 -15.5 53 -15.5c22 0 42.167 23.167 60.5 69.5s43.833 129 76.5 248s59 194.833 79 227.5c-29.333 -4.66699 -70.5 -13.334 -123.5 -26.001
s-84.833 -19 -95.5 -19c-24.667 0 -37 8.33301 -37 25c0 22.667 41.5 45.667 124.5 69s143.833 35 182.5 35c12 0 22.5 -2.66699 31.5 -8s13.5 -13.166 13.5 -23.499s-4.66699 -29.166 -14 -56.499c-41.333 -120.667 -68.333 -202.667 -81 -246
c-43.333 -158 -76.333 -260.333 -99 -307s-56.5 -70 -101.5 -70s-88.5 18.667 -130.5 56s-63 69.333 -63 96z" />
    <glyph glyph-name="K" unicode="K" horiz-adv-x="591" 
d="M105 20c-9.33301 0 -20.165 7.83203 -32.498 23.499s-18.5 32 -18.5 49s21.667 109.5 65 277.5s65 273.333 65 316c0 12 1.33301 20.333 4 25s8.83398 7 18.501 7s21.167 -10.333 34.5 -31s20 -44.334 20 -71.001s-17.333 -105.667 -52 -237
c60.667 82.667 124.667 158.834 192 228.501s110 104.5 128 104.5c13.333 0 25.833 -4.33301 37.5 -13s17.5 -17.167 17.5 -25.5s-15.833 -27 -47.5 -56l-127.5 -121.5c-53.333 -52 -99 -104 -137 -156c0 -27.333 7.33301 -57 22 -89
c23.333 -53.333 71.333 -97.666 144 -132.999c31.333 -15.333 55.833 -28.333 73.5 -39s26.5 -21.667 26.5 -33c0 -17.333 -13 -26 -39 -26s-53.333 5.5 -82 16.5s-57.334 26.5 -86.001 46.5s-54.834 46.5 -78.501 79.5s-39.834 69.167 -48.501 108.5
c-20.667 -36.667 -40 -85 -58 -145c-22 -70.667 -35.333 -106 -40 -106h-1z" />
    <glyph glyph-name="L" unicode="L" horiz-adv-x="546" 
d="M203.5 718c3 4.66699 9.33105 6.99805 18.998 6.99805s21.834 -8.33301 36.501 -25s22 -34.334 22 -53.001c0 -46.667 -28.667 -164.667 -86 -354c-28.667 -92 -43 -147 -43 -165s8.66699 -27 26 -27c75.333 0 158 12.333 248 37c28.667 8 45.834 12 51.501 12
s9.5 -1.16699 11.5 -3.5s3 -6.83301 3 -13.5c0 -28 -34.167 -54.333 -102.5 -79s-137.833 -37 -208.5 -37c-32 0 -59.833 9.33301 -83.5 28s-35.5 40.834 -35.5 66.501s22.833 117.834 68.5 276.501s68.5 261 68.5 307c0 10.667 1.5 18.334 4.5 23.001z" />
    <glyph glyph-name="M" unicode="M" horiz-adv-x="789" 
d="M189.5 711.5c3 4.33301 8.66406 6.49902 16.9971 6.49902s22.833 -9 43.5 -27s31.667 -34 33 -48c2.66699 -24 15.334 -66.5 38.001 -127.5s48.667 -122.833 78 -185.5c37.333 44 84.333 102.5 141 175.5s98.667 124.833 126 155.5s47 46 59 46s24.667 -6.66699 38 -20
s20 -26 20 -38s-1.33301 -25.667 -4 -41s-7.16699 -35.5 -13.5 -60.5l-17 -65c-5 -18.333 -13.167 -46.833 -24.5 -85.5s-20 -69.5 -26 -92.5l-21 -84l-19.5 -81c-5 -21 -10.167 -41.5 -15.5 -61.5c-10 -38.667 -19.5 -58 -28.5 -58s-17.833 8 -26.5 24s-13 37.5 -13 64.5
s11.5 88.833 34.5 185.5s47.833 181.334 74.5 254.001c-122.667 -153.333 -198.167 -245 -226.5 -275s-51.666 -45 -69.999 -45s-35.5 10.333 -51.5 31c-24 34.667 -56.333 116.667 -97 246c-11.333 -70 -23.833 -129.833 -37.5 -179.5l-27 -99l-11 -40.5l-10.5 -37.5
c-4 -14.333 -7.5 -26.166 -10.5 -35.499l-9.5 -30.5c-3.33301 -11 -6.16602 -19.833 -8.49902 -26.5s-4.83301 -13 -7.5 -19c-5.33301 -11.333 -9.33301 -17 -12 -17c-8 0 -18 8.66699 -30 26s-18 34 -18 50s21.5 108 64.5 276s64.5 273.333 64.5 316
c0 11.333 1.5 19.166 4.5 23.499z" />
    <glyph glyph-name="N" unicode="N" horiz-adv-x="677" 
d="M562 680c1.33301 28.667 8.16699 43.001 20.5 43.001s25.833 -7.66699 40.5 -23s22 -29 22 -41c0 -54.667 -8.5 -132.334 -25.5 -233.001s-39.667 -194 -68 -280s-55.166 -129 -80.499 -129c-8.66699 0 -18.5 4.33301 -29.5 13s-19.5 19.334 -25.5 32.001
c-20 46.667 -79 194.667 -177 444l-66.5 -262.5c-24.333 -97.667 -40.5 -159.834 -48.5 -186.501s-15 -40 -21 -40c-8.66699 0 -19.167 7.5 -31.5 22.5s-18.5 30.5 -18.5 46.5s21.667 109.833 65 281.5s65.666 278.834 66.999 321.501c0 21.333 5.66699 32 17 32
c7.33301 0 17.5 -6.16699 30.5 -18.5s22.5 -25.833 28.5 -40.5c107.333 -278.667 175.333 -449.334 204 -512.001c43.333 114.667 72.333 251.667 87 411c6.66699 73.333 10 113 10 119z" />
    <glyph glyph-name="O" unicode="O" horiz-adv-x="613" 
d="M453 300.5c31.333 57.667 47.001 112.167 47.001 163.5s-9.83301 93 -29.5 125s-42.834 48 -69.501 48s-60 -20.667 -100 -62s-76 -95.5 -108 -162.5s-48 -131.167 -48 -192.5c0 -36.667 8 -66.5 24 -89.5s34.667 -34.5 56 -34.5c33.333 0 71.833 19.667 115.5 59
s81.167 87.833 112.5 145.5zM219.001 17c-44 0 -82.502 21.6641 -115.502 64.9971s-49.5 87.333 -49.5 132c0 60.667 11.167 122.334 33.5 185.001s50.333 117.334 84 164.001s70.834 84.834 111.501 114.501s78.334 44.5 113.001 44.5c56 0 102.667 -25.5 140 -76.5
s56 -108.5 56 -172.5s-17.667 -131.167 -53 -201.5s-82.5 -130.333 -141.5 -180s-118.5 -74.5 -178.5 -74.5z" />
    <glyph glyph-name="P" unicode="P" horiz-adv-x="543" 
d="M559 553c0 -72 -34.499 -132.999 -103.499 -182.999s-160.167 -86 -273.5 -108c-48.667 -164.667 -77.667 -247 -87 -247s-20.333 7.5 -33 22.5s-19 30 -19 45s9.66699 54.833 29 119.5c60 199.333 91.333 338.333 94 417c-16 14.667 -24 28 -24 40
c0 16.667 22.667 32.667 68 48s88.666 23 129.999 23c64 0 116.5 -16.333 157.5 -49s61.5 -75.334 61.5 -128.001zM471.001 547.001c0 29.333 -11.168 53.501 -33.501 72.501s-49.166 28.5 -80.499 28.5s-69.333 -10 -114 -30c6.66699 -14.667 10 -28.334 10 -41.001
c0 -37.333 -16.333 -116.333 -49 -237c80 21.333 144.5 50.833 193.5 88.5s73.5 77.167 73.5 118.5z" />
    <glyph glyph-name="Q" unicode="Q" horiz-adv-x="641" 
d="M543.5 643c42.333 -50.667 63.5029 -107.833 63.5029 -171.5s-16.667 -130.334 -50 -200.001s-76 -127.5 -128 -173.5c9.33301 -26 21 -56.5 35 -91.5s24.333 -61.667 31 -80s10 -32.5 10 -42.5c0 -15.333 -8.33301 -23 -25 -23c-30 0 -69.333 63.667 -118 191
c-40.667 -21.333 -82.334 -32 -125.001 -32s-83.334 20 -122.001 60s-58 84.667 -58 134c0 62 11 124.333 33 187s49.5 116.834 82.5 162.501s69.667 83 110 112s78.166 43.5 113.499 43.5c56 0 105.167 -25.333 147.5 -76zM482.503 324.501
c22.333 49 33.501 97.166 33.501 144.499s-12 87 -36 119s-49.667 48 -77 48c-10.667 0 -22.334 -2.66699 -35.001 -8c-15.333 -21.333 -23 -53.666 -23 -96.999c0 -108.667 17.667 -222 53 -340c34 40 62.167 84.5 84.5 133.5zM177.504 131
c21.667 -23.333 45.167 -34.999 70.5 -34.999s54 11.667 86 35c-47.333 148 -71 263.333 -71 346c0 26 2.33301 48.667 7 68c-36 -44 -65.833 -95.333 -89.5 -154s-35.5 -115.334 -35.5 -170.001c0 -36.667 10.833 -66.667 32.5 -90z" />
    <glyph glyph-name="R" unicode="R" horiz-adv-x="584" 
d="M100 16c-10 0 -21.333 7.33203 -34 21.999s-19 29.5 -19 44.5s18.333 87.167 55 216.5s57.667 227.666 63 294.999c-8.66699 5.33301 -16.334 13.666 -23.001 24.999s-10 21.333 -10 30c0 15.333 22.667 31.166 68 47.499s95.5 24.5 150.5 24.5
s102.667 -13.167 143 -39.5s60.5 -63.5 60.5 -111.5c0 -32.667 -9.16699 -63.167 -27.5 -91.5s-40.666 -51.5 -66.999 -69.5s-52.5 -34 -78.5 -48s-48.167 -25.5 -66.5 -34.5s-27.5 -15.5 -27.5 -19.5c0 -14.667 11.5 -33.667 34.5 -57s39.167 -39.333 48.5 -48l37 -34.5
c15.333 -14.333 29.833 -27.166 43.5 -38.499l33 -28l25.5 -23c16.667 -15.333 25 -27.666 25 -36.999c0 -16 -11 -24 -33 -24c-40 0 -97 34.833 -171 104.5s-119.333 128.834 -136 177.501l-54 -180.5c-4.66699 -16.333 -10 -33.166 -16 -50.499
c-10.667 -34.667 -18.667 -52 -24 -52zM251 566.999c0 -43.333 -14 -115 -42 -215c11.333 8.66699 33 21.5 65 38.5l86.5 47c25.667 14.333 49.167 33.5 70.5 57.5s32 49 32 75c0 41.333 -36 62 -108 62c-32.667 0 -70.667 -8.33301 -114 -25c6.66699 -14.667 10 -28 10 -40
z" />
    <glyph glyph-name="S" unicode="S" horiz-adv-x="531" 
d="M468 214c0 -54.667 -24.666 -100.504 -73.999 -137.504s-105.833 -55.5 -169.5 -55.5s-116.167 16.5 -157.5 49.5s-62 64.167 -62 93.5c0 20 6 30 18 30c10.667 0 31.667 -16 63 -48c12 -11.333 28.167 -22 48.5 -32s41.833 -15 64.5 -15c46.667 0 88.167 12 124.5 36
s54.5 50 54.5 78c0 18 -12 41 -36 69s-50.5 54.5 -79.5 79.5s-55.5 51.833 -79.5 80.5s-36 51.334 -36 68.001s3.33301 34.334 10 53.001s14 32.334 22 41.001c26 28.667 66.5 55 121.5 79s101.167 36 138.5 36c19.333 0 35.666 -6.33301 48.999 -19s20 -26 20 -40
c0 -6.66699 -7 -12 -21 -16s-35.167 -9.16699 -63.5 -15.5s-53.5 -13.833 -75.5 -22.5c-76.667 -29.333 -115 -57.666 -115 -84.999c0 -14.667 39 -55.667 117 -123c30 -26 57.167 -56.167 81.5 -90.5s36.5 -65.5 36.5 -93.5z" />
    <glyph glyph-name="T" unicode="T" horiz-adv-x="535" 
d="M284 632l-171.001 -7.99805c-10.667 0 -21.667 7 -33 21s-17 27.667 -17 41c0 12 19.167 19.667 57.5 23s122.5 5 252.5 5c67.333 0 122.833 -7.33301 166.5 -22s65.5 -31 65.5 -49c0 -12.667 -11 -19 -33 -19s-52.667 1.33301 -92 4s-77 4.33398 -113 5.00098
c2 -6.66699 3 -14 3 -22c0 -24.667 -26 -139.334 -78 -344.001l-24 -100c-10.667 -45.333 -18.667 -77 -24 -95c-9.33301 -35.333 -17.666 -53 -24.999 -53c-10 0 -21.167 7.5 -33.5 22.5s-18.5 30.167 -18.5 45.5s18 94.166 54 236.499s57 245.166 63 308.499z" />
    <glyph glyph-name="U" unicode="U" horiz-adv-x="598" 
d="M173 712.5c2.66699 4.33301 8.83301 6.50098 18.5 6.50098s22.5 -8.83301 38.5 -26.5s24 -38.334 24 -62.001s-13.5 -88.167 -40.5 -193.5s-40.5 -176.833 -40.5 -214.5s7 -68.167 21 -91.5s32 -35 54 -35s46.333 12.667 73 38s51.5 58.5 74.5 99.5s42.333 91 58 150
s23.5 118.5 23.5 178.5c0 28 -1.5 56 -4.5 84s-4.5 45.333 -4.5 52c0 14 6 21 18 21c15.333 0 33 -11.5 53 -34.5s30 -52.5 30 -88.5c0 -102.667 -15 -199 -45 -289s-70.333 -161.833 -121 -215.5s-104.667 -80.5 -162 -80.5c-42 0 -78.5 20.333 -109.5 61
s-46.5 87.334 -46.5 140.001s14 135.5 42 248.5s42 189.167 42 228.5c0 11.333 1.33301 19.166 4 23.499z" />
    <glyph glyph-name="V" unicode="V" horiz-adv-x="532" 
d="M545 718c10.667 0 21.333 -3.83301 32 -11.5s16 -17 16 -28s-6.16699 -28.5 -18.5 -52.5s-33.5 -62.5 -63.5 -115.5s-55.667 -100.833 -77 -143.5l-60.5 -125.5l-45 -98l-32.5 -69.5c-21.333 -40.667 -39 -61 -53 -61c-8 0 -17.667 6.5 -29 19.5s-20.333 27.833 -27 44.5
c-18 44.667 -42.167 148 -72.5 310s-45.5 262 -45.5 300c0 20.667 5.66699 31 17 31c14 0 28.333 -7.16699 43 -21.5s26.334 -32.5 35.001 -54.5c4 -12 13.833 -78.5 29.5 -199.5s33.5 -219.5 53.5 -295.5c42.667 120.667 97.667 246 165 376s111.666 195 132.999 195z" />
    <glyph glyph-name="W" unicode="W" horiz-adv-x="782" 
d="M498 719c78 0 136.996 -30.9971 176.996 -92.9971s60 -140 60 -234s-23.167 -179.5 -69.5 -256.5s-99.833 -115.5 -160.5 -115.5c-42.667 0 -74 24 -94 72s-33 116.333 -39 205l-96 -134c-69.333 -96 -118 -144 -146 -144c-10.667 0 -23 8.66699 -37 26
s-21 39.166 -21 65.499s9 108.666 27 246.999s27 246.166 27 323.499c0 24.667 7.33301 37 22 37s31.834 -8.66699 51.501 -26s29.5 -33.166 29.5 -47.499s-11.167 -84.833 -33.5 -211.5s-36.166 -226 -41.499 -298c40.667 68.667 86.5 132.167 137.5 190.5
s87.5 87.5 109.5 87.5c22.667 0 38.334 -50 47.001 -150c3.33301 -37.333 9.83301 -71.666 19.5 -102.999s22.834 -47 39.501 -47c37.333 0 69.833 30.167 97.5 90.5s41.5 127.166 41.5 200.499c0 81.333 -18 144 -54 188c-18.667 23.333 -39.167 35 -61.5 35
s-41.333 7.66699 -57 23s-23.5 28.666 -23.5 39.999c0 19.333 16 29 48 29z" />
    <glyph glyph-name="X" unicode="X" horiz-adv-x="624" 
d="M574 715c8 0 18.6631 -6.99609 31.9961 -20.9961s20 -24.5 20 -31.5s-2.16699 -12.5 -6.5 -16.5s-11.166 -9.33301 -20.499 -16s-17.333 -13.334 -24 -20.001c-24.667 -24 -97 -113.333 -217 -268c18 -29.333 44 -69.5 78 -120.5s58.5 -89.333 73.5 -115
s22.5 -43.834 22.5 -54.501s-2.66699 -18.834 -8 -24.501s-11.333 -8.5 -18 -8.5c-16.667 0 -44.167 23.833 -82.5 71.5s-79.166 107.167 -122.499 178.5l-67.5 -89l-32.5 -42.5c-11.333 -15 -20.5 -26.667 -27.5 -35l-24 -28c-9 -10.333 -16.5 -18.333 -22.5 -24
s-12.333 -11.167 -19 -16.5c-12 -9.33301 -23.167 -14 -33.5 -14s-21.166 4.33301 -32.499 13s-17 15.667 -17 21s0.333008 8.83301 1 10.5s1.83398 3.66699 3.50098 6l4 5.5c1 1.33301 6.16699 6.66602 15.5 15.999c54 58.667 123.333 143.334 208 254.001
c-90 162 -135 277.333 -135 346c0 18 4.66699 27 14 27c19.333 0 38.5 -4.83301 57.5 -14.5s28.5 -20.834 28.5 -33.501c0 -61.333 30 -145 90 -251c94 130 156.5 211.667 187.5 245s55.833 50 74.5 50z" />
    <glyph glyph-name="Y" unicode="Y" horiz-adv-x="575" 
d="M327 373c12 0 33.8379 28.501 65.5049 85.501l97 171.5c33 57.333 56.5 86 70.5 86s25.333 -5 34 -15s13 -22 13 -36s-12.667 -42 -38 -84l-102 -166.5c-42.667 -69 -85.334 -143.833 -128.001 -224.5s-72 -131 -88 -151s-29 -30 -39 -30c-14.667 0 -22 12 -22 36
c0 18.667 9.33301 47 28 85c6 11.333 10.667 20.833 14 28.5s8.66602 18.5 15.999 32.5l17 32.5l18.5 36l18.5 35.5c-39.333 10 -75.5 34.833 -108.5 74.5s-58.167 84 -75.5 133s-26 96.833 -26 143.5s13.333 70 40 70c10.667 0 19.167 -10.333 25.5 -31
s14.166 -50.334 23.499 -89.001s21.666 -74.167 36.999 -106.5s33.666 -59.833 54.999 -82.5s39.333 -34 54 -34z" />
    <glyph glyph-name="Z" unicode="Z" horiz-adv-x="620" 
d="M534 633c18.667 -22.667 27.999 -44.667 27.999 -66s-13.833 -49.833 -41.5 -85.5s-61.334 -71 -101.001 -106l-119.5 -102.5c-40 -33.333 -73.833 -63 -101.5 -89s-41.5 -43 -41.5 -51s2.33301 -14.333 7 -19s11 -7 19 -7c35.333 0 91.833 5.5 169.5 16.5
s127.834 16.5 150.501 16.5s34 -8 34 -24c0 -21.333 -41.667 -42.5 -125 -63.5s-167.333 -31.5 -252 -31.5c-25.333 0 -48.5 11.5 -69.5 34.5s-31.5 45.667 -31.5 68s14.5 50.333 43.5 84s64 67.834 105 102.501l122.5 103c99.333 82 149 137.333 149 166
c0 12.667 -15.167 23.167 -45.5 31.5s-62.666 12.5 -96.999 12.5s-66 -2.5 -95 -7.5s-46.833 -7.5 -53.5 -7.5c-14.667 0 -29 7.66699 -43 23s-21 29.333 -21 42c-1.33301 12 20.667 22.333 66 31c23.333 4 50.333 6 81 6c70.667 0 136 -10 196 -30
c26 -8.66699 48.333 -24.334 67 -47.001z" />
    <glyph glyph-name="bracketleft" unicode="[" horiz-adv-x="453" 
d="M426 802c82.667 0 124 -11.334 124 -34.001c0 -8.66699 -3.33301 -14.667 -10 -18s-12.667 -5.83301 -18 -7.5s-12.833 -3.16699 -22.5 -4.5s-18.834 -2.5 -27.501 -3.5s-20.334 -2.5 -35.001 -4.5c-35.333 -4.66699 -63 -9.33398 -83 -14.001
c0.666992 -2 1 -4.66699 1 -8c0 -52 -40 -200.333 -120 -445c-42.667 -133.333 -64 -207.5 -64 -222.5s8.33301 -22.5 25 -22.5s43.834 2.16699 81.501 6.5s59.5 6.5 65.5 6.5c12.667 0 19 -6 19 -18c0 -17.333 -21.167 -34.666 -63.5 -51.999s-78.666 -26 -108.999 -26
s-57 8.16699 -80 24.5s-34.5 36 -34.5 59s16.167 86.167 48.5 189.5l96.5 320c32 110 48 184.333 48 223c0 4 0.333008 6.66699 1 8v1c0.666992 16.667 14 27.834 40 33.501s65 8.5 117 8.5z" />
    <glyph glyph-name="backslash" unicode="\" horiz-adv-x="600" 
d="M521 -20c0 -9.33301 -5.83203 -21.168 -17.499 -35.501s-21.334 -21.5 -29.001 -21.5s-22.667 24.333 -45 73s-53.833 122.334 -94.5 221.001s-77.5 182.5 -110.5 251.5s-58 123.333 -75 163s-25.5 67 -25.5 82s7.5 32.5 22.5 52.5s26.5 30 34.5 30
c7.33301 0 13 -4 17 -12c2.66699 -5.33301 5 -11 7 -17c210.667 -488 316 -750.333 316 -787z" />
    <glyph glyph-name="bracketright" unicode="]" horiz-adv-x="450" 
d="M313 673l-52.0029 1.00098c-50 0 -79.667 0.333008 -89 1c-29.333 2.66699 -44 10 -44 22c0 17.333 17.167 31.166 51.5 41.499s72.833 15.5 115.5 15.5c76.667 0 115 -14.333 115 -43v-5c0 -102.667 -43.667 -337 -131 -703c-7.33301 -28 -19.666 -48 -36.999 -60
s-43.5 -18 -78.5 -18s-71.833 8.16699 -110.5 24.5s-58 34.166 -58 53.499c0 12 6.66699 18 20 18s35.333 -2 66 -6s54.834 -6 72.501 -6s27.834 7.33301 30.501 22c85.333 350 128 560.333 128 631c0 4.66699 0.333008 8.33398 1 11.001z" />
    <glyph glyph-name="asciicircum" unicode="^" horiz-adv-x="422" 
d="M376 571c0 -12 -5.33203 -17.999 -15.999 -17.999c-24.667 0 -68.667 65.333 -132 196c-28.667 -29.333 -56.334 -70.666 -83.001 -123.999c-18.667 -37.333 -30.834 -58 -36.501 -62s-12 -6 -19 -6s-14.5 3.33301 -22.5 10s-12 13.667 -12 21
c0 34 20.833 85.333 62.5 154s73.5 103 95.5 103c10 0 21.833 -2.33301 35.5 -7s23.167 -9.83398 28.5 -15.501s9.83301 -13.334 13.5 -23.001s9.33398 -25.667 17.001 -48s21 -56.5 40 -102.5s28.5 -72 28.5 -78z" />
    <glyph glyph-name="underscore" unicode="_" horiz-adv-x="608" 
d="M553 26c0 -11.333 -18 -19.335 -54 -24.002c-64 -7.33301 -121.5 -11.166 -172.5 -11.499s-100.667 -2.33301 -149 -6s-78.333 -5.5 -90 -5.5s-21.834 5.83301 -30.501 17.5s-13 23.334 -13 35.001s26.333 20.5 79 26.5s119.334 9 200.001 9s142.667 -4 186 -12
c29.333 -5.33301 44 -15 44 -29z" />
    <glyph glyph-name="grave" unicode="`" horiz-adv-x="213" 
d="M11.5 779c-1 2.66699 -1.5 7.99805 -1.5 15.998s5 18.167 15 30.5s21 18.5 33 18.5c8.66699 0 21.334 -8.66699 38.001 -26l17 -19c7.33301 -8 13.333 -14.333 18 -19c43.333 -44 66.666 -71.333 69.999 -82c1.33301 -3.33301 2 -7.83301 2 -13.5
s-2.83301 -11.5 -8.5 -17.5s-11.5 -9 -17.5 -9s-12.5 2.16699 -19.5 6.5s-16.833 11.5 -29.5 21.5s-22.667 17.667 -30 23l-24 17l-19 13l-15 10.5c-6 4.33301 -10.5 7.83301 -13.5 10.5s-6 5.83398 -9 9.50098s-5 6.83398 -6 9.50098z" />
    <glyph glyph-name="a" unicode="a" horiz-adv-x="469" 
d="M380 465.5c25.333 -30.333 38.001 -57.668 38.001 -82.001s-8.33301 -49.166 -25 -74.499c8 -10 12 -18.667 12 -26c0 -18.667 -4.16699 -50.667 -12.5 -96s-13.333 -75 -15 -89s-3.16699 -25.167 -4.5 -33.5s-3 -16.5 -5 -24.5c-2.66699 -16.667 -8.66699 -25 -18 -25
c-12 0 -21.833 10.5 -29.5 31.5s-12.167 48.167 -13.5 81.5c-59.333 -75.333 -114.333 -113 -165 -113c-30.667 0 -60.834 13.167 -90.501 39.5s-44.5 53.5 -44.5 81.5c0 40 14.667 89.5 44 148.5s67.333 111.5 114 157.5s90.667 69 132 69c30 0 57.667 -15.167 83 -45.5z
M343.001 334.998c0 62 -12.3311 93 -36.998 93c-26 0 -56.333 -18.5 -91 -55.5s-64 -78.833 -88 -125.5s-36 -83.667 -36 -111c0 -11.333 4.66699 -20.5 14 -27.5s20.333 -10.5 33 -10.5c31.333 0 66.666 21.167 105.999 63.5s66.666 93.833 81.999 154.5
c2 10 7.66699 16 17 18v1z" />
    <glyph glyph-name="b" unicode="b" horiz-adv-x="525" 
d="M74 15c-9.33301 0 -20.334 7.16797 -33.001 21.501s-19 27.833 -19 40.5s10.5 56 31.5 130s42 163.167 63 267.5s31.5 199.833 31.5 286.5c0 20 7.33301 30 22 30c10.667 0 23.667 -9.83301 39 -29.5s23 -38.834 23 -57.501c0 -82 -18 -199 -54 -351
c79.333 107.333 151.333 161 216 161c31.333 0 57.833 -15.333 79.5 -46s32.5 -67.167 32.5 -109.5s-12.167 -90.833 -36.5 -145.5s-57.166 -101.5 -98.499 -140.5s-84.666 -58.5 -129.999 -58.5s-90 23 -134 69l-1 -1c-14.667 -44.667 -25.334 -67 -32.001 -67z
M232.999 92.001c43.333 0 85.835 29.5 127.502 88.5s62.5 121.167 62.5 186.5c0 39.333 -12 59 -36 59c-38.667 0 -81.834 -27 -129.501 -81s-88.834 -118.333 -123.501 -193c31.333 -40 64.333 -60 99 -60z" />
    <glyph glyph-name="c" unicode="c" horiz-adv-x="445" 
d="M83 60.5c-34 30.333 -50.999 66.3311 -50.999 107.998s14 89.834 42 144.501s64.167 101.334 108.5 140.001s87.5 58 129.5 58c27.333 0 51.333 -12.333 72 -37s31 -46.334 31 -65.001c0 -5.33301 -1.66699 -9.83301 -5 -13.5s-8.16602 -5.5 -14.499 -5.5
s-17.5 6 -33.5 18s-30.333 18 -43 18c-36 0 -78 -31.667 -126 -95s-72 -118.666 -72 -165.999c0 -20.667 6.5 -37 19.5 -49s34 -18 63 -18s55.667 3.5 80 10.5s43.166 14 56.499 21s23.666 10.5 30.999 10.5c12.667 0 19 -6.33301 19 -19
c0 -19.333 -23.167 -41.833 -69.5 -67.5s-89 -38.5 -128 -38.5s-75.5 15.167 -109.5 45.5z" />
    <glyph glyph-name="d" unicode="d" horiz-adv-x="499" 
d="M459 791c10.667 0 23.833 -9.83496 39.5 -29.502s23.5 -38.167 23.5 -55.5s-8.33301 -66.5 -25 -147.5s-36 -164.833 -58 -251.5c-48 -194.667 -79.667 -292 -95 -292c-9.33301 0 -19.5 5.83301 -30.5 17.5s-16.5 21.834 -16.5 30.501s2.33301 26 7 52
c-65.333 -66.667 -122.333 -100 -171 -100c-29.333 0 -55.833 13.333 -79.5 40s-35.5 54.334 -35.5 83.001c0 41.333 11.167 90.5 33.5 147.5s54.5 108.833 96.5 155.5s86.667 70 134 70s80.333 -28.333 99 -85c34 141.333 52.667 253 56 335c0 20 7.33301 30 22 30z
M348.999 299.998c0 36 -6.16797 66.333 -18.501 91s-27.166 37 -44.499 37c-28.667 0 -58 -17.667 -88 -53s-53.833 -75.833 -71.5 -121.5s-26.5 -85.167 -26.5 -118.5c0 -12 4.33301 -21.667 13 -29s19 -11 31 -11c26 0 61.167 18.667 105.5 56s76.5 81.333 96.5 132l3 12
v5z" />
    <glyph glyph-name="e" unicode="e" horiz-adv-x="450" 
d="M372.5 258.5c-38.333 -22.333 -81.666 -33.5 -129.999 -33.5s-92.166 5.33301 -131.499 16c-9.33301 -29.333 -14 -55.5 -14 -78.5s7.16699 -40.833 21.5 -53.5s38 -19 71 -19s67 5.83301 102 17.5s54.167 17.5 57.5 17.5c17.333 0 26 -6.66699 26 -20
c0 -18 -20.333 -37.5 -61 -58.5s-80.334 -31.5 -119.001 -31.5c-52 0 -94.333 15.5 -127 46.5s-49 70.167 -49 117.5s12.667 96.833 38 148.5s58 95.167 98 130.5s79.667 53 119 53s75.166 -18.667 107.499 -56s48.5 -73.833 48.5 -109.5s-19.167 -64.667 -57.5 -87z
M279 432c-24.667 0 -50.332 -12.833 -76.999 -38.5s-49.334 -57.5 -68.001 -95.5c26.667 -6 57 -9 91 -9s63.667 5.5 89 16.5s38 25.5 38 43.5s-8.16699 36.333 -24.5 55s-32.5 28 -48.5 28z" />
    <glyph glyph-name="f" unicode="f" horiz-adv-x="376" 
d="M103 13c-8.66699 0 -18.0029 6.33594 -28.0029 19.0029s-15 23 -15 31s3.33301 23.667 10 47c33.333 120 56 205.667 68 257c-28.667 -6.66699 -48.334 -10 -59.001 -10s-21.334 4.66699 -32.001 14s-16 19.666 -16 30.999s15 21.333 45 30
c38.667 9.33301 65.334 15.333 80.001 18c6.66699 32 11.667 56.667 15 74c16 92 37.667 158.333 65 199s64.333 61 111 61c33.333 0 60.666 -13.167 81.999 -39.5s32 -57.333 32 -93s-9.33301 -53.5 -28 -53.5c-16 0 -29 18 -39 54c-3.33301 13.333 -9 25.666 -17 36.999
s-17.667 17 -29 17s-21.666 -5.16699 -30.999 -15.5s-17.666 -25.166 -24.999 -44.499c-19.333 -54 -32.666 -103.333 -39.999 -148l-8 -35c24.667 3.33301 49.167 5 73.5 5s42 -2.66699 53 -8s16.5 -12 16.5 -20c0 -12.667 -11 -22.334 -33 -29.001
s-65 -15.334 -129 -26.001c-47.333 -192 -79.666 -306.333 -96.999 -343c-9.33301 -19.333 -17.666 -29 -24.999 -29z" />
    <glyph glyph-name="g" unicode="g" horiz-adv-x="475" 
d="M427 285c0 -26.667 -11.6738 -57.0039 -35.0068 -91.0039c-18 -40.667 -37.333 -99.167 -58 -175.5s-38 -130.833 -52 -163.5c-28 -68 -71 -102 -129 -102c-47.333 0 -87.166 12.833 -119.499 38.5s-48.5 51.167 -48.5 76.5c0 10.667 3.16699 21.334 9.5 32.001
s13 16 20 16s14.833 -5 23.5 -15s16.834 -20.833 24.501 -32.5s19.334 -22.5 35.001 -32.5s30.834 -15 45.501 -15s25.667 2.16699 33 6.5s14.333 11.333 21 21s12.334 19.334 17.001 29.001s9.83398 23.334 15.501 41.001s10.167 32.834 13.5 45.501l14 53.5
c6 23 11 41.5 15 55.5c-52 -38.667 -94.333 -58 -127 -58s-61 13.167 -85 39.5s-36 57 -36 92s13.167 81.5 39.5 139.5s61.833 110 106.5 156s88.334 69 131.001 69c27.333 0 50.333 -10.333 69 -31c30.667 -34 46 -82.333 46 -145c0 -8 -0.333008 -13.667 -1 -17
c8 -11.333 12 -22.333 12 -33zM104.993 135.996c0 -11.333 3.66992 -20.501 11.0029 -27.501s16.666 -10.5 27.999 -10.5c33.333 0 72.666 19.833 117.999 59.5s77.333 85.834 96 138.501c-2.66699 8.66699 -5 22 -7 40s-4 32.333 -6 43s-6.33301 21.5 -13 32.5
s-15.334 16.5 -26.001 16.5c-26 0 -55.333 -18.667 -88 -56s-59.667 -79 -81 -125s-32 -83 -32 -111z" />
    <glyph glyph-name="h" unicode="h" horiz-adv-x="536" 
d="M149 752c0 26 8.00195 38.998 24.002 38.998c12.667 0 26.167 -10 40.5 -30s21.5 -39.333 21.5 -58c0 -43.333 -10.833 -117.166 -32.5 -221.499s-49.834 -208.5 -84.501 -312.5c66.667 120.667 122.5 207.834 167.5 261.501s83.5 80.5 115.5 80.5
c17.333 0 37.5 -15 60.5 -45s34.5 -60 34.5 -90s-8.33301 -75 -25 -135c-41.333 -150.667 -80.333 -226 -117 -226c-14.667 0 -22 10 -22 30s8 53.667 24 101c35.333 103.333 53 173 53 209c0 12 -3 22 -9 30s-13.333 12 -22 12s-19.334 -4.66699 -32.001 -14
s-28 -25.666 -46 -48.999c-22.667 -30 -46.167 -63.667 -70.5 -101l-44 -67.5l-26 -41.5l-27.5 -44.5c-6 -9.66699 -13.333 -20.167 -22 -31.5c-15.333 -22 -27 -33 -35 -33s-18.667 7.5 -32 22.5s-20 27.667 -20 38s3.66699 29.833 11 58.5
c33.333 128 54.333 215.667 63 263c34.667 173.333 52 291.666 52 354.999z" />
    <glyph glyph-name="i" unicode="i" horiz-adv-x="238" 
d="M175 691c10.667 12 21.5 18.001 32.5 18.001s24.167 -13.5 39.5 -40.5s23 -49.5 23 -67.5c0 -6.66699 -3 -12.667 -9 -18s-12.333 -8 -19 -8c-16 0 -33.833 9.66699 -53.5 29s-29.5 35.666 -29.5 48.999s5.33301 26 16 38zM154 511.001
c12.667 0 24.6641 -7.66797 35.9971 -23.001s17 -30.333 17 -45s-9.66699 -58.5 -29 -131.5s-43.666 -154.833 -72.999 -245.5c-11.333 -33.333 -25.666 -50 -42.999 -50c-9.33301 0 -17.333 3.83301 -24 11.5s-10 16.334 -10 26.001s2.5 25 7.5 46s12.333 49 22 84l23 85.5
c5.66699 22 11.5 46.833 17.5 74.5l14.5 67c3.66699 17 7.83398 34.167 12.501 51.5c9.33301 32.667 19 49 29 49z" />
    <glyph glyph-name="j" unicode="j" horiz-adv-x="254" 
d="M-149 -121c28.667 -36.667 52.332 -55.001 70.999 -55.001s34.334 10 47.001 30s25 51.5 37 94.5s23.333 87.167 34 132.5l41.5 180c17 74.667 33.5 141.667 49.5 201c10 32.667 19.667 49 29 49c11.333 0 23 -7.16699 35 -21.5s18 -29.833 18 -46.5
c0 -15.333 -10.333 -61.833 -31 -139.5l-55 -209.5l-47 -182c-28.667 -104.667 -80.667 -157 -156 -157c-33.333 0 -65.833 14 -97.5 42s-47.5 52 -47.5 72c0 8.66699 3.5 18.834 10.5 30.501s13.5 17.5 19.5 17.5c7.33301 0 15 -4.83301 23 -14.5zM187.998 690.999
c10.667 12 21.667 18.001 33 18.001s24.5 -13.5 39.5 -40.5s22.5 -49.5 22.5 -67.5c0 -6.66699 -3 -12.667 -9 -18s-12 -8 -18 -8c-16 0 -34 9.66699 -54 29s-30 35.666 -30 48.999s5.33301 26 16 38z" />
    <glyph glyph-name="k" unicode="k" horiz-adv-x="469" 
d="M473 457c0 -6 -29.6699 -37.332 -89.0029 -93.999c-22 -21.333 -42.167 -46.5 -60.5 -75.5s-27.5 -55.5 -27.5 -79.5s7.16699 -46.167 21.5 -66.5s30 -35.666 47 -45.999s32.667 -20.5 47 -30.5s21.5 -18.333 21.5 -25c0 -16.667 -13.167 -25 -39.5 -25
s-57.666 14.833 -93.999 44.5s-58.833 62.834 -67.5 99.501c-3.33301 6.66699 -6 13 -8 19c-45.333 -61.333 -78.166 -103.833 -98.499 -127.5s-35.5 -35.5 -45.5 -35.5s-21 7.83301 -33 23.5s-18 28.667 -18 39s10.833 53.333 32.5 129s43.334 166.5 65.001 272.5
s32.5 200.667 32.5 284c0 10.667 1.5 18 4.5 22s9.5 6 19.5 6s22.333 -9.83301 37 -29.5s22 -38.834 22 -57.501c0 -59.333 -12 -142.333 -36 -249s-52.667 -208 -86 -304c75.333 107.333 140.5 194.166 195.5 260.499s89 99.5 102 99.5s25.5 -6.33301 37.5 -19
s18 -24.334 18 -35.001z" />
    <glyph glyph-name="l" unicode="l" horiz-adv-x="245" 
d="M228 707c0 -125.333 -26.002 -288 -78.002 -488c-33.333 -136 -56.666 -204 -69.999 -204c-9.33301 0 -20.166 7.33301 -32.499 22s-18.5 26 -18.5 34s9.66699 49.333 29 124s38.666 166.5 57.999 275.5s29 207.167 29 294.5c0 9.33301 1.33301 16 4 20
s8.33398 6 17.001 6s21.167 -9.5 37.5 -28.5s24.5 -37.5 24.5 -55.5z" />
    <glyph glyph-name="m" unicode="m" horiz-adv-x="796" 
d="M678 511c20 0 37.834 -13.835 53.501 -41.502s23.5 -59 23.5 -94s-6.16699 -80.5 -18.5 -136.5s-28.833 -107.333 -49.5 -154s-41 -70 -61 -70c-14 0 -21 9.16699 -21 27.5s11.5 63.333 34.5 135s34.5 128.667 34.5 171s-6.66699 63.5 -20 63.5
c-16.667 0 -35.834 -14.667 -57.501 -44s-44.834 -64.666 -69.501 -105.999s-38 -63.5 -40 -66.5s-4.5 -7.16699 -7.5 -12.5l-10 -17c-3.66699 -6 -13 -24 -28 -54s-28.167 -53.5 -39.5 -70.5s-21.166 -25.5 -29.499 -25.5s-17.5 5.33301 -27.5 16s-15 20.667 -15 30
s6 28.666 18 57.999c34.667 86.667 52 167.334 52 242.001c0 14 -3 25.833 -9 35.5s-12.667 14.5 -20 14.5s-15 -3.16699 -23 -9.5s-18 -17.666 -30 -33.999s-22.667 -31.833 -32 -46.5l-42.5 -68.5l-43 -69l-33.5 -52l-29.5 -45.5l-23.5 -35
c-18 -24.667 -31.167 -37 -39.5 -37s-19.166 7.5 -32.499 22.5s-20 26.333 -20 34s1.33301 17.167 4 28.5s5.5 22.333 8.5 33l14 47.5l22 74c8.33301 28.333 14.666 67.333 18.999 117l9.5 109c2 23 7.66699 34.5 17 34.5c14.667 0 29.167 -7.66699 43.5 -23
s21.5 -30.666 21.5 -45.999c0 -58.667 -22 -155.334 -66 -290.001c74.667 140 121.667 223 141 249s36 47 50 63c26 28.667 52.333 43 79 43c16 0 35.167 -13.833 57.5 -41.5s33.5 -55.5 33.5 -83.5s-4 -62.667 -12 -104c78.667 152.667 150 229 214 229z" />
    <glyph glyph-name="n" unicode="n" horiz-adv-x="533" 
d="M285.5 431.5c40.333 53 73.335 79.4971 99.002 79.4971s50 -13.667 73 -41s34.5 -56.333 34.5 -87c0 -48 -11 -106.667 -33 -176c-40 -128 -76 -192 -108 -192c-14.667 0 -22 10 -22 30c0 14 7.16699 42.5 21.5 85.5s27.666 85.333 39.999 127s18.5 73 18.5 94
s-3.16699 36.5 -9.5 46.5s-12.666 15 -18.999 15s-12.833 -2 -19.5 -6s-14.167 -10.667 -22.5 -20l-23.5 -27.5c-7.33301 -9 -16.5 -21.833 -27.5 -38.5l-27.5 -42.5l-32 -50.5l-32 -50l-29 -46l-28.5 -45l-23.5 -35c-16.667 -24.667 -29.834 -37 -39.501 -37
s-20.834 7.5 -33.501 22.5s-19 28.167 -19 39.5c0 3.33301 2.33301 12.333 7 27c12.667 38.667 26.667 86.5 42 143.5s23.666 121.833 24.999 194.5c2 48.667 9 73 21 73c14.667 0 29.334 -7.66699 44.001 -23s22 -32.166 22 -50.499s-5.5 -53.666 -16.5 -105.999
s-23.833 -101.166 -38.5 -146.499c64 108.667 116.167 189.5 156.5 242.5z" />
    <glyph glyph-name="o" unicode="o" horiz-adv-x="453" 
d="M333 341c0 22.667 -3.66699 44.168 -11 64.501s-18 35.166 -32 44.499c-46 -12.667 -85.5 -48.167 -118.5 -106.5s-49.5 -113.166 -49.5 -164.499s12.667 -83.333 38 -96c48 9.33301 88.833 42.166 122.5 98.499s50.5 109.5 50.5 159.5zM161.5 460.501
c37.667 33.667 76.332 50.5 115.999 50.5s72.834 -16.833 99.501 -50.5s40 -74.667 40 -123s-11.667 -97.666 -35 -147.999s-55.5 -92 -96.5 -125s-84.5 -49.5 -130.5 -49.5c-34 0 -62.333 15.667 -85 47s-34 71.166 -34 119.499s11.5 98.5 34.5 150.5
s53.333 94.833 91 128.5z" />
    <glyph glyph-name="p" unicode="p" horiz-adv-x="478" 
d="M358 514c28.667 0 53.499 -18.3311 74.499 -54.998s31.5 -74.5 31.5 -113.5s-11.333 -78 -34 -117s-50.667 -73.833 -84 -104.5s-70.166 -56.167 -110.499 -76.5s-77.5 -30.5 -111.5 -30.5c-13.333 0 -26 1.66699 -38 5l-14 -61l-17 -73
c-4.66699 -19.333 -10 -40 -16 -62c-12 -45.333 -22.667 -68 -32 -68s-19.166 7.16699 -29.499 21.5s-15.5 27.166 -15.5 38.499s10.667 60 32 146c64 259.333 96 434 96 524c0 20 7.33301 30 22 30c12 0 26.5 -8.83301 43.5 -26.5s25.5 -37.167 25.5 -58.5
c0 -10.667 -1.33301 -22.334 -4 -35.001c59.333 77.333 119.666 116 180.999 116zM113.999 95.002c35.333 0 73.5 12 114.5 36s76 55.833 105 95.5s43.5 79.167 43.5 118.5c0 55.333 -13 83 -39 83s-61.167 -22.333 -105.5 -67s-79.5 -102.667 -105.5 -174l-23 -92h10z" />
    <glyph glyph-name="q" unicode="q" horiz-adv-x="474" 
d="M396 -78c6.66699 0 12.9971 -2.82812 18.9971 -8.49512s9 -11.834 9 -18.501c0 -10.667 -13.167 -23.834 -39.5 -39.501s-51.166 -31.834 -74.499 -48.501l-55 -38.5c-13.333 -9 -24 -13.5 -32 -13.5s-16.333 7.16699 -25 21.5s-13 25.5 -13 33.5s0.5 14.5 1.5 19.5
s2.83301 11.833 5.5 20.5s5.66699 17.5 9 26.5l13.5 37.5l16.5 45.5l21.5 58.5l25.5 69c-22.667 -22 -47.334 -39.5 -74.001 -52.5s-51.667 -19.5 -75 -19.5s-48 14 -74 42s-39 56.5 -39 85.5s9.16699 64.667 27.5 107s41.166 82.833 68.499 121.5s59.5 71.667 96.5 99
s70.667 41 101 41s57.833 -12.333 82.5 -37s37 -45.5 37 -62.5s-5.66699 -25.5 -17 -25.5c-8 0 -20.833 7.5 -38.5 22.5s-33.167 22.5 -46.5 22.5c-29.333 0 -62.833 -18.833 -100.5 -56.5s-69.167 -79.834 -94.5 -126.501s-38 -84 -38 -112
c0 -10.667 3.66699 -19.667 11 -27s16.333 -11 27 -11c36.667 0 78.334 20.667 125.001 62s78.334 94.333 95.001 159c2.66699 10 9.33398 15 20.001 15s23.167 -5.16699 37.5 -15.5s21.5 -20.333 21.5 -30s-5.66699 -30.334 -17 -62.001l-58.5 -156.5l-72.5 -197
c48.667 32.667 86.334 49 113.001 49z" />
    <glyph glyph-name="r" unicode="r" horiz-adv-x="331" 
d="M91 389l-3.00293 74.998c0 31.333 7.33301 47 22 47c12.667 0 24.834 -8.16699 36.501 -24.5s17.5 -35.666 17.5 -57.999s-0.666992 -39.166 -2 -50.499c58 88 113 132 165 132c32.667 0 49 -8 49 -24c0 -8 -3.66699 -15.333 -11 -22s-19 -14.334 -35 -23.001
c-35.333 -15.333 -65.166 -38.833 -89.499 -70.5s-44.166 -67.5 -59.499 -107.5s-27.5 -73.667 -36.5 -101s-15.833 -48.666 -20.5 -63.999s-10 -30.333 -16 -45c-10.667 -26.667 -23 -40 -37 -40c-11.333 0 -20.5 6.5 -27.5 19.5s-10.5 25.667 -10.5 38
s5.66699 36.833 17 73.5c27.333 84 41 165.667 41 245z" />
    <glyph glyph-name="s" unicode="s" horiz-adv-x="426" 
d="M317 511c22.667 0 43.9971 -12.498 63.9971 -37.498s30 -46.833 30 -65.5c0 -11.333 -5.33301 -17 -16 -17c-7.33301 0 -18.666 5.83301 -33.999 17.5s-31 17.5 -47 17.5s-41.167 -9.33301 -75.5 -28s-51.5 -38.334 -51.5 -59.001c0 -15.333 30.667 -41.666 92 -78.999
c23.333 -14.667 44.5 -33.5 63.5 -56.5s28.5 -47.667 28.5 -74s-18.167 -52 -54.5 -77s-78.666 -37.5 -126.999 -37.5s-91 11.667 -128 35s-55.5 45.333 -55.5 66c0 8.66699 2.16699 15.5 6.5 20.5s9.83301 7.5 16.5 7.5s16 -4.33301 28 -13c36 -26 73.5 -39 112.5 -39
s67.167 4.5 84.5 13.5s26 21 26 36s-9.66699 31 -29 48s-40.5 32.167 -63.5 45.5s-44.167 29.666 -63.5 48.999s-29 39 -29 59c0 35.333 27.833 72.166 83.5 110.499s101.834 57.5 138.501 57.5z" />
    <glyph glyph-name="t" unicode="t" horiz-adv-x="387" 
d="M143 115c0 -12.667 7.33301 -19 22 -19c25.333 0 56.166 7.16699 92.499 21.5s56.5 21.5 60.5 21.5c12 0 18 -6.33301 18 -19c0 -19.333 -19.833 -41.666 -59.5 -66.999s-75.667 -38 -108 -38s-59.166 8.83301 -80.499 26.5s-32 35.834 -32 54.501s4 42.5 12 71.5
s19.5 67.333 34.5 115s26.833 87.167 35.5 118.5c-31.333 -7.33301 -52.333 -11 -63 -11s-21.167 5.5 -31.5 16.5s-15.5 21.5 -15.5 31.5c0 16 43.333 31.333 130 46c12 55.333 18 104.333 18 147c0 20 6.66699 30 20 30c11.333 0 25.333 -7.16699 42 -21.5
s25 -30.5 25 -48.5s-5.66699 -49.667 -17 -95c38 3.33301 68.333 5 91 5c40 0 60 -8.66699 60 -26c0 -10 -10.833 -18.333 -32.5 -25s-67.167 -17 -136.5 -31c-14 -52.667 -31.667 -112.834 -53 -180.501s-32 -108.834 -32 -123.501z" />
    <glyph glyph-name="u" unicode="u" horiz-adv-x="481" 
d="M393 505c2.66699 4 8.49902 6 17.499 6s20 -8.66699 33 -26s19.5 -34 19.5 -50c0 -8.66699 -14.667 -60 -44 -154l-68 -224c-8 -28 -19.333 -42 -34 -42c-8.66699 0 -16 3.66699 -22 11s-9 20.666 -9 39.999s7.66699 54.333 23 105
c-28 -45.333 -58.333 -82.666 -91 -111.999s-62.5 -44 -89.5 -44s-52.5 12.667 -76.5 38s-36 51.333 -36 78c0 63.333 18.5 142.5 55.5 237.5s67.833 142.5 92.5 142.5c12 0 22.5 -5.5 31.5 -16.5s13.5 -23.5 13.5 -37.5c0 -6 -9 -27.5 -27 -64.5s-36 -80.333 -54 -130
s-27 -93.167 -27 -130.5c0 -10.667 3.33301 -19.5 10 -26.5s14.667 -10.5 24 -10.5c25.333 0 55.5 22.333 90.5 67s66.833 96.667 95.5 156s50 114.333 64 165c2.66699 10.667 5.33398 18 8.00098 22z" />
    <glyph glyph-name="v" unicode="v" horiz-adv-x="422" 
d="M376 511c11.333 0 22.332 -4.16602 32.999 -12.499s16 -17.5 16 -27.5c0 -18 -24.167 -80.333 -72.5 -187s-82.666 -178.5 -102.999 -215.5s-38.166 -55.5 -53.499 -55.5c-8.66699 0 -19.334 6.33301 -32.001 19s-22 26.334 -28 41.001c-18 42 -37.333 109.667 -58 203
s-31 161.666 -31 204.999c0 20 6 30 18 30c14.667 0 29.667 -6.16699 45 -18.5s26 -27.833 32 -46.5c2 -10.667 4.66699 -37.334 8 -80.001c9.33301 -105.333 25.333 -186.333 48 -243c18 38.667 41 93.5 69 164.5s50.833 126 68.5 165s31.167 58.5 40.5 58.5z" />
    <glyph glyph-name="w" unicode="w" horiz-adv-x="673" 
d="M433 405l-7.00586 -188.002c0 -52 2.33301 -89.667 7 -113c28.667 30 53.5 65.167 74.5 105.5s36.667 77.833 47 112.5s19.333 67.167 27 97.5s14.834 54.5 21.501 72.5s14.334 27 23.001 27c12.667 0 24 -5.16699 34 -15.5s15 -22.166 15 -35.499
c0 -34 -15.333 -90 -46 -168c-26 -72 -60 -137.833 -102 -197.5s-74.667 -89.5 -98 -89.5s-40.833 13 -52.5 39s-18.167 75.833 -19.5 149.5s-0.333008 137.5 3 191.5c-46 -125.333 -86.667 -220 -122 -284s-63.333 -96 -84 -96c-9.33301 0 -19.166 4.33301 -29.499 13
s-18.5 20 -24.5 34c-14.667 35.333 -27.167 102.833 -37.5 202.5s-15.5 170.834 -15.5 213.501c0 27.333 8.33301 41 25 41c14.667 0 28.167 -8.33301 40.5 -25s19.5 -33.167 21.5 -49.5s3.83301 -61.666 5.5 -135.999s7.83398 -140.5 18.501 -198.5
c27.333 47.333 54.833 106.666 82.5 177.999s50.334 127.333 68.001 168s33.834 61 48.501 61c22 0 40.167 -10.167 54.5 -30.5s21.5 -46.833 21.5 -79.5z" />
    <glyph glyph-name="x" unicode="x" horiz-adv-x="427" 
d="M327.5 467c26.333 29.333 45.8359 43.998 58.5029 43.998s25.167 -5.33301 37.5 -16s18.5 -19.834 18.5 -27.501s-2.33301 -14 -7 -19s-12.167 -11.833 -22.5 -20.5s-20 -17.834 -29 -27.501s-20.5 -23 -34.5 -40l-50.5 -63l-48.5 -60.5c4 -6 10.167 -16 18.5 -30l21 -35
l22 -35.5l22.5 -35c6 -9 11.667 -18.167 17 -27.5c10.667 -17.333 16 -29.333 16 -36s-2.33301 -12.167 -7 -16.5s-10.334 -6.5 -17.001 -6.5c-30 0 -78 53.667 -144 161c-87.333 -107.333 -140.333 -161 -159 -161c-10.667 0 -21.667 5.5 -33 16.5s-17 21.167 -17 30.5
c0 3.33301 7.33301 12.333 22 27c64.667 64.667 113 117.334 145 158.001c-30.667 54.667 -56.667 105.334 -78 152.001s-32 74.834 -32 84.501s0.333008 15.834 1 18.501c1.33301 6 8.66602 9 21.999 9s29.666 -4 48.999 -12s29 -17.667 29 -29c0 -28 19.667 -80 59 -156
c54 72.667 94.167 123.667 120.5 153z" />
    <glyph glyph-name="y" unicode="y" horiz-adv-x="469" 
d="M456.5 487.5c12.333 -15.667 18.5 -33.1689 18.5 -52.502c0 -13.333 -13.667 -58.666 -41 -135.999l-55.5 -157.5l-39 -110l-47.5 -133.5c-33.333 -95.333 -83.333 -143 -150 -143c-38 0 -74.333 11.5 -109 34.5s-52 46.833 -52 71.5
c0 9.33301 4.16699 19.666 12.5 30.999s15.5 17 21.5 17s15.667 -7.33301 29 -22c38.667 -44 71.667 -66 99 -66c20.667 0 39.334 18.167 56.001 54.5s32.5 77.333 47.5 123s23.333 70.834 25 75.501s3.66699 10.667 6 18l6.5 20c-47.333 -64.667 -94 -97 -140 -97
c-28 0 -53.833 13 -77.5 39s-35.5 56.667 -35.5 92s8.66699 83 26 143s37.666 112 60.999 156s42.333 66 57 66c12 0 23.167 -5.5 33.5 -16.5s15.5 -22.167 15.5 -33.5s-8.66699 -35 -26 -71c-54 -110.667 -81 -196.667 -81 -258c0 -10.667 3.33301 -19.5 10 -26.5
s14.667 -10.5 24 -10.5c24 0 52.667 21.333 86 64s64 93.334 92 152.001c23.333 49.333 47.666 112.333 72.999 189c2.66699 7.33301 9.33398 11 20.001 11s22.167 -7.83301 34.5 -23.5z" />
    <glyph glyph-name="z" unicode="z" horiz-adv-x="440" 
d="M98 500.5c29.333 7 69.501 10.5 120.501 10.5s92.833 -6.66699 125.5 -20c14.667 -6 28.167 -18.167 40.5 -36.5s18.5 -33.5 18.5 -45.5c0 -25.333 -15.5 -54.333 -46.5 -87s-64.833 -61.667 -101.5 -87l-101.5 -73c-31 -23.333 -46.5 -39 -46.5 -47
c0 -11.333 8.66699 -17 26 -17c38 0 84.667 2.66699 140 8s88.333 8 99 8c26 0 39 -7.66699 39 -23c0 -21.333 -33.333 -39.333 -100 -54s-131 -22 -193 -22c-28.667 0 -55 10.833 -79 32.5s-36 41.5 -36 59.5s16.833 42.167 50.5 72.5s70.5 59.166 110.5 86.499
c107.333 74.667 161 121.334 161 140.001c0 12.667 -34 19 -102 19c-16.667 0 -37.334 -1.83301 -62.001 -5.5s-42.5 -5.5 -53.5 -5.5s-22.667 7 -35 21s-18.5 26 -18.5 36c0 12.667 14.667 22.5 44 29.5z" />
    <glyph glyph-name="braceleft" unicode="{" horiz-adv-x="421" 
d="M183 338l-5.00391 -0.000976562c3.33301 -12 5 -26.5 5 -43.5s-9 -48.833 -27 -95.5s-27 -87.334 -27 -122.001s9.5 -59 28.5 -73s43.833 -21 74.5 -21s50.334 -2 59.001 -6s13 -11.833 13 -23.5s-9.66699 -22.667 -29 -33s-41 -15.5 -65 -15.5
c-47.333 0 -87.333 16.667 -120 50s-49 70.833 -49 112.5s11.167 88.5 33.5 140.5s33.5 94.333 33.5 127c0 8 -5 20 -15 36c-18.667 15.333 -28 32 -28 50c0 5.33301 1.16699 10.5 3.5 15.5s5.83301 7.5 10.5 7.5s16.834 -6 36.501 -18s37 -18 52 -18
s27.667 4.83301 38 14.5s15.5 21.834 15.5 36.501s-7.83301 46 -23.5 94s-23.5 95 -23.5 141s18.167 85.5 54.5 118.5s76.833 49.5 121.5 49.5s79.834 -12.5 105.501 -37.5s38.5 -54.833 38.5 -89.5c0 -16 -5.16699 -32.667 -15.5 -50s-20.833 -26 -31.5 -26
c-9.33301 0 -14 13.833 -14 41.5s-4.16699 47.834 -12.5 60.501s-26.666 19 -54.999 19s-53.833 -10.667 -76.5 -32s-33.834 -52 -33.501 -92s7.83301 -82 22.5 -126s22 -73.667 22 -89c0 -26.667 -10.667 -50.5 -32 -71.5s-49.666 -31.5 -84.999 -31.5z" />
    <glyph glyph-name="bar" unicode="|" horiz-adv-x="368" 
d="M87.5 -112.5c-13.667 15 -20.499 28.666 -20.499 40.999s28.833 151 86.5 416s86.5 416.167 86.5 453.5c0 10.667 1.5 18.334 4.5 23.001s9.5 7 19.5 7s23 -9.83301 39 -29.5s24 -40.167 24 -61.5s-27 -146 -81 -374c-4 -16.667 -16.667 -73.667 -38 -171
c-47.333 -218 -75.833 -327 -85.5 -327s-21.334 7.5 -35.001 22.5z" />
    <glyph glyph-name="braceright" unicode="}" horiz-adv-x="538" 
d="M457 356c0 -18 -12.665 -32.334 -37.998 -43.001c-34.667 -19.333 -55.334 -76.333 -62.001 -171c-2.66699 -36.667 -6.83398 -73 -12.501 -109s-18.834 -65.833 -39.501 -89.5s-49.5 -35.5 -86.5 -35.5s-69.833 9.66699 -98.5 29s-43 38.333 -43 57s5.33301 28 16 28
s19.667 -3.66699 27 -11c22.667 -22.667 52 -34 88 -34c22.667 0 39.5 13.333 50.5 40s17.167 57.5 18.5 92.5s5.66602 73.333 12.999 115s19 73.5 35 95.5c-21.333 10 -38.666 24 -51.999 42s-20 37.833 -20 59.5s9.16699 45.334 27.5 71.001s38.333 49 60 70
s41.667 44.833 60 71.5s27.5 51.5 27.5 74.5s-8.66699 42.167 -26 57.5s-36.166 23 -56.499 23s-37.166 -4.33301 -50.499 -13s-23.833 -18 -31.5 -28s-15.334 -19.333 -23.001 -28s-15 -13 -22 -13s-16.167 6.16699 -27.5 18.5s-17 22.5 -17 30.5
c0 22.667 18.833 46 56.5 70s76.5 36 116.5 36s78.5 -16 115.5 -48s55.5 -64 55.5 -96s-9.5 -63.167 -28.5 -93.5s-40.167 -55.833 -63.5 -76.5c-60.667 -56 -91 -96.667 -91 -122c0 -30 18.667 -47.333 56 -52c5.33301 -0.666992 11.333 -1.33398 18 -2.00098
c32 -3.33301 48 -8.66602 48 -15.999z" />
    <glyph glyph-name="asciitilde" unicode="~" horiz-adv-x="594" 
d="M80 273c0 32 17.834 66.167 53.501 102.5s70.834 54.5 105.501 54.5c18 0 34.833 -5.66699 50.5 -17s28 -24 37 -38s20 -27.167 33 -39.5s26.167 -19.5 39.5 -21.5c13.333 2 25.666 8.33301 36.999 19s20 21.667 26 33c15.333 30.667 31.666 46 48.999 46
s26 -11.667 26 -35c0 -32 -14.167 -64.167 -42.5 -96.5s-59.166 -48.5 -92.499 -48.5c-49.333 0 -100.666 42.667 -153.999 128c-18.667 -8 -35.334 -19.167 -50.001 -33.5s-25.334 -27.5 -32.001 -39.5c-18 -30.667 -35 -46 -51 -46c-23.333 0 -35 10.667 -35 32z" />
    <glyph glyph-name="uni00A0" unicode="&#xa0;" horiz-adv-x="401" 
 />
    <glyph glyph-name="exclamdown" unicode="&#xa1;" horiz-adv-x="354" 
d="M296.5 470.5c-11 -13.667 -22.334 -20.5 -34.001 -20.5s-25.5 16 -41.5 48s-24 56.333 -24 73c0 4.66699 3.33301 10 10 16s13.334 9 20.001 9c16 0 34.333 -10.333 55 -31s31 -38.167 31 -52.5s-5.5 -28.333 -16.5 -42zM166.999 -217
c-12.667 0 -29.833 7.99902 -51.5 23.999s-32.5 28.667 -32.5 38c0 57.333 14.333 157.166 43 299.499s52 213.5 70 213.5c10.667 0 20.5 -5.33301 29.5 -16s13.667 -20 14 -28s-4 -34.167 -13 -78.5s-18.333 -106.166 -28 -185.499s-14.5 -159.666 -14.5 -240.999
c0 -17.333 -5.66699 -26 -17 -26z" />
    <glyph glyph-name="cent" unicode="&#xa2;" horiz-adv-x="482" 
d="M391 601c4.66699 -8 6.99902 -16.6641 6.99902 -25.9971s-6 -32 -18 -68c20 -10.667 37 -25.834 51 -45.501s21 -36.334 21 -50.001s-5.33301 -20.5 -16 -20.5c-8.66699 0 -22.167 6.5 -40.5 19.5s-30.5 20.833 -36.5 23.5l-46 -170l-41 -153
c28.667 3.33301 55.834 10.166 81.501 20.499s42.167 15.5 49.5 15.5c12.667 0 19 -6.33301 19 -19c0 -16 -19 -34.833 -57 -56.5s-76.667 -35.834 -116 -42.501c-20.667 -66.667 -35.334 -100 -44.001 -100c-6 0 -12.167 3.33301 -18.5 10s-9.5 13.334 -9.5 20.001
s4.33301 30 13 70c-36 6.66699 -68.667 24.5 -98 53.5s-44 59.833 -44 92.5c0 68 30 141 90 219s120.667 120 182 126c22 62 39 93 51 93c8.66699 0 15.334 -4 20.001 -12zM136.999 177.003c0 -18.667 6.50098 -34.332 19.501 -46.999s30.167 -20 51.5 -22
c24.667 111.333 52 216.666 82 315.999c-36.667 -21.333 -71.334 -58.333 -104.001 -111s-49 -98 -49 -136z" />
    <glyph glyph-name="sterling" unicode="&#xa3;" horiz-adv-x="657" 
d="M569 510l4.99902 39.002c0 30 -13.667 45 -41 45c-18.667 0 -36.5 -13.167 -53.5 -39.5s-38.5 -78.166 -64.5 -155.499h8c63.333 0 104.166 -1.16699 122.499 -3.5s27.5 -7.83301 27.5 -16.5c0 -26 -60 -43.333 -180 -52c-24 -75.333 -46 -135.333 -66 -180
c39.333 -40.667 73.333 -61 102 -61c18.667 0 36.5 4.5 53.5 13.5s30.5 19.167 40.5 30.5c26.667 28.667 46 43 58 43s21.667 -4.33301 29 -13s11 -19.334 11 -32.001c0 -23.333 -21.333 -49.166 -64 -77.499s-81.334 -42.5 -116.001 -42.5c-49.333 0 -100 24 -152 72
c-31.333 -43.333 -69 -65 -113 -65c-24.667 0 -52.5 15.667 -83.5 47s-46.5 61.666 -46.5 90.999s10.333 53.833 31 73.5s47.334 29.5 80.001 29.5s67.334 -14.667 104.001 -44c14.667 40 27 77.333 37 112c-71.333 0 -107 8.66699 -107 26c0 12 4.33301 24.5 13 37.5
s17 19.5 25 19.5c26 0 56.667 -1.66699 92 -5c32 107.333 64.333 181.166 97 221.499s73 60.5 121 60.5c30.667 0 56.334 -12.333 77.001 -37s31 -53 31 -85c0 -14.667 -8 -29.834 -24 -45.501s-29 -23.5 -39 -23.5s-15 5.66699 -15 17zM180.999 86.002
c14 0 30.333 18 49 54c-28.667 28.667 -50.667 43 -66 43c-25.333 0 -38 -11.667 -38 -35c0 -11.333 6.33301 -24.5 19 -39.5s24.667 -22.5 36 -22.5z" />
    <glyph glyph-name="currency" unicode="&#xa4;" horiz-adv-x="600" 
d="M519 465l-33.499 -32.502l-23.5 -22.5c14.667 -24 22 -51.667 22 -83c0 -58.667 -20.667 -108.667 -62 -150c32.667 -51.333 49 -80.666 49 -87.999s-2.33301 -13 -7 -17s-10.334 -6 -17.001 -6c-20 0 -48 23.333 -84 70c-20.667 -9.33301 -44 -14 -70 -14s-50 6 -72 18
c-44.667 -49.333 -73.167 -74 -85.5 -74s-23.833 5.33301 -34.5 16s-16 18.834 -16 24.501s2.66699 11.5 8 17.5s15.833 16.667 31.5 32s28.5 28.333 38.5 39c-16.667 26 -25 56.333 -25 91c0 47.333 16 90.333 48 129c-6.66699 12.667 -15.334 27.667 -26.001 45
c-21.333 33.333 -32 53.333 -32 60c0 14 5 21 15 21c18 0 36.167 -3.33301 54.5 -10s29.333 -15.5 33 -26.5s9.5 -23.833 17.5 -38.5c25.333 12.667 51.333 19 78 19s50.334 -5 71.001 -15c40.667 47.333 70.667 71 90 71c10 0 21 -5.5 33 -16.5s18 -20.5 18 -28.5
s-6.33301 -18.333 -19 -31zM245.001 379.498c-21.333 -28.333 -32.001 -58 -32.001 -89s8.66699 -56 26 -75s40 -28.5 68 -28.5s52.667 14.167 74 42.5s31.833 57.333 31.5 87s-8.83301 54.667 -25.5 75s-39.167 30.5 -67.5 30.5s-53.166 -14.167 -74.499 -42.5z" />
    <glyph glyph-name="yen" unicode="&#xa5;" horiz-adv-x="563" 
d="M366 374c31.333 0 61.1699 -1.66309 89.5029 -4.99609s42.5 -11.666 42.5 -24.999c0 -19.333 -63.333 -34 -190 -44c-2 -16.667 -5 -35.334 -9 -56.001c40 2 74 3 102 3c58.667 0 88 -7.33301 88 -22c0 -21.333 -69 -41 -207 -59v-2
c-4 -16.667 -7.83301 -34.334 -11.5 -53.001s-6.66699 -33.334 -9 -44.001s-4.83301 -21 -7.5 -31c-4 -17.333 -8.66699 -26 -14 -26c-10 0 -22.333 6.66699 -37 20s-22 27 -22 41s5.33301 42.333 16 85c-57.333 -5.33301 -101.333 -8 -132 -8c-8 0 -16 6.16699 -24 18.5
s-12 22.833 -12 31.5c0 16 61.667 29 185 39c2 13.333 4.33301 31.666 7 54.999c-58.667 -6 -102.334 -9 -131.001 -9c-7.33301 0 -15 5.66699 -23 17s-12 22.333 -12 33c0 16 50.333 27.667 151 35c-24.667 45.333 -49.334 96.833 -74.001 154.5s-37 97.167 -37 118.5
s6.33301 32 19 32c14.667 0 29.5 -5.5 44.5 -16.5s26.5 -25.5 34.5 -43.5c0 -0.666992 8.83301 -26.167 26.5 -76.5s37.5 -94.833 59.5 -133.5l48 61l61 76l53 62c40.667 47.333 69 71 85 71c10 0 20.167 -4 30.5 -12s15.5 -14.5 15.5 -19.5s-1.5 -10.333 -4.5 -16
s-7.66699 -12.834 -14 -21.501l-19.5 -26c-6.66699 -8.66699 -15.334 -19.167 -26.001 -31.5l-28.5 -33.5c-8.33301 -10 -19 -22.167 -32 -36.5l-31.5 -35l-32 -35.5l-29 -32h11z" />
    <glyph glyph-name="brokenbar" unicode="&#xa6;" horiz-adv-x="369" 
d="M208.5 452.5c-13.667 15 -20.5 28.833 -20.5 41.5s8.83301 57.167 26.5 133.5s26.5 133.166 26.5 170.499c0 10.667 1.5 18.334 4.5 23.001s9.33301 7 19 7s22.667 -9.83301 39 -29.5s24.5 -40.5 24.5 -62.5s-11.333 -78.5 -34 -169.5s-39.667 -136.5 -51 -136.5
c-9.33301 0 -20.833 7.5 -34.5 22.5zM88.5 -112.5c-13.667 15 -20.501 28.668 -20.501 41.001s8.66699 56.833 26 133.5s26 133.667 26 171c0 20 7.33301 30 22 30c11.333 0 25 -9.83301 41 -29.5s24 -40.334 24 -62.001s-11.167 -78.167 -33.5 -169.5
s-39.166 -137 -50.499 -137c-9.33301 0 -20.833 7.5 -34.5 22.5z" />
    <glyph glyph-name="section" unicode="&#xa7;" horiz-adv-x="464" 
d="M338 678c-22 0 -42.668 -8.50293 -62.001 -25.5029s-29 -33.5 -29 -49.5s6 -32.167 18 -48.5s26.833 -33.333 44.5 -51s35.167 -36.167 52.5 -55.5s32 -42 44 -68s18 -53.5 18 -82.5s-14.667 -58.667 -44 -89s-65.666 -51.5 -108.999 -63.5c30.667 -34 46 -70 46 -108
s-15.167 -71.5 -45.5 -100.5s-71.166 -43.5 -122.499 -43.5c-37.333 0 -71.166 12.5 -101.499 37.5s-45.5 47.5 -45.5 67.5c0 12 3.83301 25.333 11.5 40s14.834 22 21.501 22s12.167 -3.16699 16.5 -9.5s8.5 -13.166 12.5 -20.499c23.333 -39.333 50.666 -59 81.999 -59
c54 0 81 24.333 81 73c0 26.667 -20.333 58.334 -61 95.001l-52 47c-40.667 40 -61 79 -61 117s15.833 73.833 47.5 107.5s68.167 60.5 109.5 80.5c-32.667 38.667 -49 73.334 -49 104.001c0 39.333 21.333 76.5 64 111.5s84.667 52.5 126 52.5
c25.333 0 47.666 -12.333 66.999 -37s29 -53.5 29 -86.5s-9.33301 -49.5 -28 -49.5c-16.667 0 -29.834 15.333 -39.501 46s-23.5 46 -41.5 46zM301.499 233.997c23 22.667 34.5 45.499 34.5 68.499s-6.5 44.333 -19.5 64s-31.833 42.834 -56.5 69.501
c-79.333 -40 -119 -84 -119 -132c0 -12.667 4.5 -26 13.5 -40s17.667 -25 26 -33s21.833 -20.333 40.5 -37c30.667 4 57.5 17.333 80.5 40z" />
    <glyph glyph-name="dieresis" unicode="&#xa8;" horiz-adv-x="273" 
d="M206 826c10.667 0 22.832 -13.002 36.499 -39.002s20.5 -44 20.5 -54s-2.83301 -18 -8.5 -24s-11.5 -9 -17.5 -9c-14.667 0 -31 8.83301 -49 26.5s-27 32.834 -27 45.501s4.83301 24.834 14.5 36.501s19.834 17.5 30.501 17.5zM24.998 808.498
c10 11.667 20.167 17.498 30.5 17.498s22.5 -13 36.5 -39s21 -44 21 -54s-3 -18 -9 -24s-12 -9 -18 -9c-14.667 0 -31 8.83301 -49 26.5s-27 32.834 -27 45.501s5 24.834 15 36.501z" />
    <glyph glyph-name="copyright" unicode="&#xa9;" horiz-adv-x="708" 
d="M693 404c0 -98.667 -35.1689 -180.669 -105.502 -246.002s-157.166 -98 -260.499 -98c-78.667 0 -139.667 23.333 -183 70s-65 106.334 -65 179.001c0 90.667 36.833 171.834 110.5 243.501s155.834 107.5 246.501 107.5c78 0 140.333 -24.167 187 -72.5
s70 -109.5 70 -183.5zM315.998 112.998c94.667 0 169.333 26.168 224 78.501s82 126.166 82 221.499c0 56 -15.833 102.167 -47.5 138.5s-70.5 54.5 -116.5 54.5c-34.667 0 -70.167 -7.16699 -106.5 -21.5s-69.833 -34.5 -100.5 -60.5s-55.667 -59.333 -75 -100
s-29 -87 -29 -139s15.5 -93.667 46.5 -125s71.833 -47 122.5 -47zM484.497 524.999c11 -12 16.501 -23 16.501 -33s-4.33301 -15 -13 -15c-3.33301 0 -8.33301 1.16699 -15 3.5s-13 3.5 -19 3.5c-26.667 0 -59.334 -22.667 -98.001 -68s-58 -89 -58 -131
c0 -12 4.33301 -21.833 13 -29.5s19 -11.5 31 -11.5c28.667 0 58.5 6.83301 89.5 20.5s47.5 20.5 49.5 20.5c9.33301 0 14 -5.66699 14 -17c0 -14 -17.833 -31.5 -53.5 -52.5s-67.5 -31.5 -95.5 -31.5s-53.667 11 -77 33s-35 45.333 -35 70c0 50.667 24.167 106 72.5 166
s96.833 90 145.5 90c10.667 0 21.5 -6 32.5 -18z" />
    <glyph glyph-name="ordfeminine" unicode="&#xaa;" horiz-adv-x="474" 
d="M406 666c0 -8 -2.33398 -18.334 -7.00098 -31.001c0.666992 -2 1 -5.66699 1 -11s-3.16699 -23.166 -9.5 -53.499s-9.5 -64.833 -9.5 -103.5s-5.66699 -58 -17 -58c-9.33301 0 -18.166 7.33301 -26.499 22s-13.5 32.334 -15.5 53.001c-40.667 -50 -82.667 -75 -126 -75
c-26 0 -49.667 10.833 -71 32.5s-32 43.667 -32 66s5 48 15 77s23.333 57.5 40 85.5s38.167 51.833 64.5 71.5s53.5 29.5 81.5 29.5s53.667 -12.333 77 -37s35 -47.334 35 -68.001zM161.999 512.999c0 -26.667 12.499 -40 37.499 -40s52.167 17.167 81.5 51.5
s51.333 77.833 66 130.5c-2 12.667 -7.66699 24 -17 34s-20.666 15 -33.999 15c-31.333 0 -61.5 -23.167 -90.5 -69.5s-43.5 -86.833 -43.5 -121.5z" />
    <glyph glyph-name="guillemotleft" unicode="&#xab;" horiz-adv-x="657" 
d="M663 474c12.667 0 24.498 -4.33398 35.498 -13.001s16.5 -16.667 16.5 -24c0 -11.333 -18.333 -21 -55 -29c-67.333 -14 -125.666 -29.833 -174.999 -47.5s-74 -32.667 -74 -45s41.167 -34.666 123.5 -66.999s123.5 -54.166 123.5 -65.499c0 -12.667 -10.667 -19 -32 -19
c-39.333 0 -99.166 18.833 -179.499 56.5s-120.5 69.5 -120.5 95.5c0 8 4.33301 18.333 13 31s17.334 22 26.001 28c26.667 19.333 75.667 40.666 147 63.999s121.666 35 150.999 35zM351.998 496.999c12.667 0 24.333 -3.66797 35 -11.001s16 -14.666 16 -21.999
c0 -10.667 -11.667 -19.334 -35 -26.001c-58.667 -18.667 -114.5 -40.167 -167.5 -64.5s-79.5 -42.833 -79.5 -55.5c0 -11.333 20.667 -27 62 -47l124.5 -58.5c41.667 -19 62.5 -32.5 62.5 -40.5c0 -14 -13.833 -21 -41.5 -21s-83 20.5 -166 61.5s-124.5 73.5 -124.5 97.5
c0 9.33301 4 21 12 35s15.667 23.667 23 29c28 22.667 75 48.834 141 78.501s112 44.5 138 44.5z" />
    <glyph glyph-name="logicalnot" unicode="&#xac;" horiz-adv-x="496" 
d="M406 399l-298.999 -2.99805c-25.333 0 -48.166 7.83301 -68.499 23.5s-30.5 30.167 -30.5 43.5s6 20 18 20l277 -4c106 0 172 -3.33301 198 -10c16 -4.66699 28.833 -16.334 38.5 -35.001s14.5 -40 14.5 -64s-11.333 -59.833 -34 -107.5s-48.834 -90.167 -78.501 -127.5
s-53.834 -56 -72.501 -56c-12.667 0 -19 6 -19 18c0 6 9.66699 25.667 29 59c57.333 97.333 86 170.666 86 219.999c0 15.333 -19.667 23 -59 23z" />
    <glyph glyph-name="uni00AD" unicode="&#xad;" horiz-adv-x="600" 
d="M422 328c0 -10.667 -10.8311 -19.332 -32.498 -25.999s-74 -18.334 -157 -35.001s-128.333 -25 -136 -25s-16.834 5.66699 -27.501 17s-16 21.666 -16 30.999c0 14.667 37.667 28.834 113 42.501s140.666 20.5 195.999 20.5c40 0 60 -8.33301 60 -25z" />
    <glyph glyph-name="registered" unicode="&#xae;" horiz-adv-x="589" 
d="M161 647c50 48.667 103.833 73 161.5 73s102.334 -16.333 134.001 -49s47.5 -74.334 47.5 -125.001c0 -67.333 -23.833 -123.166 -71.5 -167.499s-106.834 -66.5 -177.501 -66.5c-54 0 -95.667 15.833 -125 47.5s-44 72.5 -44 122.5c0 61.333 25 116.333 75 165zM248 349
c63.333 0 113.498 17.666 150.498 52.999s55.5 85.333 55.5 150c0 38 -10.5 69.167 -31.5 93.5s-47.167 36.5 -78.5 36.5c-51.333 0 -99.166 -19.667 -143.499 -59s-66.5 -90.666 -66.5 -153.999c0 -38 10.333 -67.5 31 -88.5s48.334 -31.5 83.001 -31.5zM231.998 407.999
c-3.33301 0 -7.50195 2.66602 -12.502 7.99902s-7.5 10.5 -7.5 15.5s5.5 26.833 16.5 65.5s17.5 68.334 19.5 89.001c-8.66699 6 -13 12.667 -13 20c0 6 7.66699 11.833 23 17.5s32.333 8.5 51 8.5s34.834 -4.16699 48.501 -12.5s20.5 -20.5 20.5 -36.5s-7 -30.333 -21 -43
s-27.833 -22 -41.5 -28s-20.5 -9.33301 -20.5 -10c0 -8 13 -22.333 39 -43c5.33301 -5.33301 11 -10.333 17 -15s10.333 -8.66699 13 -12c6 -5.33301 9 -10 9 -14c0 -6.66699 -5.16699 -10 -15.5 -10s-26.166 9 -47.499 27s-37 35.333 -47 52l-1 -2
c-14.667 -51.333 -24.667 -77 -30 -77zM340.996 581.998c0 9.33301 -10 14 -30 14c-8 0 -18 -2 -30 -6c1.33301 -2.66699 2 -7.5 2 -14.5s-3.66699 -24.167 -11 -51.5c36 18 57.333 32.333 64 43c3.33301 4.66699 5 9.66699 5 15z" />
    <glyph glyph-name="macron" unicode="&#xaf;" horiz-adv-x="365" 
d="M317.5 650.5c25 -3 37.501 -9.33301 37.501 -19s-10 -16.667 -30 -21s-68 -10.833 -144 -19.5s-115 -13 -117 -13c-12.667 0 -24.834 5.66699 -36.501 17s-17.5 22 -17.5 32c0 18.667 58.333 28 175 28c63.333 0 107.5 -1.5 132.5 -4.5z" />
    <glyph glyph-name="degree" unicode="&#xb0;" horiz-adv-x="339" 
d="M261.5 520c15.667 24.667 23.5 47.5 23.5 68.5s-4 37.167 -12 48.5s-18.667 17 -32 17c-22.667 0 -42 -12.667 -58 -38s-24 -48.5 -24 -69.5s4.16699 -36.833 12.5 -47.5s19.166 -16 32.499 -16c22.667 0 41.834 12.333 57.501 37zM79 530c0 46.667 18 90.834 54 132.501
s78.333 62.5 127 62.5c32 0 57.667 -10.833 77 -32.5s29 -49.167 29 -82.5c0 -46.667 -18 -90.834 -54 -132.501s-78 -62.5 -126 -62.5c-32 0 -57.833 10.833 -77.5 32.5s-29.5 49.167 -29.5 82.5z" />
    <glyph glyph-name="plusminus" unicode="&#xb1;" horiz-adv-x="600" 
d="M543 487c40.667 0 61 -8.33203 61 -24.999c0 -26 -74 -47.333 -222 -64c-22 -112 -37.333 -175.667 -46 -191c-4 -6.66699 -8 -10.334 -12 -11.001c-10 0 -20.167 6.16699 -30.5 18.5s-15.5 23.666 -15.5 33.999s7 57.5 21 141.5c-54.667 -3.33301 -99.667 -5 -135 -5
c-14.667 0 -28.5 7.16699 -41.5 21.5s-19.5 28 -19.5 41s8.66699 19.5 26 19.5h106c19.333 0 45 0.666992 77 2c9.33301 66.667 14 119.334 14 158.001c0 17.333 6 26 18 26s27.167 -8.5 45.5 -25.5s27.5 -31.5 27.5 -43.5s-6 -48 -18 -108c88 7.33301 136 11 144 11z
M495 152.001c44 0 65.999 -6.33301 65.999 -19s-18.167 -24.167 -54.5 -34.5s-79.833 -17.833 -130.5 -22.5c-106 -10.667 -187 -16 -243 -16c-13.333 0 -25.666 6.5 -36.999 19.5s-17 25 -17 36s6.66699 16.5 20 16.5c57.333 0 134 3.33301 230 10s151.333 10 166 10z" />
    <glyph glyph-name="uni00B2" unicode="&#xb2;" horiz-adv-x="308" 
d="M216 662c-18 0 -35.333 -9.99902 -52 -29.999c-5.33301 -7.33301 -10 -11 -14 -11s-11.167 3.66699 -21.5 11s-15.5 13.666 -15.5 18.999c0 14 10.5 29 31.5 45s44.667 24 71 24s47.5 -8.66699 63.5 -26s24 -39.333 24 -66c0 -38.667 -15.833 -76.667 -47.5 -114
s-71.5 -71.333 -119.5 -102c76 12.667 120.667 19 134 19c24.667 0 37 -6.16699 37 -18.5s-25 -24.5 -75 -36.5s-88.333 -18 -115 -18c-11.333 0 -23.333 5.16699 -36 15.5s-19 20 -19 29s9.66699 21.833 29 38.5s40.333 33.667 63 51s43.667 38.5 63 63.5s29 49 29 72
s-10 34.5 -30 34.5z" />
    <glyph glyph-name="uni00B3" unicode="&#xb3;" horiz-adv-x="311" 
d="M128 533c0 13.333 21.332 30.6689 63.999 52.002c16.667 8 31.667 18.167 45 30.5s20 24.5 20 36.5c0 10.667 -6.66699 16 -20 16s-29.666 -5.66699 -48.999 -17s-31.666 -17 -36.999 -17s-12.166 4.16699 -20.499 12.5s-12.5 15.166 -12.5 20.499
c0 12 13.667 23.833 41 35.5s52.333 17.5 75 17.5s41.5 -7.66699 56.5 -23s22.5 -31.833 22.5 -49.5s-9 -35.5 -27 -53.5s-39.667 -34 -65 -48c58 -12.667 87 -35.334 87 -68.001c0 -30.667 -21.833 -57.667 -65.5 -81s-85.834 -35 -126.501 -35s-61 6.66699 -61 20
c0 6.66699 15.667 14 47 22s62.666 18.167 93.999 30.5s47 26.833 47 43.5c0 9.33301 -9.33301 16.333 -28 21s-37.667 9.16699 -57 13.5s-29.333 10.833 -30 19.5v1z" />
    <glyph glyph-name="acute" unicode="&#xb4;" horiz-adv-x="219" 
d="M17.5 666.5c-5 5.66699 -7.49902 13.002 -7.49902 22.002s4 18.833 12 29.5s20.333 24 37 40l39.5 38l22.5 22c5.33301 5.33301 11 10.666 17 15.999c11.333 9.33301 21.5 14 30.5 14s18 -6.33301 27 -19s13.5 -23.5 13.5 -32.5s-0.833008 -15.667 -2.5 -20
s-3.83398 -8 -6.50098 -11s-7.16699 -7 -13.5 -12s-12.166 -9.16699 -17.499 -12.5l-25 -15.5c-11.333 -7 -20.833 -13.167 -28.5 -18.5s-15.834 -11.333 -24.501 -18s-15 -11.334 -19 -14.001c-17.333 -11.333 -29.5 -17 -36.5 -17s-13 2.83301 -18 8.5z" />
    <glyph glyph-name="uni00B5" unicode="&#xb5;" horiz-adv-x="575" 
d="M492 511c11.333 0 23.6689 -8.66797 37.002 -26.001s20 -34 20 -50c0 -8 -16.667 -66 -50 -174s-54 -176 -62 -204s-20 -42 -36 -42c-20 0 -30 15 -30 45c0 20 7.33301 56.667 22 110c-64 -103.333 -123.667 -155 -179 -155c-18.667 0 -34.334 5.66699 -47.001 17
s-20.667 25.666 -24 42.999c-4.66699 -10 -18 -40.667 -40 -92s-39 -89 -51 -113c-22.667 -46.667 -38.334 -70 -47.001 -70c-10 0 -20 3.5 -30 10.5s-15 13.667 -15 20s5.33301 21.833 16 46.5c47.333 113.333 81.833 199.833 103.5 259.5s42.167 121.5 61.5 185.5
s34.833 111.5 46.5 142.5s21.834 46.5 30.501 46.5s19.334 -3.83301 32.001 -11.5s19 -14.5 19 -20.5c0 -13.333 -7 -39.666 -21 -78.999c-40 -117.333 -60 -206.666 -60 -267.999c0 -10.667 3.16699 -19.5 9.5 -26.5s14.166 -10.5 23.499 -10.5
c26.667 0 58.667 24.667 96 74s70.166 104 98.499 164s46.833 110 55.5 150c4 18.667 11 28 21 28z" />
    <glyph glyph-name="paragraph" unicode="&#xb6;" horiz-adv-x="521" 
d="M249 405c-31.333 -24.667 -59.333 -36.998 -84 -36.998s-46.667 10.667 -66 32s-29 43.333 -29 66c0 51.333 17.167 107 51.5 167s75.833 100.667 124.5 122c22 9.33301 53.667 17 95 23s73.5 9 96.5 9s39.333 -1.83301 49 -5.5s20.167 -14 31.5 -31s17 -33.833 17 -50.5
c-0.666992 -101.333 -30.667 -263.333 -90 -486c-36.667 -132.667 -61.667 -199 -75 -199c-8 0 -17.333 4.66699 -28 14s-16 18.166 -16 26.499s9.5 46.5 28.5 114.5s40 155 63 261s38.167 204.667 45.5 296c-22 -6.66699 -53.333 -13 -94 -19
c0.666992 -2.66699 1 -6.33398 1 -11.001c-0.666992 -102 -30.667 -263 -90 -483c-35.333 -132.667 -60.333 -199 -75 -199c-8.66699 0 -18.167 4.66699 -28.5 14s-15.5 18 -15.5 26s5 30.667 15 68c40 149.333 64.333 243.333 73 282z" />
    <glyph glyph-name="periodcentered" unicode="&#xb7;" horiz-adv-x="237" 
d="M145 246c-16.667 0 -35.666 10.667 -56.999 32s-32 39.333 -32 54s5.83301 29 17.5 43s23.667 21 36 21s26.666 -16.333 42.999 -49s24.5 -57.334 24.5 -74.001c0 -5.33301 -3.66699 -11.166 -11 -17.499s-14.333 -9.5 -21 -9.5z" />
    <glyph glyph-name="cedilla" unicode="&#xb8;" horiz-adv-x="252" 
d="M148 -56c20 0 40.6689 -6.00391 62.002 -18.0039s32 -25 32 -39c-0.666992 -29.333 -21.334 -53 -62.001 -71s-82.667 -27 -126 -27c-12.667 0 -23.167 2.33301 -31.5 7s-12.5 10.334 -12.5 17.001c0 8.66699 8.83301 14.834 26.5 18.501s39.167 8.5 64.5 14.5
s44 15.333 56 28c-4.66699 6 -20.5 11.833 -47.5 17.5s-40.5 11.834 -40.5 18.501s2.66699 16.5 8 29.5s12.166 28 20.499 45s14.5 31.5 18.5 43.5s15.167 18 33.5 18s27.5 -7.66699 27.5 -23s-10.667 -41.666 -32 -78.999h3z" />
    <glyph glyph-name="uni00B9" unicode="&#xb9;" horiz-adv-x="154" 
d="M116 705c0 12.667 4.00098 19.001 12.001 19.001s18.5 -5.5 31.5 -16.5s19.5 -19.833 19.5 -26.5c0 -23.333 -7.5 -77.833 -22.5 -163.5s-25.333 -134.5 -31 -146.5s-11.334 -18 -17.001 -18s-12.167 4.16699 -19.5 12.5s-11 15 -11 20s6.33301 45.167 19 120.5
s19 141.666 19 198.999z" />
    <glyph glyph-name="ordmasculine" unicode="&#xba;" horiz-adv-x="452" 
d="M206.5 651c-20.333 -31.333 -30.5 -65 -30.5 -101s12.667 -63.333 38 -82c36 6 65.333 23.333 88 52s34 64 34 106s-15 70.333 -45 85c-36 -8.66699 -64.167 -28.667 -84.5 -60zM292 771c34 0 60.999 -15.5 80.999 -46.5s30 -65.167 30 -102.5
c0 -50 -18.167 -97.667 -54.5 -143s-82.166 -68 -137.499 -68c-29.333 0 -53.833 14.667 -73.5 44s-29.5 62.333 -29.5 99c0 54.667 17.833 104.5 53.5 149.5s79.167 67.5 130.5 67.5z" />
    <glyph glyph-name="guillemotright" unicode="&#xbb;" horiz-adv-x="833" 
d="M415 461c0 6.66699 4.83301 14.332 14.5 22.999s18.834 13 27.501 13c33.333 -0.666992 85.333 -22.167 156 -64.5s106 -78.5 106 -108.5c0 -19.333 -7 -35.333 -21 -48c-29.333 -23.333 -79.5 -50.166 -150.5 -80.499s-118.667 -45.5 -143 -45.5
s-36.5 5.16699 -36.5 15.5s45.167 36.333 135.5 78s135.5 68.167 135.5 79.5c0 14 -20.333 33.167 -61 57.5s-82.334 42.5 -125.001 54.5c-25.333 8 -38 16.667 -38 26zM127 433.998c0 6.66699 5.66797 14.999 17.001 24.999s21.333 15 30 15
c37.333 0 91.666 -17.167 162.999 -51.5s107 -66.833 107 -97.5c0 -26 -45.333 -60.333 -136 -103s-155.667 -64 -195 -64c-18.667 0 -28 5.66699 -28 17c0 10 22.833 25.333 68.5 46l137.5 61.5c46 20.333 69 35.5 69 45.5c0 12.667 -20.833 27.5 -62.5 44.5
s-85.5 29.833 -131.5 38.5c-26 4.66699 -39 12.334 -39 23.001z" />
    <glyph glyph-name="onequarter" unicode="&#xbc;" horiz-adv-x="783" 
d="M646 326c8 0 18.666 -6.33105 31.999 -18.998s20 -24 20 -34c0 -42 -12.833 -105.5 -38.5 -190.5s-47.5 -127.5 -65.5 -127.5c-7.33301 0 -13.666 4 -18.999 12s-8 16.167 -8 24.5s1.83301 19 5.5 32l15.5 53c6.66699 22.333 12.334 42.833 17.001 61.5
c-36 -14.667 -70.333 -22 -103 -22s-58 8.16699 -76 24.5s-27 37.833 -27 64.5s12.667 62.167 38 106.5s52.166 83.166 80.499 116.499s47 50 56 50s17.833 -4.33301 26.5 -13s13 -16.667 13 -24s-11.667 -26 -35 -56c-72 -90.667 -108 -149 -108 -175
c0 -10.667 2.16699 -18.334 6.5 -23.001s12.333 -7 24 -7s24.667 2 39 6s29.833 9.33301 46.5 16s28 11 34 13c4 28 6 57.667 6 89c0 14.667 6.66699 22 20 22zM598.999 735.502c9.33301 -15 14.001 -29.5 14.001 -43.5s-12.167 -38.667 -36.5 -74s-62 -86 -113 -152
s-90.5 -118.667 -118.5 -158c-90 -130.667 -150.667 -217 -182 -259s-52 -63 -62 -63c-5.33301 0 -12 4.83301 -20 14.5s-12 18.667 -12 27s10.167 29.333 30.5 63s58.5 90.834 114.5 171.501l337 478c10 11.333 18.167 17.166 24.5 17.499s14.166 -7 23.499 -22z
M173.5 307.502c-3.66699 -7 -8.66602 -10.498 -14.999 -10.498s-14.5 4.83301 -24.5 14.5s-15 17.667 -15 24s8 56.666 24 150.999s24 179.5 24 255.5c0 13.333 5.16699 20 15.5 20s23.166 -6.5 38.499 -19.5s23 -23.5 23 -31.5c0 -41.333 -8.33301 -106 -25 -194
c-2.66699 -14 -6.5 -35.333 -11.5 -64s-8.83301 -49.834 -11.5 -63.501s-6.16699 -29 -10.5 -46s-8.33301 -29 -12 -36z" />
    <glyph glyph-name="onehalf" unicode="&#xbd;" horiz-adv-x="787" 
d="M637 70c30.667 0 46.001 -6.66797 46.001 -20.001c0 -15.333 -32 -30.5 -96 -45.5s-113 -22.5 -147 -22.5c-14 0 -28.833 6.33301 -44.5 19s-23.5 26.334 -23.5 41.001c0 7.33301 8 18.166 24 32.499s35.5 30.5 58.5 48.5s46 37.167 69 57.5s42.5 43 58.5 68
s24 49.167 24 72.5c0 32.667 -12.667 49 -38 49c-17.333 0 -35 -8.5 -53 -25.5s-28.333 -25.5 -31 -25.5c-6.66699 0 -16.167 4 -28.5 12s-18.5 15.333 -18.5 22c0 18 13.667 37.167 41 57.5s57.166 30.5 89.499 30.5s58.833 -11.167 79.5 -33.5s31 -49.5 31 -81.5
c0 -51.333 -21.667 -101.666 -65 -150.999s-97 -93 -161 -131c108 17.333 169.667 26 185 26zM559.001 757.999c7.33301 0 15.832 -7.33203 25.499 -21.999s14.5 -29.167 14.5 -43.5s-12.167 -39.333 -36.5 -75s-62 -86.334 -113 -152.001s-90.5 -118.167 -118.5 -157.5
c-90.667 -131.333 -151.667 -217.833 -183 -259.5s-51.666 -62.5 -60.999 -62.5c-5.33301 0 -12 4.83301 -20 14.5s-12 18.5 -12 26.5s7.33301 24.5 22 49.5s38 60.833 70 107.5l99 142l287 408c9.33301 14 15.5 21.5 18.5 22.5s5.5 1.5 7.5 1.5zM156 302.5
c-2.66699 -3.66699 -6.83105 -5.5 -12.498 -5.5s-13.5 4.83301 -23.5 14.5s-15 19 -15 28s4 33.5 12 73.5c24 120 36 229.667 36 329c0 13.333 5.16699 20 15.5 20s23.166 -6.5 38.499 -19.5s23 -23.5 23 -31.5c-0.666992 -48.667 -9.33398 -113.334 -26.001 -194.001
l-8 -46.5l-8 -46.5c-2 -11.333 -4.5 -24.666 -7.5 -39.999s-5.66699 -27.333 -8 -36s-5 -17.5 -8 -26.5s-5.83301 -15.333 -8.5 -19z" />
    <glyph glyph-name="threequarters" unicode="&#xbe;" horiz-adv-x="876" 
d="M757 326c8 0 18.334 -6.33008 31.001 -18.9971s19 -24 19 -34c0 -41.333 -13 -104.666 -39 -189.999s-47.667 -128 -65 -128c-7.33301 0 -13.5 4 -18.5 12s-7.5 16.167 -7.5 24.5s2 19.166 6 32.499l16 53c6.66699 22 12.334 42.333 17.001 61
c-37.333 -14.667 -71.833 -22 -103.5 -22s-56.834 8.33301 -75.501 25s-28 38.167 -28 64.5s12.667 61.666 38 105.999s52.333 83.166 81 116.499s47.5 50 56.5 50s17.833 -4.33301 26.5 -13s13 -16.667 13 -24s-12 -26 -36 -56
c-71.333 -89.333 -107 -147.666 -107 -174.999c0 -10.667 2.16699 -18.334 6.5 -23.001s12.166 -7 23.499 -7s24 1.83301 38 5.5s30 9.16699 48 16.5s29.333 11.666 34 12.999c4 28 6 57.667 6 89c0 14.667 6.66699 22 20 22zM709.501 736.003
c9.66699 -14.667 14.4971 -29.1689 14.4971 -43.502s-12 -39.166 -36 -74.499s-61.833 -86.333 -113.5 -153l-118.5 -157c-90.667 -131.333 -151.667 -217.833 -183 -259.5s-51.666 -62.5 -60.999 -62.5c-5.33301 0 -12 4.83301 -20 14.5s-12 18.5 -12 26.5
s7.33301 24.5 22 49.5s38 60.833 70 107.5l99 142l240 340.5l52.5 75.5l4.5 6.5c0.666992 1 1.83398 2.33301 3.50098 4s3.16699 2.83398 4.5 3.50098c1.33301 1.33301 4.83301 2 10.5 2s13.334 -7.33301 23.001 -22zM178.998 551.001l-0.00195312 2.99609
c0 13.333 27.667 34.666 83 63.999c20 11.333 38.667 25 56 41s26 31.667 26 47s-8.66699 23 -26 23s-38.666 -7.16699 -63.999 -21.5s-41.166 -21.5 -47.499 -21.5s-14.5 4.83301 -24.5 14.5s-15 17.834 -15 24.501c0 14.667 17.333 29.5 52 44.5s66 22.5 94 22.5
s51.667 -9.66699 71 -29s29 -39.833 29 -61.5s-12 -44.667 -36 -69s-52.333 -45.5 -85 -63.5c34.667 -6 62.5 -16.5 83.5 -31.5s31.5 -33.167 31.5 -54.5c0 -38 -27.833 -71.833 -83.5 -101.5s-109.167 -44.5 -160.5 -44.5s-77 8.33301 -77 25c0 8 40.333 21.333 121 40
c30 7.33301 57.667 18.333 83 33s38 31.334 38 50.001c0 12.667 -12.333 21.834 -37 27.501s-49.5 10.834 -74.5 15.501s-37.5 12.334 -37.5 23.001z" />
    <glyph glyph-name="questiondown" unicode="&#xbf;" horiz-adv-x="380" 
d="M276 596c16 0 34.332 -10.333 54.999 -31s31 -38.167 31 -52.5s-5.5 -28.333 -16.5 -42s-22.333 -20.5 -34 -20.5s-25.5 16 -41.5 48s-24 56.333 -24 73c0 4.66699 3.33301 10 10 16s13.334 9 20.001 9zM239.999 -41l-2 26.001c0 8 4 13.833 12 17.5s15.333 5.5 22 5.5
s16.334 -7.66699 29.001 -23s19 -28.333 19 -39c0 -36.667 -16.333 -69.334 -49 -98.001s-70.834 -43 -114.501 -43s-80.5 13.667 -110.5 41s-45 64.333 -45 111c0 27.333 9 56 27 86s38.667 56.333 62 79c64 62 105 113.5 123 154.5s29.667 64.167 35 69.5s10.333 8 15 8
c17.333 0 26 -21.333 26 -64s-23.667 -88.667 -71 -138l-59.5 -63c-19.667 -20.667 -36.334 -42.167 -50.001 -64.5s-20.5 -43.5 -20.5 -63.5s7.16699 -36.5 21.5 -49.5s31.833 -19.5 52.5 -19.5s38.834 6.33301 54.501 19s23.5 28.667 23.5 48z" />
    <glyph glyph-name="Agrave" unicode="&#xc0;" horiz-adv-x="608" 
d="M564 363c0 -12.667 -29.332 -27.335 -87.999 -44.002c5.33301 -69.333 8 -128.333 8 -177c0 -84 -11 -126 -33 -126c-12 0 -21.167 7 -27.5 21s-11.166 38.333 -14.499 73c-10 119.333 -15.333 182 -16 188c-97.333 -25.333 -161.666 -42.666 -192.999 -51.999
c-58.667 -153.333 -93.5 -230 -104.5 -230s-22.667 6.5 -35 19.5s-18.5 26.833 -18.5 41.5c0 4.66699 19.333 52.334 58 143.001c-2 -0.666992 -7 -1 -15 -1s-17.167 4.33301 -27.5 13s-15.5 19.5 -15.5 32.5s33 30.167 99 51.5c10.667 24 21.5 50.833 32.5 80.5
s30.667 78.167 59 145.5s45.666 109 51.999 125s18.666 30.5 36.999 43.5s36.166 19.5 53.499 19.5c20.667 0 39.167 -33 55.5 -99s29.5 -147.667 39.5 -245c18.667 2 34.667 3 48 3c30.667 0 46 -8.66699 46 -26zM236.001 341.999c50 13.333 100 24 150 32
c-12 114 -23.667 199.333 -35 256c-34 -78.667 -72.333 -174.667 -115 -288zM248.001 904.499c-1.33301 3 -2.00098 8.49902 -2.00098 16.499s5 18.167 15 30.5s21 18.5 33 18.5c10 0 22.667 -9 38 -27c12 -14 31.333 -34.833 58 -62.5s41.5 -44.667 44.5 -51
s4.5 -12.666 4.5 -18.999s-2.66699 -12.333 -8 -18s-11.166 -8.5 -17.499 -8.5s-12.833 2.16699 -19.5 6.5s-16.5 11.5 -29.5 21.5s-23.333 17.5 -31 22.5l-23.5 16l-18.5 13l-15.5 11c-6 4.33301 -10.5 8 -13.5 11s-5.83301 6.16699 -8.5 9.5s-4.66699 6.5 -6 9.5z" />
    <glyph glyph-name="Aacute" unicode="&#xc1;" horiz-adv-x="608" 
d="M564 363c0 -12.667 -29.332 -27.335 -87.999 -44.002c5.33301 -69.333 8 -128.333 8 -177c0 -84 -11 -126 -33 -126c-12 0 -21.167 7 -27.5 21s-11.166 38.333 -14.499 73c-10 119.333 -15.333 182 -16 188c-97.333 -25.333 -161.666 -42.666 -192.999 -51.999
c-58.667 -153.333 -93.5 -230 -104.5 -230s-22.667 6.5 -35 19.5s-18.5 26.833 -18.5 41.5c0 4.66699 19.333 52.334 58 143.001c-2 -0.666992 -7 -1 -15 -1s-17.167 4.33301 -27.5 13s-15.5 19.5 -15.5 32.5s33 30.167 99 51.5c10.667 24 21.5 50.833 32.5 80.5
s30.667 78.167 59 145.5s45.666 109 51.999 125s18.666 30.5 36.999 43.5s36.166 19.5 53.499 19.5c20.667 0 39.167 -33 55.5 -99s29.5 -147.667 39.5 -245c18.667 2 34.667 3 48 3c30.667 0 46 -8.66699 46 -26zM236.001 341.999c50 13.333 100 24 150 32
c-12 114 -23.667 199.333 -35 256c-34 -78.667 -72.333 -174.667 -115 -288zM390.001 785.499c-3.33301 -1 -7.66992 -1.49902 -13.0029 -1.49902s-10.5 2.66699 -15.5 8s-7.5 12.5 -7.5 21.5s4.16699 18.667 12.5 29s24.833 28.166 49.5 53.499c20 18 34.333 31.667 43 41
s16.334 16.333 23.001 21c12 10 22.333 15 31 15s17.334 -6.16699 26.001 -18.5s13 -23.333 13 -33s-0.833008 -16.834 -2.5 -21.501s-5.66699 -9.66699 -12 -15s-12.166 -9.66602 -17.499 -12.999l-90.5 -62c-13 -9.33301 -22 -15.5 -27 -18.5s-9.16699 -5 -12.5 -6z" />
    <glyph glyph-name="Acircumflex" unicode="&#xc2;" horiz-adv-x="608" 
d="M564 363c0 -12.667 -29.332 -27.335 -87.999 -44.002c5.33301 -69.333 8 -128.333 8 -177c0 -84 -11 -126 -33 -126c-12 0 -21.167 7 -27.5 21s-11.166 38.333 -14.499 73c-10 119.333 -15.333 182 -16 188c-97.333 -25.333 -161.666 -42.666 -192.999 -51.999
c-58.667 -153.333 -93.5 -230 -104.5 -230s-22.667 6.5 -35 19.5s-18.5 26.833 -18.5 41.5c0 4.66699 19.333 52.334 58 143.001c-2 -0.666992 -7 -1 -15 -1s-17.167 4.33301 -27.5 13s-15.5 19.5 -15.5 32.5s33 30.167 99 51.5c10.667 24 21.5 50.833 32.5 80.5
s30.667 78.167 59 145.5s45.666 109 51.999 125s18.666 30.5 36.999 43.5s36.166 19.5 53.499 19.5c20.667 0 39.167 -33 55.5 -99s29.5 -147.667 39.5 -245c18.667 2 34.667 3 48 3c30.667 0 46 -8.66699 46 -26zM236.001 341.999c50 13.333 100 24 150 32
c-12 114 -23.667 199.333 -35 256c-34 -78.667 -72.333 -174.667 -115 -288zM284.001 807.999c-13.333 -9.33301 -24.501 -14.001 -33.501 -14.001s-16.667 3 -23 9s-9.5 15 -9.5 27s5.33301 23.833 16 35.5s24.167 22.167 40.5 31.5s29.833 17.333 40.5 24l26 16l21 12
c16 8 27.167 12 33.5 12s12.333 -1.66699 18 -5s10.167 -7 13.5 -11l23.5 -29.5c10.333 -13 20.333 -24.833 30 -35.5s16.5 -18.5 20.5 -23.5l15 -18.5c10.667 -14 16 -25 16 -33c0 -16 -8.33301 -24 -25 -24c-10.667 0 -23.667 6.33301 -39 19s-27.333 24.334 -36 35.001
l-39 49c-18.667 -9.33301 -38.167 -22 -58.5 -38s-37.166 -28.667 -50.499 -38z" />
    <glyph glyph-name="Atilde" unicode="&#xc3;" horiz-adv-x="608" 
d="M564 363c0 -12.667 -29.332 -27.335 -87.999 -44.002c5.33301 -69.333 8 -128.333 8 -177c0 -84 -11 -126 -33 -126c-12 0 -21.167 7 -27.5 21s-11.166 38.333 -14.499 73c-10 119.333 -15.333 182 -16 188c-97.333 -25.333 -161.666 -42.666 -192.999 -51.999
c-58.667 -153.333 -93.5 -230 -104.5 -230s-22.667 6.5 -35 19.5s-18.5 26.833 -18.5 41.5c0 4.66699 19.333 52.334 58 143.001c-2 -0.666992 -7 -1 -15 -1s-17.167 4.33301 -27.5 13s-15.5 19.5 -15.5 32.5s33 30.167 99 51.5c10.667 24 21.5 50.833 32.5 80.5
s30.667 78.167 59 145.5s45.666 109 51.999 125s18.666 30.5 36.999 43.5s36.166 19.5 53.499 19.5c20.667 0 39.167 -33 55.5 -99s29.5 -147.667 39.5 -245c18.667 2 34.667 3 48 3c30.667 0 46 -8.66699 46 -26zM236.001 341.999c50 13.333 100 24 150 32
c-12 114 -23.667 199.333 -35 256c-34 -78.667 -72.333 -174.667 -115 -288zM254.001 786.999c-21.333 0 -31.998 11.167 -31.998 33.5s13 47 39 74s52.333 40.5 79 40.5c15.333 0 29.166 -4 41.499 -12s21.5 -17 27.5 -27c16.667 -26.667 31 -41 43 -43
c11.333 2 24.166 14.167 38.499 36.5s27.833 33.5 40.5 33.5c16.667 0 25 -11.5 25 -34.5s-10.5 -46.833 -31.5 -71.5s-44.167 -37 -69.5 -37c-36.667 0 -73.667 29.667 -111 89c-15.333 -8 -31 -23.667 -47 -47s-30.333 -35 -43 -35z" />
    <glyph glyph-name="Adieresis" unicode="&#xc4;" horiz-adv-x="608" 
d="M564 363c0 -12.667 -29.332 -27.335 -87.999 -44.002c5.33301 -69.333 8 -128.333 8 -177c0 -84 -11 -126 -33 -126c-12 0 -21.167 7 -27.5 21s-11.166 38.333 -14.499 73c-10 119.333 -15.333 182 -16 188c-97.333 -25.333 -161.666 -42.666 -192.999 -51.999
c-58.667 -153.333 -93.5 -230 -104.5 -230s-22.667 6.5 -35 19.5s-18.5 26.833 -18.5 41.5c0 4.66699 19.333 52.334 58 143.001c-2 -0.666992 -7 -1 -15 -1s-17.167 4.33301 -27.5 13s-15.5 19.5 -15.5 32.5s33 30.167 99 51.5c10.667 24 21.5 50.833 32.5 80.5
s30.667 78.167 59 145.5s45.666 109 51.999 125s18.666 30.5 36.999 43.5s36.166 19.5 53.499 19.5c20.667 0 39.167 -33 55.5 -99s29.5 -147.667 39.5 -245c18.667 2 34.667 3 48 3c30.667 0 46 -8.66699 46 -26zM236.001 341.999c50 13.333 100 24 150 32
c-12 114 -23.667 199.333 -35 256c-34 -78.667 -72.333 -174.667 -115 -288zM333.001 798.999c-14.667 0 -31.002 8.83105 -49.002 26.498s-27 32.834 -27 45.501s4.83301 24.834 14.5 36.501s19.834 17.5 30.501 17.5s22.834 -13 36.501 -39s20.5 -44 20.5 -54
s-2.83301 -18 -8.5 -24s-11.5 -9 -17.5 -9zM482.999 798.997c-14.667 0 -31 8.83105 -49 26.498s-27 32.834 -27 45.501s5 24.834 15 36.501s20.167 17.5 30.5 17.5s22.5 -13 36.5 -39s21 -44.167 21 -54.5s-3 -18.333 -9 -24s-12 -8.5 -18 -8.5z" />
    <glyph glyph-name="Aring" unicode="&#xc5;" horiz-adv-x="608" 
d="M564 363c0 -12.667 -29.332 -27.335 -87.999 -44.002c5.33301 -69.333 8 -128.333 8 -177c0 -84 -11 -126 -33 -126c-12 0 -21.167 7 -27.5 21s-11.166 38.333 -14.499 73c-10 119.333 -15.333 182 -16 188c-97.333 -25.333 -161.666 -42.666 -192.999 -51.999
c-58.667 -153.333 -93.5 -230 -104.5 -230s-22.667 6.5 -35 19.5s-18.5 26.833 -18.5 41.5c0 4.66699 19.333 52.334 58 143.001c-2 -0.666992 -7 -1 -15 -1s-17.167 4.33301 -27.5 13s-15.5 19.5 -15.5 32.5s33 30.167 99 51.5c10.667 24 21.5 50.833 32.5 80.5
s30.667 78.167 59 145.5s45.666 109 51.999 125s18.666 30.5 36.999 43.5s36.166 19.5 53.499 19.5c20.667 0 39.167 -33 55.5 -99s29.5 -147.667 39.5 -245c18.667 2 34.667 3 48 3c30.667 0 46 -8.66699 46 -26zM236.001 341.999c50 13.333 100 24 150 32
c-12 114 -23.667 199.333 -35 256c-34 -78.667 -72.333 -174.667 -115 -288zM457.501 805.499c-19.667 -22.333 -41.6689 -33.5 -66.002 -33.5s-44.166 8.33301 -59.499 25s-23 38 -23 64s9.83301 50.167 29.5 72.5s41.834 33.5 66.501 33.5s44.5 -8.5 59.5 -25.5
s22.5 -38.333 22.5 -64s-9.83301 -49.667 -29.5 -72zM420.499 900.499c-5 7 -11.5 10.501 -19.5 10.501s-15.5 -4.83301 -22.5 -14.5s-10.5 -20.5 -10.5 -32.5s2.5 -21.5 7.5 -28.5s11.5 -10.5 19.5 -10.5s15.5 4.66699 22.5 14s10.5 20.166 10.5 32.499s-2.5 22 -7.5 29z
" />
    <glyph glyph-name="AE" unicode="&#xc6;" horiz-adv-x="831" 
d="M606 631l-52 -0.00292969c2 -6 3 -12.333 3 -19c0 -51.333 -13.667 -123.333 -41 -216c70 7.33301 119.667 11 149 11c52.667 0 79 -10.333 79 -31c0 -11.333 -15.833 -20.166 -47.5 -26.499s-69 -12.166 -112 -17.499l-68.5 -8.5
c-2.66699 -0.333008 -6.16699 -0.666016 -10.5 -0.999023s-8.16602 -0.833008 -11.499 -1.5c-34 -114 -51 -177 -51 -189c0 -22 9.33301 -33 28 -33c76.667 0 161.334 12.333 254.001 37c30 8 47.333 12 52 12c9.33301 0 14 -7 14 -21c0 -24 -36.833 -48.667 -110.5 -74
s-144.834 -38 -213.501 -38c-30.667 0 -57.5 9 -80.5 27s-34.5 39 -34.5 63c0 36 15.333 103.667 46 203c-30 -4 -68.833 -9.83301 -116.5 -17.5s-77.167 -11.834 -88.5 -12.501c-55.333 -134.667 -88.833 -212.5 -100.5 -233.5s-20.834 -31.5 -27.501 -31.5
c-10.667 0 -21.167 5.66699 -31.5 17s-15.5 22 -15.5 32s5.83301 29.167 17.5 57.5l50 118l90.5 221c38.667 97 66 159.5 82 187.5c14 23.333 42.833 39 86.5 47s107 12 190 12s146.333 -1.66699 190 -5s72.5 -7.66602 86.5 -12.999s21 -12.333 21 -21
c0 -23.333 -75.333 -35 -226 -35zM421 384.997c30.667 103.333 47.002 184.667 49.002 244c-76.667 -4 -119.334 -11.333 -128.001 -22c-14 -14.667 -53 -99 -117 -253c51.333 10.667 116.666 21 195.999 31z" />
    <glyph glyph-name="Ccedilla" unicode="&#xc7;" horiz-adv-x="603" 
d="M243 -33c20.667 0 41.5 -5.83203 62.5 -17.499s31.5 -24.834 31.5 -39.501c-0.666992 -29.333 -21.334 -53 -62.001 -71s-82.667 -27 -126 -27c-12.667 0 -23.167 2.5 -31.5 7.5s-12.5 11.167 -12.5 18.5s8.83301 12.833 26.5 16.5s39.167 8.66699 64.5 15
s44 15.833 56 28.5c-4 6 -19.667 11.833 -47 17.5s-41 12.167 -41 19.5s5.83301 23.166 17.5 47.499s19.167 40.833 22.5 49.5c-37.333 14.667 -69.666 39.334 -96.999 74.001s-41 71 -41 109c0 62.667 20.5 133.5 61.5 212.5s93.667 147.167 158 204.5
s126.166 86 185.499 86c16.667 0 34.167 -11 52.5 -33s27.5 -40.167 27.5 -54.5s-2.33301 -21.5 -7 -21.5s-14 2.5 -28 7.5s-27 7.5 -39 7.5c-34.667 0 -77.167 -21.667 -127.5 -65s-94.666 -98.166 -132.999 -164.499s-57.5 -127.5 -57.5 -183.5
c0 -30.667 9.33301 -54.5 28 -71.5s43.5 -25.5 74.5 -25.5s62.833 4.5 95.5 13.5s59 19.167 79 30.5c54 28.667 83.667 43 89 43c11.333 0 17 -7.33301 17 -22s-14.833 -34.334 -44.5 -59.001s-66.667 -47 -111 -67s-84.5 -30.667 -120.5 -32
c-8 -19.333 -16.667 -37.333 -26 -54h3z" />
    <glyph glyph-name="Egrave" unicode="&#xc8;" horiz-adv-x="585" 
d="M208 333c-36 -114 -54.001 -182.999 -54.001 -206.999c0 -8 2.5 -14.5 7.5 -19.5s11.5 -7.5 19.5 -7.5c76.667 0 161.334 12.333 254.001 37c30 8 47.333 12 52 12c10 0 15 -7 15 -21c0 -24 -36.833 -48.667 -110.5 -74s-144.834 -38 -213.501 -38
c-30.667 0 -57.5 9 -80.5 27s-34.5 40.667 -34.5 68s9.83301 74 29.5 140s39.5 136.333 59.5 211s30 137.667 30 189c0 7.33301 1.33301 15 4 23c11.333 24.667 84 37 218 37s201 -9.66699 201 -29c0 -13.333 -14.333 -22.333 -43 -27
c-24 -4.66699 -55.833 -8.83398 -95.5 -12.501s-67.5 -6.33398 -83.5 -8.00098s-54.667 -7.83398 -116 -18.501v-3c0 -45.333 -12.333 -113.666 -37 -204.999c4 -0.666992 17.5 -1 40.5 -1s53.833 1.66699 92.5 5s67.834 5 87.501 5s29.5 -4.66699 29.5 -14
c0 -23.333 -27.333 -40.666 -82 -51.999s-118 -17 -190 -17zM285.499 904.501c-1 3 -1.50488 8.49707 -1.50488 16.4971s5 18.167 15 30.5s19.333 18.5 28 18.5s15.834 -2.16699 21.501 -6.5s15.334 -14 29.001 -29l55.5 -59c23.333 -24.333 36.5 -39.666 39.5 -45.999
s4.5 -12.666 4.5 -18.999s-2.66699 -12.333 -8 -18s-11.166 -8.5 -17.499 -8.5s-13 2 -20 6s-17.167 11.167 -30.5 21.5s-23.333 17.833 -30 22.5l-23 16.5c-8.66699 6.33301 -15 10.833 -19 13.5s-9.16699 6.33398 -15.5 11.001s-10.666 8.16699 -12.999 10.5
s-5.16602 5.33301 -8.49902 9s-5.5 7 -6.5 10z" />
    <glyph glyph-name="Eacute" unicode="&#xc9;" horiz-adv-x="585" 
d="M208 333c-36 -114 -54.001 -182.999 -54.001 -206.999c0 -8 2.5 -14.5 7.5 -19.5s11.5 -7.5 19.5 -7.5c76.667 0 161.334 12.333 254.001 37c30 8 47.333 12 52 12c10 0 15 -7 15 -21c0 -24 -36.833 -48.667 -110.5 -74s-144.834 -38 -213.501 -38
c-30.667 0 -57.5 9 -80.5 27s-34.5 40.667 -34.5 68s9.83301 74 29.5 140s39.5 136.333 59.5 211s30 137.667 30 189c0 7.33301 1.33301 15 4 23c11.333 24.667 84 37 218 37s201 -9.66699 201 -29c0 -13.333 -14.333 -22.333 -43 -27
c-24 -4.66699 -55.833 -8.83398 -95.5 -12.501s-67.5 -6.33398 -83.5 -8.00098s-54.667 -7.83398 -116 -18.501v-3c0 -45.333 -12.333 -113.666 -37 -204.999c4 -0.666992 17.5 -1 40.5 -1s53.833 1.66699 92.5 5s67.834 5 87.501 5s29.5 -4.66699 29.5 -14
c0 -23.333 -27.333 -40.666 -82 -51.999s-118 -17 -190 -17zM426.999 785.501c-3.33301 -1 -7.50098 -1.5 -12.501 -1.5s-10.167 2.66699 -15.5 8s-8 12.5 -8 21.5s4.16699 18.833 12.5 29.5s20.666 24 36.999 40l39 38l22.5 22c5.33301 5.33301 11 10.333 17 15
c11.333 10 21.666 15 30.999 15s18.333 -6.16699 27 -18.5s13 -23.333 13 -33s-0.833008 -16.834 -2.5 -21.501s-5.66699 -9.66699 -12 -15s-12.166 -9.66602 -17.499 -12.999l-52.5 -35c-12.333 -8 -23.166 -15.5 -32.499 -22.5s-15.833 -11.667 -19.5 -14l-13.5 -8.5
c-5.33301 -3.33301 -9.66602 -5.5 -12.999 -6.5z" />
    <glyph glyph-name="Ecircumflex" unicode="&#xca;" horiz-adv-x="585" 
d="M208 333c-36 -114 -54.001 -182.999 -54.001 -206.999c0 -8 2.5 -14.5 7.5 -19.5s11.5 -7.5 19.5 -7.5c76.667 0 161.334 12.333 254.001 37c30 8 47.333 12 52 12c10 0 15 -7 15 -21c0 -24 -36.833 -48.667 -110.5 -74s-144.834 -38 -213.501 -38
c-30.667 0 -57.5 9 -80.5 27s-34.5 40.667 -34.5 68s9.83301 74 29.5 140s39.5 136.333 59.5 211s30 137.667 30 189c0 7.33301 1.33301 15 4 23c11.333 24.667 84 37 218 37s201 -9.66699 201 -29c0 -13.333 -14.333 -22.333 -43 -27
c-24 -4.66699 -55.833 -8.83398 -95.5 -12.501s-67.5 -6.33398 -83.5 -8.00098s-54.667 -7.83398 -116 -18.501v-3c0 -45.333 -12.333 -113.666 -37 -204.999c4 -0.666992 17.5 -1 40.5 -1s53.833 1.66699 92.5 5s67.834 5 87.501 5s29.5 -4.66699 29.5 -14
c0 -23.333 -27.333 -40.666 -82 -51.999s-118 -17 -190 -17zM321.999 808.001c-13.333 -9.33301 -24.6709 -14 -34.0039 -14s-17.166 3 -23.499 9s-9.5 15 -9.5 27s5.33301 23.833 16 35.5s24.167 22.167 40.5 31.5s29.833 17.333 40.5 24l26 16c6.66699 4 14 8 22 12
c14.667 8 25.334 12 32.001 12s12.834 -1.66699 18.501 -5s10.167 -7 13.5 -11l16.5 -20.5c7.66699 -9.66699 13.5 -16.834 17.5 -21.501l20.5 -23c9.66699 -10.667 16.5 -18.5 20.5 -23.5l15 -18.5c10.667 -14 16 -25 16 -33s-2.5 -14 -7.5 -18s-11.833 -6 -20.5 -6
s-20.667 6.33301 -36 19s-27.333 24.334 -36 35.001l-39 49c-18.667 -9.33301 -38.167 -22 -58.5 -38s-37.166 -28.667 -50.499 -38z" />
    <glyph glyph-name="Edieresis" unicode="&#xcb;" horiz-adv-x="585" 
d="M208 333c-36 -114 -54.001 -182.999 -54.001 -206.999c0 -8 2.5 -14.5 7.5 -19.5s11.5 -7.5 19.5 -7.5c76.667 0 161.334 12.333 254.001 37c30 8 47.333 12 52 12c10 0 15 -7 15 -21c0 -24 -36.833 -48.667 -110.5 -74s-144.834 -38 -213.501 -38
c-30.667 0 -57.5 9 -80.5 27s-34.5 40.667 -34.5 68s9.83301 74 29.5 140s39.5 136.333 59.5 211s30 137.667 30 189c0 7.33301 1.33301 15 4 23c11.333 24.667 84 37 218 37s201 -9.66699 201 -29c0 -13.333 -14.333 -22.333 -43 -27
c-24 -4.66699 -55.833 -8.83398 -95.5 -12.501s-67.5 -6.33398 -83.5 -8.00098s-54.667 -7.83398 -116 -18.501v-3c0 -45.333 -12.333 -113.666 -37 -204.999c4 -0.666992 17.5 -1 40.5 -1s53.833 1.66699 92.5 5s67.834 5 87.501 5s29.5 -4.66699 29.5 -14
c0 -23.333 -27.333 -40.666 -82 -51.999s-118 -17 -190 -17zM369.999 799.001c-14.667 0 -30.999 8.83105 -48.999 26.498s-27 32.834 -27 45.501s5 24.834 15 36.501s20.167 17.5 30.5 17.5s22.5 -13 36.5 -39s21 -44.167 21 -54.5s-2.83301 -18.333 -8.5 -24
s-11.834 -8.5 -18.501 -8.5zM521 798.999c-14.667 0 -31 8.83105 -49 26.498s-27 32.834 -27 45.501s5 24.834 15 36.501s20.167 17.5 30.5 17.5s22.5 -13 36.5 -39s21 -44 21 -54s-3 -18 -9 -24s-12 -9 -18 -9z" />
    <glyph glyph-name="Igrave" unicode="&#xcc;" horiz-adv-x="310" 
d="M137.5 904.5c-1 3 -1.5 8.49902 -1.5 16.499s5 18.167 15 30.5s20.667 18.5 32 18.5c10 0 22.667 -9 38 -27c12 -14 31.5 -34.833 58.5 -62.5s42 -44.667 45 -51s4.5 -12.666 4.5 -18.999s-2.83301 -12.333 -8.5 -18s-11.5 -8.5 -17.5 -8.5s-12.5 2 -19.5 6
s-17.167 11.167 -30.5 21.5s-23.5 18 -30.5 23l-23 16l-19 13c-4.33301 3 -9.33301 6.66699 -15 11s-10 8 -13 11s-6 6.16699 -9 9.5s-5 6.5 -6 9.5zM87.5 42.999c-13 16 -19.502 30.6689 -19.502 44.002s19.833 106.5 59.5 279.5s59.834 280.167 60.501 321.5
c0 11.333 1.5 19.166 4.5 23.499s9.33301 6.5 19 6.5s22.334 -10.333 38.001 -31s23.5 -42.834 23.5 -66.501s-24 -133.167 -72 -328.5c-4.66699 -18 -11 -43.833 -19 -77.5s-14.333 -59.5 -19 -77.5l-15 -59c-11.333 -39.333 -21 -59 -29 -59s-18.5 8 -31.5 24z" />
    <glyph glyph-name="Iacute" unicode="&#xcd;" horiz-adv-x="310" 
d="M251 792c-5.33301 5.33301 -7.99805 12.5029 -7.99805 21.5029s4.16699 18.667 12.5 29s24.833 28.166 49.5 53.499c16 14.667 29.5 27.5 40.5 38.5s19.5 18.833 25.5 23.5c11.333 10 21.5 15 30.5 15s18 -6.33301 27 -19s13.5 -23.5 13.5 -32.5
s-0.833008 -15.667 -2.5 -20s-3.83398 -8 -6.50098 -11s-7.16699 -7 -13.5 -12s-12.166 -9.16699 -17.499 -12.5l-25 -15.5c-11.333 -7 -20.833 -13.167 -28.5 -18.5s-15.834 -11.333 -24.501 -18s-15 -11.334 -19 -14.001s-8.33301 -5.33398 -13 -8.00098
c-8.66699 -5.33301 -16.334 -8 -23.001 -8s-12.667 2.66699 -18 8zM87.502 43.0029c-13 16 -19.502 30.6689 -19.502 44.002s19.833 106.5 59.5 279.5s59.834 280.167 60.501 321.5c0 11.333 1.5 19.166 4.5 23.499s9.33301 6.5 19 6.5s22.334 -10.333 38.001 -31
s23.5 -42.834 23.5 -66.501s-24 -133.167 -72 -328.5c-4.66699 -18 -11 -43.833 -19 -77.5s-14.333 -59.5 -19 -77.5l-15 -59c-11.333 -39.333 -21 -59 -29 -59s-18.5 8 -31.5 24z" />
    <glyph glyph-name="Icircumflex" unicode="&#xce;" horiz-adv-x="310" 
d="M271.5 958c5.66699 2 10.8301 2.99902 15.4971 2.99902s9.83398 -1.66699 15.501 -5s10.167 -7 13.5 -11l24 -30c10.667 -13.333 20.667 -25 30 -35s16.166 -17.833 20.499 -23.5l15.5 -19.5c10.667 -13.333 16 -24 16 -32c0 -16 -8.66699 -24 -26 -24
c-10.667 0 -23.667 6.33301 -39 19s-27.333 24.334 -36 35.001l-39 49c-18.667 -10 -38.167 -22.833 -58.5 -38.5l-50 -37.5c-13 -9.33301 -24.167 -14 -33.5 -14s-17.166 3 -23.499 9s-9.5 15 -9.5 27s5.33301 23.833 16 35.5s24.167 22.167 40.5 31.5
s29.833 17.333 40.5 24l26 16c6.66699 4 13.834 8 21.501 12s14.334 7 20.001 9zM87.4961 42.999c-13 16 -19.502 30.6689 -19.502 44.002s19.833 106.5 59.5 279.5s59.834 280.167 60.501 321.5c0 11.333 1.5 19.166 4.5 23.499s9.33301 6.5 19 6.5
s22.334 -10.333 38.001 -31s23.5 -42.834 23.5 -66.501s-24 -133.167 -72 -328.5c-4.66699 -18 -11 -43.833 -19 -77.5s-14.333 -59.5 -19 -77.5l-15 -59c-11.333 -39.333 -21 -59 -29 -59s-18.5 8 -31.5 24z" />
    <glyph glyph-name="Idieresis" unicode="&#xcf;" horiz-adv-x="310" 
d="M342 925c10.667 0 22.832 -13.002 36.499 -39.002s20.5 -44 20.5 -54s-2.83301 -18 -8.5 -24s-11.5 -9 -17.5 -9c-14.667 0 -31 8.83301 -49 26.5s-27 32.834 -27 45.501s4.83301 24.834 14.5 36.501s19.834 17.5 30.501 17.5zM160.998 907.498
c10 11.667 20.167 17.498 30.5 17.498s22.5 -13 36.5 -39s21 -44 21 -54s-3 -18 -9 -24s-12 -9 -18 -9c-14.667 0 -31 8.83301 -49 26.5s-27 32.834 -27 45.501s5 24.834 15 36.501zM87.498 42.9961c-13 16 -19.502 30.6689 -19.502 44.002s19.833 106.5 59.5 279.5
s59.834 280.167 60.501 321.5c0 11.333 1.5 19.166 4.5 23.499s9.33301 6.5 19 6.5s22.334 -10.333 38.001 -31s23.5 -42.834 23.5 -66.501s-24 -133.167 -72 -328.5c-4.66699 -18 -11 -43.833 -19 -77.5s-14.333 -59.5 -19 -77.5l-15 -59c-11.333 -39.333 -21 -59 -29 -59
s-18.5 8 -31.5 24z" />
    <glyph glyph-name="Eth" unicode="&#xd0;" horiz-adv-x="619" 
d="M165 703c62.667 0 129.501 -16.5 200.501 -49.5s132.167 -78.5 183.5 -136.5s77 -117.667 77 -179c0 -40 -28.167 -87.5 -84.5 -142.5s-121.5 -102 -195.5 -141s-135.333 -58.5 -184 -58.5c-12.667 0 -27.167 10.833 -43.5 32.5s-24.5 42.667 -24.5 63
s13.667 81.5 41 183.5c-33.333 -2.66699 -53.833 -4 -61.5 -4s-19.5 3.33301 -35.5 10s-24 15.667 -24 27c0 15.333 14.667 26 44 32s62.666 11.667 99.999 17c34.667 124.667 53.667 208.667 57 252c-21.333 9.33301 -38.333 21 -51 35s-19 27.333 -19 40s6.66699 19 20 19
zM534.001 349c0 41.333 -24.668 86 -74.001 134s-106.666 83 -171.999 105c3.33301 -11.333 5 -22.333 5 -33c0 -28 -14 -90.667 -42 -188c8.66699 0.666992 20.5 1 35.5 1s29.5 -3.5 43.5 -10.5s21 -16.167 21 -27.5s-10.833 -19.833 -32.5 -25.5s-51.5 -11.5 -89.5 -17.5
l-17 -56c-12.667 -44 -23 -92.333 -31 -145c46 6 97.5 26.167 154.5 60.5s104.333 71 142 110s56.5 69.833 56.5 92.5z" />
    <glyph glyph-name="Ntilde" unicode="&#xd1;" horiz-adv-x="677" 
d="M268 817c0 24.667 13.001 50.501 39.001 77.501s52.333 40.5 79 40.5c16 0 30.167 -4 42.5 -12s21.5 -17 27.5 -27c16.667 -26.667 31 -41 43 -43c11.333 2 24.166 14.167 38.499 36.5s27.833 33.5 40.5 33.5c16.667 0 25 -11.5 25 -34.5s-10.667 -46.833 -32 -71.5
s-44.333 -37 -69 -37c-36.667 0 -74 29.667 -112 89c-12.667 -6.66699 -24.167 -17 -34.5 -31l-27.5 -36c-8 -10 -17 -15 -27 -15s-18 2.66699 -24 8s-9 12.666 -9 21.999zM562.001 680.001c1.33301 28.667 8.16699 43.001 20.5 43.001s25.833 -7.66699 40.5 -23
s22 -29 22 -41c0 -54.667 -8.5 -132.334 -25.5 -233.001s-39.667 -194 -68 -280s-55.166 -129 -80.499 -129c-8.66699 0 -18.5 4.33301 -29.5 13s-19.5 19.334 -25.5 32.001c-20 46.667 -79 194.667 -177 444l-66.5 -262.5c-24.333 -97.667 -40.5 -159.834 -48.5 -186.501
s-15 -40 -21 -40c-8.66699 0 -19.167 7.5 -31.5 22.5s-18.5 30.5 -18.5 46.5s21.667 109.833 65 281.5s65.666 278.834 66.999 321.501c0 21.333 5.66699 32 17 32c7.33301 0 17.5 -6.16699 30.5 -18.5s22.5 -25.833 28.5 -40.5
c107.333 -278.667 175.333 -449.334 204 -512.001c43.333 114.667 72.333 251.667 87 411c6.66699 73.333 10 113 10 119z" />
    <glyph glyph-name="Ograve" unicode="&#xd2;" horiz-adv-x="613" 
d="M349.5 904.5c-1 3 -1.50293 8.49805 -1.50293 16.498s5 18.167 15 30.5s20.667 18.5 32 18.5c10 0 22.667 -9 38 -27c12 -14 31.5 -34.833 58.5 -62.5s42 -44.667 45 -51s4.5 -12.666 4.5 -18.999s-2.66699 -12.333 -8 -18s-11.166 -8.5 -17.499 -8.5s-13 2 -20 6
s-17.167 11.167 -30.5 21.5s-23.333 17.833 -30 22.5l-23 16.5c-8.66699 6.33301 -15 10.833 -19 13.5s-9.16699 6.33398 -15.5 11.001s-10.666 8.16699 -12.999 10.5s-5.16602 5.33301 -8.49902 9s-5.5 7 -6.5 10zM452.997 300.498
c31.333 57.667 47.001 112.167 47.001 163.5s-9.83301 93 -29.5 125s-42.834 48 -69.501 48s-60 -20.667 -100 -62s-76 -95.5 -108 -162.5s-48 -131.167 -48 -192.5c0 -36.667 8 -66.5 24 -89.5s34.667 -34.5 56 -34.5c33.333 0 71.833 19.667 115.5 59
s81.167 87.833 112.5 145.5zM218.998 16.998c-44 0 -82.502 21.6641 -115.502 64.9971s-49.5 87.333 -49.5 132c0 60.667 11.167 122.334 33.5 185.001s50.333 117.334 84 164.001s70.834 84.834 111.501 114.501s78.334 44.5 113.001 44.5c56 0 102.667 -25.5 140 -76.5
s56 -108.5 56 -172.5s-17.667 -131.167 -53 -201.5s-82.5 -130.333 -141.5 -180s-118.5 -74.5 -178.5 -74.5z" />
    <glyph glyph-name="Oacute" unicode="&#xd3;" horiz-adv-x="613" 
d="M463 792c-5.33301 5.33301 -7.99805 12.499 -7.99805 21.499s4.16699 18.833 12.5 29.5s20.666 24 36.999 40l39 38l22.5 22c5.33301 5.33301 11 10.333 17 15c11.333 10 21.666 15 30.999 15s18.333 -6.16699 27 -18.5s13 -23.333 13 -33
s-0.833008 -16.834 -2.5 -21.501s-5.66699 -9.66699 -12 -15s-12.166 -9.66602 -17.499 -12.999l-53.5 -35.5c-13 -8.33301 -23.833 -15.666 -32.5 -21.999l-19 -14c-4 -3 -8.33301 -5.83301 -13 -8.5c-8.66699 -5.33301 -16.334 -8 -23.001 -8s-12.667 2.66699 -18 8z
M453.002 300.499c31.333 57.667 47.001 112.167 47.001 163.5s-9.83301 93 -29.5 125s-42.834 48 -69.501 48s-60 -20.667 -100 -62s-76 -95.5 -108 -162.5s-48 -131.167 -48 -192.5c0 -36.667 8 -66.5 24 -89.5s34.667 -34.5 56 -34.5c33.333 0 71.833 19.667 115.5 59
s81.167 87.833 112.5 145.5zM219.003 16.999c-44 0 -82.502 21.6641 -115.502 64.9971s-49.5 87.333 -49.5 132c0 60.667 11.167 122.334 33.5 185.001s50.333 117.334 84 164.001s70.834 84.834 111.501 114.501s78.334 44.5 113.001 44.5c56 0 102.667 -25.5 140 -76.5
s56 -108.5 56 -172.5s-17.667 -131.167 -53 -201.5s-82.5 -130.333 -141.5 -180s-118.5 -74.5 -178.5 -74.5z" />
    <glyph glyph-name="Ocircumflex" unicode="&#xd4;" horiz-adv-x="613" 
d="M483.5 958c5.66699 2 10.8271 3 15.4941 3s9.83398 -1.66699 15.501 -5s10.167 -7 13.5 -11l16.5 -20.5c7.66699 -9.66699 13.5 -16.834 17.5 -21.501l20.5 -23c9.66699 -10.667 16.5 -18.5 20.5 -23.5l15 -18.5c10.667 -14 16 -25 16 -33c0 -16 -8.66699 -24 -26 -24
c-10.667 0 -23.5 6.33301 -38.5 19s-26.833 24.334 -35.5 35.001l-39 49c-18.667 -9.33301 -38.167 -22 -58.5 -38s-37.166 -28.667 -50.499 -38s-24.666 -14 -33.999 -14s-17.166 3 -23.499 9s-9.5 15 -9.5 27s5.33301 23.833 16 35.5s24.167 22.167 40.5 31.5
s29.833 17.333 40.5 24l26 16c6.66699 4 13.834 8 21.501 12s14.334 7 20.001 9zM452.993 300.5c31.333 57.667 47.001 112.167 47.001 163.5s-9.83301 93 -29.5 125s-42.834 48 -69.501 48s-60 -20.667 -100 -62s-76 -95.5 -108 -162.5s-48 -131.167 -48 -192.5
c0 -36.667 8 -66.5 24 -89.5s34.667 -34.5 56 -34.5c33.333 0 71.833 19.667 115.5 59s81.167 87.833 112.5 145.5zM218.994 17c-44 0 -82.502 21.6641 -115.502 64.9971s-49.5 87.333 -49.5 132c0 60.667 11.167 122.334 33.5 185.001s50.333 117.334 84 164.001
s70.834 84.834 111.501 114.501s78.334 44.5 113.001 44.5c56 0 102.667 -25.5 140 -76.5s56 -108.5 56 -172.5s-17.667 -131.167 -53 -201.5s-82.5 -130.333 -141.5 -180s-118.5 -74.5 -178.5 -74.5z" />
    <glyph glyph-name="Otilde" unicode="&#xd5;" horiz-adv-x="613" 
d="M356 787c-22 0 -32.999 11.167 -32.999 33.5s13 47 39 74s52.333 40.5 79 40.5c16 0 30.167 -4 42.5 -12s21.5 -17 27.5 -27c16.667 -26.667 31 -41 43 -43c11.333 2 24.166 14.167 38.499 36.5s27.833 33.5 40.5 33.5c16.667 0 25 -11.5 25 -34.5
s-10.667 -46.833 -32 -71.5s-44.333 -37 -69 -37c-36.667 0 -74 29.667 -112 89c-12.667 -6.66699 -24.167 -17 -34.5 -31l-27.5 -36c-8 -10 -17 -15 -27 -15zM453.001 300.5c31.333 57.667 47.001 112.167 47.001 163.5s-9.83301 93 -29.5 125s-42.834 48 -69.501 48
s-60 -20.667 -100 -62s-76 -95.5 -108 -162.5s-48 -131.167 -48 -192.5c0 -36.667 8 -66.5 24 -89.5s34.667 -34.5 56 -34.5c33.333 0 71.833 19.667 115.5 59s81.167 87.833 112.5 145.5zM219.002 17c-44 0 -82.502 21.6641 -115.502 64.9971s-49.5 87.333 -49.5 132
c0 60.667 11.167 122.334 33.5 185.001s50.333 117.334 84 164.001s70.834 84.834 111.501 114.501s78.334 44.5 113.001 44.5c56 0 102.667 -25.5 140 -76.5s56 -108.5 56 -172.5s-17.667 -131.167 -53 -201.5s-82.5 -130.333 -141.5 -180s-118.5 -74.5 -178.5 -74.5z" />
    <glyph glyph-name="Odieresis" unicode="&#xd6;" horiz-adv-x="613" 
d="M524 907.5c10 11.667 20.167 17.498 30.5 17.498s22.5 -13 36.5 -39s21 -44 21 -54s-3 -18 -9 -24s-12 -9 -18 -9c-14.667 0 -31 8.83301 -49 26.5s-27 32.834 -27 45.501s5 24.834 15 36.501zM373 907.498c10 11.667 20.168 17.498 30.501 17.498s22.5 -13 36.5 -39
s21 -44.167 21 -54.5s-2.83301 -18.333 -8.5 -24s-11.834 -8.5 -18.501 -8.5c-14.667 0 -31 8.83301 -49 26.5s-27 32.834 -27 45.501s5 24.834 15 36.501zM453.001 300.496c31.333 57.667 47.001 112.167 47.001 163.5s-9.83301 93 -29.5 125s-42.834 48 -69.501 48
s-60 -20.667 -100 -62s-76 -95.5 -108 -162.5s-48 -131.167 -48 -192.5c0 -36.667 8 -66.5 24 -89.5s34.667 -34.5 56 -34.5c33.333 0 71.833 19.667 115.5 59s81.167 87.833 112.5 145.5zM219.002 16.9961c-44 0 -82.502 21.6641 -115.502 64.9971s-49.5 87.333 -49.5 132
c0 60.667 11.167 122.334 33.5 185.001s50.333 117.334 84 164.001s70.834 84.834 111.501 114.501s78.334 44.5 113.001 44.5c56 0 102.667 -25.5 140 -76.5s56 -108.5 56 -172.5s-17.667 -131.167 -53 -201.5s-82.5 -130.333 -141.5 -180s-118.5 -74.5 -178.5 -74.5z" />
    <glyph glyph-name="multiply" unicode="&#xd7;" horiz-adv-x="488" 
d="M503 504c0 -4 -8.66797 -14.168 -26.001 -30.501l-78.5 -73l-88.5 -83.5l36 -45.5l35 -44.5l27 -35c17.333 -23.333 26 -38.666 26 -45.999c0 -14.667 -8.33301 -22 -25 -22c-30.667 0 -82.667 45.667 -156 137c-76.667 -74.667 -121.5 -116.167 -134.5 -124.5
s-23.5 -12.5 -31.5 -12.5s-17.667 5.16699 -29 15.5s-17 19 -17 26s6.5 16.333 19.5 28l64 55c29.667 25 56.834 49.5 81.501 73.5c-34 46 -62.667 89 -86 129s-35 66.333 -35 79s6 19 18 19c18.667 0 38 -3.83301 58 -11.5s30 -16.834 30 -27.501
c0 -22.667 23.667 -66 71 -130c73.333 80 122 129 146 147c19.333 14.667 34 22 44 22s21 -5.16699 33 -15.5s18 -20.166 18 -29.499z" />
    <glyph glyph-name="Oslash" unicode="&#xd8;" horiz-adv-x="613" 
d="M566 602c20.667 -41.333 30.999 -89.1719 30.999 -143.505s-17.667 -116.666 -53 -186.999s-82.333 -130.333 -141 -180s-118 -74.5 -178 -74.5c-38 0 -73.333 17 -106 51c-29.333 -35.333 -48 -53 -56 -53s-14.5 2.83301 -19.5 8.5s-7.5 12.667 -7.5 21
s15 33.166 45 74.499c-18 32.667 -27 64.334 -27 95.001c0 60.667 11.167 122.334 33.5 185.001s50.333 117.334 84 164.001s70.834 84.834 111.501 114.501s78.334 44.5 113.001 44.5c49.333 0 93 -20.667 131 -62c35.333 36.667 59.666 55 72.999 55
c16 0 24 -8.16699 24 -24.5s-14.333 -40.166 -43 -71.499zM144.999 219.994c0 -8.66699 0.333984 -14.999 1.00098 -18.999l61 75l132 162c59.333 73.333 102.666 125.666 129.999 156.999c-20 28 -43 42 -69 42s-59 -20.667 -99 -62s-76 -95.5 -108 -162.5
s-48 -131.167 -48 -192.5zM505 457.995c0 22.667 -2.33398 45 -7.00098 67l-327 -393c16.667 -24 36.334 -36 59.001 -36c33.333 0 71.833 19.667 115.5 59s81.167 87.833 112.5 145.5s47 110.167 47 157.5z" />
    <glyph glyph-name="Ugrave" unicode="&#xd9;" horiz-adv-x="592" 
d="M229.5 904.5c-1 3 -1.50488 8.49707 -1.50488 16.4971s5 18.167 15 30.5s19.333 18.5 28 18.5s15.834 -2.16699 21.501 -6.5s15.334 -14 29.001 -29l55.5 -59c23.333 -24.333 36.5 -39.666 39.5 -45.999s4.5 -12.666 4.5 -18.999s-2.66699 -12.333 -8 -18
s-11.166 -8.5 -17.499 -8.5s-13 2 -20 6s-17.167 11.167 -30.5 21.5s-23.333 17.833 -30 22.5l-23 16.5c-8.66699 6.33301 -15 10.833 -19 13.5s-9.16699 6.33398 -15.5 11.001s-10.666 8.16699 -12.999 10.5s-5.16602 5.33301 -8.49902 9s-5.5 7 -6.5 10zM167.995 712.497
c2.66699 4.33301 8.83301 6.50098 18.5 6.50098s22.667 -8.83301 39 -26.5s24.5 -38.334 24.5 -62.001s-13.667 -88.167 -41 -193.5s-41 -176.833 -41 -214.5s7 -68.167 21 -91.5s32 -35 54 -35s46.333 12.667 73 38s51.5 58.5 74.5 99.5s42.333 91 58 150
s23.5 118.5 23.5 178.5c0 28 -1.5 56 -4.5 84s-4.5 45.333 -4.5 52c0 14 6 21 18 21c15.333 0 33 -11.5 53 -34.5s30 -52.5 30 -88.5c0 -102.667 -15 -199 -45 -289s-70.333 -161.833 -121 -215.5s-104.667 -80.5 -162 -80.5c-42 0 -78.5 20.333 -109.5 61
s-46.5 87.334 -46.5 140.001s14 135.5 42 248.5s42 189.167 42 228.5c0 11.333 1.33301 19.166 4 23.499z" />
    <glyph glyph-name="Uacute" unicode="&#xda;" horiz-adv-x="592" 
d="M343 792c-5.33301 5.33301 -7.99902 12.5 -7.99902 21.5s4.16699 18.833 12.5 29.5s20.666 24 36.999 40l39 38l22.5 22c5.33301 5.33301 11 10.333 17 15c11.333 10 21.666 15 30.999 15s18.333 -6.16699 27 -18.5s13 -23.333 13 -33s-0.833008 -16.834 -2.5 -21.501
s-5.66699 -9.66699 -12 -15s-12.166 -9.66602 -17.499 -12.999l-52.5 -35c-12.333 -8 -23.166 -15.5 -32.499 -22.5s-15.833 -11.667 -19.5 -14l-13.5 -8.5c-8.66699 -5.33301 -16.334 -8 -23.001 -8s-12.667 2.66699 -18 8zM168.001 712.5
c2.66699 4.33301 8.83301 6.50098 18.5 6.50098s22.667 -8.83301 39 -26.5s24.5 -38.334 24.5 -62.001s-13.667 -88.167 -41 -193.5s-41 -176.833 -41 -214.5s7 -68.167 21 -91.5s32 -35 54 -35s46.333 12.667 73 38s51.5 58.5 74.5 99.5s42.333 91 58 150
s23.5 118.5 23.5 178.5c0 28 -1.5 56 -4.5 84s-4.5 45.333 -4.5 52c0 14 6 21 18 21c15.333 0 33 -11.5 53 -34.5s30 -52.5 30 -88.5c0 -102.667 -15 -199 -45 -289s-70.333 -161.833 -121 -215.5s-104.667 -80.5 -162 -80.5c-42 0 -78.5 20.333 -109.5 61
s-46.5 87.334 -46.5 140.001s14 135.5 42 248.5s42 189.167 42 228.5c0 11.333 1.33301 19.166 4 23.499z" />
    <glyph glyph-name="Ucircumflex" unicode="&#xdb;" horiz-adv-x="592" 
d="M363.5 958c5.66699 2 10.8271 3 15.4941 3s9.83398 -1.66699 15.501 -5s10.167 -7 13.5 -11l16.5 -20.5c7.66699 -9.66699 13.5 -16.834 17.5 -21.501l20.5 -23c9.66699 -10.667 16.5 -18.5 20.5 -23.5l15 -18.5c10.667 -14 16 -25 16 -33s-2.5 -14 -7.5 -18
s-11.833 -6 -20.5 -6s-20.667 6.33301 -36 19s-27.333 24.334 -36 35.001l-39 49c-18.667 -9.33301 -38.167 -22 -58.5 -38s-37.166 -28.667 -50.499 -38s-24.666 -14 -33.999 -14s-17.166 3 -23.499 9s-9.5 15 -9.5 27s5.33301 23.833 16 35.5s24.167 22.167 40.5 31.5
s29.833 17.333 40.5 24l26 16c6.66699 4 13.834 8 21.501 12s14.334 7 20.001 9zM167.993 712.5c2.66699 4.33301 8.83301 6.50098 18.5 6.50098s22.667 -8.83301 39 -26.5s24.5 -38.334 24.5 -62.001s-13.667 -88.167 -41 -193.5s-41 -176.833 -41 -214.5
s7 -68.167 21 -91.5s32 -35 54 -35s46.333 12.667 73 38s51.5 58.5 74.5 99.5s42.333 91 58 150s23.5 118.5 23.5 178.5c0 28 -1.5 56 -4.5 84s-4.5 45.333 -4.5 52c0 14 6 21 18 21c15.333 0 33 -11.5 53 -34.5s30 -52.5 30 -88.5c0 -102.667 -15 -199 -45 -289
s-70.333 -161.833 -121 -215.5s-104.667 -80.5 -162 -80.5c-42 0 -78.5 20.333 -109.5 61s-46.5 87.334 -46.5 140.001s14 135.5 42 248.5s42 189.167 42 228.5c0 11.333 1.33301 19.166 4 23.499z" />
    <glyph glyph-name="Udieresis" unicode="&#xdc;" horiz-adv-x="592" 
d="M404 907.5c10 11.667 20.167 17.498 30.5 17.498s22.5 -13 36.5 -39s21 -44 21 -54s-3 -18 -9 -24s-12 -9 -18 -9c-14.667 0 -31 8.83301 -49 26.5s-27 32.834 -27 45.501s5 24.834 15 36.501zM253 907.498c10 11.667 20.168 17.498 30.501 17.498s22.5 -13 36.5 -39
s21 -44.167 21 -54.5s-2.83301 -18.333 -8.5 -24s-11.834 -8.5 -18.501 -8.5c-14.667 0 -31 8.83301 -49 26.5s-27 32.834 -27 45.501s5 24.834 15 36.501zM168.001 712.496c2.66699 4.33301 8.83301 6.50098 18.5 6.50098s22.667 -8.83301 39 -26.5
s24.5 -38.334 24.5 -62.001s-13.667 -88.167 -41 -193.5s-41 -176.833 -41 -214.5s7 -68.167 21 -91.5s32 -35 54 -35s46.333 12.667 73 38s51.5 58.5 74.5 99.5s42.333 91 58 150s23.5 118.5 23.5 178.5c0 28 -1.5 56 -4.5 84s-4.5 45.333 -4.5 52c0 14 6 21 18 21
c15.333 0 33 -11.5 53 -34.5s30 -52.5 30 -88.5c0 -102.667 -15 -199 -45 -289s-70.333 -161.833 -121 -215.5s-104.667 -80.5 -162 -80.5c-42 0 -78.5 20.333 -109.5 61s-46.5 87.334 -46.5 140.001s14 135.5 42 248.5s42 189.167 42 228.5
c0 11.333 1.33301 19.166 4 23.499z" />
    <glyph glyph-name="Yacute" unicode="&#xdd;" horiz-adv-x="575" 
d="M349 792c-5.33301 5.33301 -7.99805 12.5029 -7.99805 21.5029s4.16699 18.667 12.5 29s24.833 28.166 49.5 53.499c16 14.667 29.5 27.5 40.5 38.5s19.5 18.833 25.5 23.5c11.333 10 21.5 15 30.5 15s18 -6.33301 27 -19s13.5 -23.5 13.5 -32.5
s-0.833008 -15.667 -2.5 -20s-3.83398 -8 -6.50098 -11s-7.16699 -7 -13.5 -12s-12.166 -9.16699 -17.499 -12.5l-25 -15.5c-11.333 -7 -20.833 -13.167 -28.5 -18.5s-15.834 -11.333 -24.501 -18s-15 -11.334 -19 -14.001s-8.33301 -5.33398 -13 -8.00098
c-8.66699 -5.33301 -16.334 -8 -23.001 -8s-12.667 2.66699 -18 8zM327.002 373.003c12 0 33.8379 28.501 65.5049 85.501l97 171.5c33 57.333 56.5 86 70.5 86s25.333 -5 34 -15s13 -22 13 -36s-12.667 -42 -38 -84l-102 -166.5
c-42.667 -69 -85.334 -143.833 -128.001 -224.5s-72 -131 -88 -151s-29 -30 -39 -30c-14.667 0 -22 12 -22 36c0 18.667 9.33301 47 28 85c6 11.333 10.667 20.833 14 28.5s8.66602 18.5 15.999 32.5l17 32.5l18.5 36l18.5 35.5c-39.333 10 -75.5 34.833 -108.5 74.5
s-58.167 84 -75.5 133s-26 96.833 -26 143.5s13.333 70 40 70c10.667 0 19.167 -10.333 25.5 -31s14.166 -50.334 23.499 -89.001s21.666 -74.167 36.999 -106.5s33.666 -59.833 54.999 -82.5s39.333 -34 54 -34z" />
    <glyph glyph-name="Thorn" unicode="&#xde;" horiz-adv-x="503" 
d="M301 548c40 0 78.332 -17.5 114.999 -52.5s55 -71.5 55 -109.5c0 -52 -25 -96.667 -75 -134c-60.667 -45.333 -138.667 -68 -234 -68c-26 -94.667 -44 -148.667 -54 -162c-3.33301 -4.66699 -6.66602 -7 -9.99902 -7c-10 0 -20.333 7.5 -31 22.5s-16 29.5 -16 43.5
s9 55.667 27 125c53.333 212 80 360 80 444c0 11.333 1.5 19.333 4.5 24s10 7 21 7s25 -8.66699 42 -26s25.5 -38.333 25.5 -63c0 -12 -2 -29.333 -6 -52c21.333 5.33301 40 8 56 8zM386.999 385c0 21.333 -9.33105 38.834 -27.998 52.501s-39.334 20.5 -62.001 20.5
s-46.334 -5.33301 -71.001 -16c-18 -76 -32.667 -135.667 -44 -179c7.33301 -0.666992 18 -0.333984 32 0.999023c44.667 3.33301 84.667 16.833 120 40.5s53 50.5 53 80.5z" />
    <glyph glyph-name="germandbls" unicode="&#xdf;" horiz-adv-x="585" 
d="M261 93l50.002 -2.00488c30 0 58.833 8.83301 86.5 26.5s41.5 41.167 41.5 70.5c0 20 -7.16699 39.167 -21.5 57.5s-29.833 33.166 -46.5 44.499s-32.167 24.833 -46.5 40.5s-21.5 29.334 -21.5 41.001s7.16699 23 21.5 34s29.833 21 46.5 30s32.167 21.333 46.5 37
s21.5 32.167 21.5 49.5c0 28.667 -10.167 53.334 -30.5 74.001s-42.333 31 -66 31s-45.334 -12.167 -65.001 -36.5s-33.5 -57.166 -41.5 -98.499c-64.667 -318 -112.667 -477 -144 -477c-9.33301 0 -18.833 5.83301 -28.5 17.5s-14.5 23.834 -14.5 36.501s5 37 15 73
c40.667 153.333 70 278.333 88 375c10.667 59.333 33 106.333 67 141s79.667 52 137 52c43.333 0 82 -19.667 116 -59s51 -80.333 51 -123c0 -20 -4.33301 -38.5 -13 -55.5s-19.167 -30.5 -31.5 -40.5s-24.5 -19 -36.5 -27s-22.333 -15.167 -31 -21.5
s-13 -11.666 -13 -15.999s6.5 -12 19.5 -23l43 -35.5c15.667 -12.667 30 -30.167 43 -52.5s19.5 -46.166 19.5 -71.499c0 -50 -20 -90.5 -60 -121.5s-86 -46.5 -138 -46.5c-28.667 0 -50.834 5.33301 -66.501 16s-23.5 23.667 -23.5 39c0 14 8.66699 21 26 21z" />
    <glyph glyph-name="agrave" unicode="&#xe0;" horiz-adv-x="472" 
d="M346 703l46 -48.501c23.333 -24.333 36.5 -39.666 39.5 -45.999s4.5 -12.666 4.5 -18.999s-2.83301 -12.5 -8.5 -18.5s-11.5 -9 -17.5 -9s-12.5 2.16699 -19.5 6.5s-16.833 11.5 -29.5 21.5s-22.667 17.667 -30 23l-24 17l-19 13l-15 10.5
c-6 4.33301 -10.5 7.83301 -13.5 10.5s-6.16699 6 -9.5 10c-4.66699 6 -7 13.667 -7 23s5 20.166 15 32.499s21 18.5 33 18.5c8.66699 0 21 -8.66699 37 -26c4.66699 -4.66699 10.667 -11 18 -19zM300 510.999c30 0 57.667 -15.1689 83 -45.502s38 -57.666 38 -81.999
s-8.33301 -49.166 -25 -74.499c8 -10 12 -18.667 12 -26c0 -18.667 -4.16699 -50.667 -12.5 -96s-13.333 -75 -15 -89s-3.16699 -25.167 -4.5 -33.5l-4 -24.5c-3.33301 -16.667 -9.66602 -25 -18.999 -25c-24 0 -38.333 37.333 -43 112c-60 -74.667 -115 -112 -165 -112
c-30.667 0 -60.834 13.167 -90.501 39.5s-44.5 53.5 -44.5 81.5c0 40 14.667 89.5 44 148.5s67.333 111.5 114 157.5s90.667 69 132 69zM346 334.997c0 62 -11.998 93 -35.998 93c-26 0 -56.5 -18.5 -91.5 -55.5s-64.5 -78.833 -88.5 -125.5s-36 -83.667 -36 -111
c0 -11.333 4.66699 -20.5 14 -27.5s20.333 -10.5 33 -10.5c31.333 0 66.666 21.167 105.999 63.5s66.666 93.833 81.999 154.5c2 10 7.66699 16 17 18v1z" />
    <glyph glyph-name="aacute" unicode="&#xe1;" horiz-adv-x="472" 
d="M536 733.5c8.66699 -12.333 13.002 -23.332 13.002 -32.999s-0.833008 -16.834 -2.5 -21.501s-5.66699 -9.66699 -12 -15s-11.833 -9.66602 -16.5 -12.999l-54 -35.5c-12.667 -8.33301 -23.334 -15.833 -32.001 -22.5s-15 -11.334 -19 -14.001
c-16.667 -11.333 -28.667 -17 -36 -17s-13.5 2.83301 -18.5 8.5s-7.5 13.167 -7.5 22.5s4.16699 19.333 12.5 30s20.5 23.834 36.5 39.501l38.5 37.5l22.5 22c5.33301 5.33301 11 10.666 17 15.999c11.333 9.33301 21.666 14 30.999 14s18.333 -6.16699 27 -18.5z
M300.002 511.001c30 0 57.667 -15.1689 83 -45.502s38 -57.666 38 -81.999s-8.33301 -49.166 -25 -74.499c8 -10 12 -18.667 12 -26c0 -18.667 -4.16699 -50.667 -12.5 -96s-13.333 -75 -15 -89s-3.16699 -25.167 -4.5 -33.5l-4 -24.5
c-3.33301 -16.667 -9.66602 -25 -18.999 -25c-24 0 -38.333 37.333 -43 112c-60 -74.667 -115 -112 -165 -112c-30.667 0 -60.834 13.167 -90.501 39.5s-44.5 53.5 -44.5 81.5c0 40 14.667 89.5 44 148.5s67.333 111.5 114 157.5s90.667 69 132 69zM346.002 334.999
c0 62 -11.998 93 -35.998 93c-26 0 -56.5 -18.5 -91.5 -55.5s-64.5 -78.833 -88.5 -125.5s-36 -83.667 -36 -111c0 -11.333 4.66699 -20.5 14 -27.5s20.333 -10.5 33 -10.5c31.333 0 66.666 21.167 105.999 63.5s66.666 93.833 81.999 154.5c2 10 7.66699 16 17 18v1z" />
    <glyph glyph-name="acircumflex" unicode="&#xe2;" horiz-adv-x="472" 
d="M525.5 596c2.33301 -6 3.49805 -11.5 3.49805 -16.5s-2.5 -9.5 -7.5 -13.5s-11.833 -6 -20.5 -6s-20.667 6.33301 -36 19s-27.333 24.334 -36 35.001l-39 49c-18.667 -9.33301 -38.167 -22 -58.5 -38s-37.166 -28.667 -50.499 -38s-24.5 -14 -33.5 -14s-16.667 3 -23 9
s-9.5 15 -9.5 27c0 24 23 49 69 75c7.33301 4 16.333 9.33301 27 16l26 16l21 12c15.333 8 26.333 12 33 12s12.834 -1.66699 18.501 -5s10.167 -7 13.5 -11l16.5 -20.5c7.66699 -9.66699 13.5 -16.834 17.5 -21.501l20.5 -23c9.66699 -10.667 16.5 -18.5 20.5 -23.5l15 -19
c6 -7.66699 10.167 -14.5 12.5 -20.5zM299.998 511c30 0 57.667 -15.1689 83 -45.502s38 -57.666 38 -81.999s-8.33301 -49.166 -25 -74.499c8 -10 12 -18.667 12 -26c0 -18.667 -4.16699 -50.667 -12.5 -96s-13.333 -75 -15 -89s-3.16699 -25.167 -4.5 -33.5l-4 -24.5
c-3.33301 -16.667 -9.66602 -25 -18.999 -25c-24 0 -38.333 37.333 -43 112c-60 -74.667 -115 -112 -165 -112c-30.667 0 -60.834 13.167 -90.501 39.5s-44.5 53.5 -44.5 81.5c0 40 14.667 89.5 44 148.5s67.333 111.5 114 157.5s90.667 69 132 69zM345.998 334.998
c0 62 -11.998 93 -35.998 93c-26 0 -56.5 -18.5 -91.5 -55.5s-64.5 -78.833 -88.5 -125.5s-36 -83.667 -36 -111c0 -11.333 4.66699 -20.5 14 -27.5s20.333 -10.5 33 -10.5c31.333 0 66.666 21.167 105.999 63.5s66.666 93.833 81.999 154.5c2 10 7.66699 16 17 18v1z" />
    <glyph glyph-name="atilde" unicode="&#xe3;" horiz-adv-x="472" 
d="M528 702c16.667 0 25.001 -11.499 25.001 -34.499s-10.667 -46.833 -32 -71.5s-44.333 -37 -69 -37c-36 0 -73.333 29.333 -112 88c-12.667 -6 -24.167 -16 -34.5 -30l-27.5 -36c-8 -10 -17 -15 -27 -15s-18 2.66699 -24 8s-9 12.666 -9 21.999c0 24.667 13 50.5 39 77.5
s52.333 40.5 79 40.5c16 0 30.167 -4 42.5 -12s21.5 -16.667 27.5 -26c16.667 -27.333 31 -42 43 -44c11.333 2 24.166 14.167 38.499 36.5s27.833 33.5 40.5 33.5zM300.001 511.001c30 0 57.667 -15.1689 83 -45.502s38 -57.666 38 -81.999s-8.33301 -49.166 -25 -74.499
c8 -10 12 -18.667 12 -26c0 -18.667 -4.16699 -50.667 -12.5 -96s-13.333 -75 -15 -89s-3.16699 -25.167 -4.5 -33.5l-4 -24.5c-3.33301 -16.667 -9.66602 -25 -18.999 -25c-24 0 -38.333 37.333 -43 112c-60 -74.667 -115 -112 -165 -112
c-30.667 0 -60.834 13.167 -90.501 39.5s-44.5 53.5 -44.5 81.5c0 40 14.667 89.5 44 148.5s67.333 111.5 114 157.5s90.667 69 132 69zM346.001 334.999c0 62 -11.998 93 -35.998 93c-26 0 -56.5 -18.5 -91.5 -55.5s-64.5 -78.833 -88.5 -125.5s-36 -83.667 -36 -111
c0 -11.333 4.66699 -20.5 14 -27.5s20.333 -10.5 33 -10.5c31.333 0 66.666 21.167 105.999 63.5s66.666 93.833 81.999 154.5c2 10 7.66699 16 17 18v1z" />
    <glyph glyph-name="adieresis" unicode="&#xe4;" horiz-adv-x="472" 
d="M419 686.5c10 11.667 20.167 17.498 30.5 17.498s22.5 -13 36.5 -39s21 -44 21 -54s-3 -18 -9 -24s-12 -9 -18 -9c-14.667 0 -31 8.83301 -49 26.5s-27 32.834 -27 45.501s5 24.834 15 36.501zM300 510.998c30 0 57.667 -15.1689 83 -45.502s38 -57.666 38 -81.999
s-8.33301 -49.166 -25 -74.499c8 -10 12 -18.667 12 -26c0 -18.667 -4.16699 -50.667 -12.5 -96s-13.333 -75 -15 -89s-3.16699 -25.167 -4.5 -33.5l-4 -24.5c-3.33301 -16.667 -9.66602 -25 -18.999 -25c-24 0 -38.333 37.333 -43 112c-60 -74.667 -115 -112 -165 -112
c-30.667 0 -60.834 13.167 -90.501 39.5s-44.5 53.5 -44.5 81.5c0 40 14.667 89.5 44 148.5s67.333 111.5 114 157.5s90.667 69 132 69zM346 334.996c0 62 -11.998 93 -35.998 93c-26 0 -56.5 -18.5 -91.5 -55.5s-64.5 -78.833 -88.5 -125.5s-36 -83.667 -36 -111
c0 -11.333 4.66699 -20.5 14 -27.5s20.333 -10.5 33 -10.5c31.333 0 66.666 21.167 105.999 63.5s66.666 93.833 81.999 154.5c2 10 7.66699 16 17 18v1zM330.002 577.996c-15.333 0 -32 8.83105 -50 26.498s-27 32.834 -27 45.501s5 24.834 15 36.501
s20.167 17.5 30.5 17.5s22.5 -13 36.5 -39s21 -44 21 -54s-2.83301 -18 -8.5 -24s-11.5 -9 -17.5 -9z" />
    <glyph glyph-name="aring" unicode="&#xe5;" horiz-adv-x="472" 
d="M335.5 712.5c19.667 22.333 41.832 33.5 66.499 33.5s44.5 -8.5 59.5 -25.5s22.5 -38.333 22.5 -64s-9.83301 -49.667 -29.5 -72s-41.667 -33.5 -66 -33.5s-44.166 8.33301 -59.499 25s-23 38 -23 64s9.83301 50.167 29.5 72.5zM371.498 614.5
c5 -7 11.667 -10.499 20 -10.499s16 4.66699 23 14s10.5 20.166 10.5 32.499s-2.5 22 -7.5 29s-11.667 10.5 -20 10.5s-16 -4.83301 -23 -14.5s-10.5 -20.5 -10.5 -32.5s2.5 -21.5 7.5 -28.5zM299.998 511.001c30 0 57.667 -15.1689 83 -45.502s38 -57.666 38 -81.999
s-8.33301 -49.166 -25 -74.499c8 -10 12 -18.667 12 -26c0 -18.667 -4.16699 -50.667 -12.5 -96s-13.333 -75 -15 -89s-3.16699 -25.167 -4.5 -33.5l-4 -24.5c-3.33301 -16.667 -9.66602 -25 -18.999 -25c-24 0 -38.333 37.333 -43 112c-60 -74.667 -115 -112 -165 -112
c-30.667 0 -60.834 13.167 -90.501 39.5s-44.5 53.5 -44.5 81.5c0 40 14.667 89.5 44 148.5s67.333 111.5 114 157.5s90.667 69 132 69zM345.998 334.999c0 62 -11.998 93 -35.998 93c-26 0 -56.5 -18.5 -91.5 -55.5s-64.5 -78.833 -88.5 -125.5s-36 -83.667 -36 -111
c0 -11.333 4.66699 -20.5 14 -27.5s20.333 -10.5 33 -10.5c31.333 0 66.666 21.167 105.999 63.5s66.666 93.833 81.999 154.5c2 10 7.66699 16 17 18v1z" />
    <glyph glyph-name="ae" unicode="&#xe6;" horiz-adv-x="743" 
d="M368 345c-2 55.333 -17.1689 82.999 -45.502 82.999s-59.666 -18.667 -93.999 -56s-62.5 -79 -84.5 -125s-33 -83 -33 -111c0 -11.333 4.33301 -20.5 13 -27.5s18.334 -10.5 29.001 -10.5c30.667 0 62.5 16.333 95.5 49s63.833 78 92.5 136
c6.66699 22.667 15.667 43.334 27 62.001zM630.498 404.499c-16.333 18.333 -34.832 27.501 -55.499 27.501s-44.167 -12.833 -70.5 -38.5s-48.833 -57.5 -67.5 -95.5c28 -6 58.667 -9 92 -9s62.666 5.5 87.999 16.5s38 25.667 38 44s-8.16699 36.666 -24.5 54.999z
M28.999 138c0 40.667 13.499 90.002 40.499 148.002s63.5 110 109.5 156s91 69 135 69c23.333 0 45.333 -8 66 -24s36.334 -35.667 47.001 -59c49.333 55.333 98.666 83 147.999 83c40 0 76.167 -18.667 108.5 -56s48.5 -73.833 48.5 -109.5s-19.167 -64.667 -57.5 -87
s-80.166 -33.5 -125.499 -33.5s-90.666 5.33301 -135.999 16c-9.33301 -28 -14 -53.833 -14 -77.5s7.16699 -41.834 21.5 -54.501s38 -19 71 -19s67 5.83301 102 17.5s54.167 17.5 57.5 17.5c17.333 0 26 -6.66699 26 -20c0 -18 -20.333 -37.5 -61 -58.5
s-81.667 -31.5 -123 -31.5s-77.5 11.667 -108.5 35s-50.167 54 -57.5 92c-30.667 -41.333 -59.334 -72.833 -86.001 -94.5s-54.5 -32.5 -83.5 -32.5s-57.667 13.167 -86 39.5s-42.5 54.166 -42.5 83.499z" />
    <glyph glyph-name="ccedilla" unicode="&#xe7;" horiz-adv-x="447" 
d="M179 -33c20 0 40.498 -6.00391 61.498 -18.0039s31.5 -25 31.5 -39c-0.666992 -29.333 -21.167 -53 -61.5 -71s-82.166 -27 -125.499 -27c-13.333 0 -24.166 2.33301 -32.499 7s-12.5 10.334 -12.5 17.001c0 8.66699 9 14.834 27 18.501s39.667 8.5 65 14.5
s44 15.333 56 28c-4.66699 6 -20.667 11.833 -48 17.5s-41 12.167 -41 19.5c0 6.66699 5.5 21.834 16.5 45.501s18.167 39.5 21.5 47.5c-29.333 12 -54.166 30.5 -74.499 55.5s-30.5 51.833 -30.5 80.5c0 45.333 14 95.333 42 150s64.167 101.334 108.5 140.001
s87.5 58 129.5 58c27.333 0 51.333 -12.333 72 -37s31 -46.334 31 -65.001c0 -5.33301 -1.66699 -9.83301 -5 -13.5s-8.16602 -5.5 -14.499 -5.5s-17.5 6 -33.5 18s-30.333 18 -43 18c-36 0 -78 -31.667 -126 -95s-72 -118.666 -72 -165.999c0 -20.667 6.5 -37 19.5 -49
s34 -18 63 -18s55.667 3.5 80 10.5s43.166 14 56.499 21s23.666 10.5 30.999 10.5c12.667 0 19 -6.33301 19 -19c0 -18.667 -22 -40.5 -66 -65.5s-85.333 -38.5 -124 -40.5c-7.33301 -18 -15.333 -34 -24 -48h3z" />
    <glyph glyph-name="egrave" unicode="&#xe8;" horiz-adv-x="438" 
d="M369 258.5c-38.667 -22.333 -82.1641 -33.5 -130.497 -33.5s-91.833 5.33301 -130.5 16c-9.33301 -29.333 -14 -55.5 -14 -78.5s7.16699 -40.833 21.5 -53.5s37.833 -19 70.5 -19s66.5 5.83301 101.5 17.5s54.167 17.5 57.5 17.5c17.333 0 26 -6.66699 26 -20
c0 -18 -20.167 -37.5 -60.5 -58.5s-79.833 -31.5 -118.5 -31.5c-52 0 -94.5 15.5 -127.5 46.5s-49.5 70.167 -49.5 117.5s12.667 96.833 38 148.5s58.166 95.167 98.499 130.5s80.166 53 119.499 53s75.166 -18.667 107.499 -56s48.5 -73.833 48.5 -109.5
s-19.333 -64.667 -58 -87zM276.003 432c-25.333 0 -51.168 -12.832 -77.501 -38.499s-49.166 -57.834 -68.499 -96.501c30 -5.33301 61.333 -8 94 -8s61.667 5.5 87 16.5s38 25.5 38 43.5s-8.16699 36.333 -24.5 55s-32.5 28 -48.5 28zM168.001 682.501
c-1.33301 3 -1.99902 8.5 -1.99902 16.5s5 18.167 15 30.5s21 18.5 33 18.5c9.33301 0 22 -8.66699 38 -26l17.5 -19.5l46.5 -48.5c23.333 -24 36.5 -39.167 39.5 -45.5s4.5 -12.666 4.5 -18.999s-2.83301 -12.5 -8.5 -18.5s-11.5 -9 -17.5 -9s-12.5 2.16699 -19.5 6.5
s-17 11.666 -30 21.999s-23.333 18 -31 23l-23.5 16c-8 5.66699 -14.333 10 -19 13s-9.83398 6.66699 -15.501 11s-10 7.83301 -13 10.5s-5.83301 5.66699 -8.5 9s-4.66699 6.5 -6 9.5z" />
    <glyph glyph-name="eacute" unicode="&#xe9;" horiz-adv-x="438" 
d="M459 733.5c8.66699 -12.333 12.999 -23.332 12.999 -32.999s-0.833008 -16.834 -2.5 -21.501s-5.66699 -9.66699 -12 -15s-12.166 -9.66602 -17.499 -12.999l-53 -35.5c-12.667 -8.33301 -23.334 -15.833 -32.001 -22.5s-15 -11.334 -19 -14.001
c-17.333 -11.333 -29.5 -17 -36.5 -17s-13 2.83301 -18 8.5s-7.5 13 -7.5 22s4 18.833 12 29.5s20.167 23.834 36.5 39.501l39.5 38c10 9.66699 17.5 17.167 22.5 22.5s10.833 10.666 17.5 15.999c12 9.33301 22.333 14 31 14s17.334 -6.16699 26.001 -18.5z
M151.499 458.001c40.333 35.333 80.1689 53 119.502 53s75.166 -18.667 107.499 -56s48.5 -73.833 48.5 -109.5s-19.333 -64.667 -58 -87s-82.167 -33.5 -130.5 -33.5s-91.833 5.33301 -130.5 16c-9.33301 -29.333 -14 -55.5 -14 -78.5s7.16699 -40.833 21.5 -53.5
s37.833 -19 70.5 -19s66.5 5.83301 101.5 17.5s54.167 17.5 57.5 17.5c17.333 0 26 -6.66699 26 -20c0 -18 -20.167 -37.5 -60.5 -58.5s-79.833 -31.5 -118.5 -31.5c-52 0 -94.5 15.5 -127.5 46.5s-49.5 70.167 -49.5 117.5s12.667 96.833 38 148.5
s58.166 95.167 98.499 130.5zM130.002 297.001c30 -5.33301 61.3311 -7.99902 93.998 -7.99902s61.667 5.5 87 16.5s38 25.5 38 43.5s-8.16699 36.333 -24.5 55s-32.5 28 -48.5 28c-25.333 0 -51.166 -12.833 -77.499 -38.5s-49.166 -57.834 -68.499 -96.501z" />
    <glyph glyph-name="ecircumflex" unicode="&#xea;" horiz-adv-x="438" 
d="M448.5 596c2.33301 -6 3.49902 -11.501 3.49902 -16.501s-2.33301 -9.5 -7 -13.5s-11.5 -6 -20.5 -6s-21.167 6.33301 -36.5 19s-27.333 24.334 -36 35.001l-39 49c-18.667 -10 -38.167 -22.833 -58.5 -38.5l-50 -37.5c-13 -9.33301 -24.167 -14 -33.5 -14
s-17.166 3 -23.499 9s-9.5 15 -9.5 27s5.33301 23.833 16 35.5s24.167 22.167 40.5 31.5s29.833 17.333 40.5 24l26 16l21 12c16 8 27.167 12 33.5 12s12.333 -1.66699 18 -5s10.167 -7 13.5 -11l23.5 -29.5c10.333 -13 20.333 -24.833 30 -35.5s16.5 -18.5 20.5 -23.5
l15 -19c6 -7.66699 10.167 -14.5 12.5 -20.5zM151.499 457.999c40.333 35.333 80.1689 53 119.502 53s75.166 -18.667 107.499 -56s48.5 -73.833 48.5 -109.5s-19.333 -64.667 -58 -87s-82.167 -33.5 -130.5 -33.5s-91.833 5.33301 -130.5 16
c-9.33301 -29.333 -14 -55.5 -14 -78.5s7.16699 -40.833 21.5 -53.5s37.833 -19 70.5 -19s66.5 5.83301 101.5 17.5s54.167 17.5 57.5 17.5c17.333 0 26 -6.66699 26 -20c0 -18 -20.167 -37.5 -60.5 -58.5s-79.833 -31.5 -118.5 -31.5c-52 0 -94.5 15.5 -127.5 46.5
s-49.5 70.167 -49.5 117.5s12.667 96.833 38 148.5s58.166 95.167 98.499 130.5zM130.002 296.999c30 -5.33301 61.3311 -7.99902 93.998 -7.99902s61.667 5.5 87 16.5s38 25.5 38 43.5s-8.16699 36.333 -24.5 55s-32.5 28 -48.5 28
c-25.333 0 -51.166 -12.833 -77.499 -38.5s-49.166 -57.834 -68.499 -96.501z" />
    <glyph glyph-name="edieresis" unicode="&#xeb;" horiz-adv-x="438" 
d="M151.5 458c40.333 35.333 80.1689 53 119.502 53s75.166 -18.667 107.499 -56s48.5 -73.833 48.5 -109.5s-19.333 -64.667 -58 -87s-82.167 -33.5 -130.5 -33.5s-91.833 5.33301 -130.5 16c-9.33301 -29.333 -14 -55.5 -14 -78.5s7.16699 -40.833 21.5 -53.5
s37.833 -19 70.5 -19s66.5 5.83301 101.5 17.5s54.167 17.5 57.5 17.5c17.333 0 26 -6.66699 26 -20c0 -18 -20.167 -37.5 -60.5 -58.5s-79.833 -31.5 -118.5 -31.5c-52 0 -94.5 15.5 -127.5 46.5s-49.5 70.167 -49.5 117.5s12.667 96.833 38 148.5
s58.166 95.167 98.499 130.5zM130.003 297c30 -5.33301 61.3311 -7.99902 93.998 -7.99902s61.667 5.5 87 16.5s38 25.5 38 43.5s-8.16699 36.333 -24.5 55s-32.5 28 -48.5 28c-25.333 0 -51.166 -12.833 -77.499 -38.5s-49.166 -57.834 -68.499 -96.501zM253.001 579.001
c-14.667 0 -31.002 8.66699 -49.002 26s-27 32.5 -27 45.5s4.83301 25.167 14.5 36.5s19.834 17 30.501 17s22.834 -13 36.501 -39s20.5 -44 20.5 -54s-2.83301 -17.833 -8.5 -23.5s-11.5 -8.5 -17.5 -8.5zM403.999 579.001c-15.333 0 -32.001 8.66602 -50.001 25.999
s-27 32.333 -27 45s4.83301 24.834 14.5 36.501s19.834 17.5 30.501 17.5s23 -13 37 -39s21 -44 21 -54s-2.83301 -17.833 -8.5 -23.5s-11.5 -8.5 -17.5 -8.5z" />
    <glyph glyph-name="igrave" unicode="&#xec;" horiz-adv-x="238" 
d="M69.5 683c-1 2.66699 -1.5 7.99805 -1.5 15.998s4.83301 18.167 14.5 30.5s20.5 18.5 32.5 18.5c9.33301 0 22 -8.66699 38 -26l17.5 -19.5l46.5 -48.5c23.333 -24 36.5 -39.167 39.5 -45.5s4.5 -12.666 4.5 -18.999s-2.83301 -12.5 -8.5 -18.5s-11.5 -9 -17.5 -9
s-12.5 2.16699 -19.5 6.5s-17 11.666 -30 21.999s-23 18 -30 23l-23.5 16.5l-19 13l-15 10.5c-6 4.33301 -10.5 7.83301 -13.5 10.5s-6 5.83398 -9 9.50098s-5 6.83398 -6 9.50098zM198 487.998c11.333 -15.333 16.998 -30 16.998 -44c0 -36.667 -34 -162.667 -102 -378
c-11.333 -33.333 -26 -50 -44 -50c-9.33301 0 -17.166 3.83301 -23.499 11.5s-9.5 16.5 -9.5 26.5s3.33301 28.5 10 55.5s15.334 60 26.001 99s23.5 91.5 38.5 157.5s25.167 106.667 30.5 122s13.333 23 24 23s21.667 -7.66699 33 -23z" />
    <glyph glyph-name="iacute" unicode="&#xed;" horiz-adv-x="238" 
d="M198 488c11.333 -15.333 16.998 -30 16.998 -44c0 -36.667 -34 -162.667 -102 -378c-11.333 -33.333 -26 -50 -44 -50c-9.33301 0 -17.166 3.83301 -23.499 11.5s-9.5 16.5 -9.5 26.5s3.33301 28.5 10 55.5s15.334 60 26.001 99s23.5 91.5 38.5 157.5
s25.167 106.667 30.5 122s13.333 23 24 23s21.667 -7.66699 33 -23zM182.498 570.5c-5 5.66699 -7.49805 13.168 -7.49805 22.501s4.16699 19.333 12.5 30s20.5 23.834 36.5 39.501l38.5 37.5l22.5 22c5.33301 5.33301 11 10.666 17 15.999
c11.333 9.33301 21.666 14 30.999 14s18.333 -6.16699 27 -18.5s13 -23.333 13 -33s-0.833008 -16.834 -2.5 -21.501s-5.66699 -9.66699 -12 -15s-11.833 -9.66602 -16.5 -12.999l-54 -35.5c-12.667 -8.33301 -23.334 -15.833 -32.001 -22.5s-15 -11.334 -19 -14.001
c-17.333 -11.333 -29.5 -17 -36.5 -17s-13 2.83301 -18 8.5z" />
    <glyph glyph-name="icircumflex" unicode="&#xee;" horiz-adv-x="238" 
d="M198 488c11.333 -15.333 16.998 -30 16.998 -44c0 -36.667 -34 -162.667 -102 -378c-11.333 -33.333 -26 -50 -44 -50c-9.33301 0 -17.166 3.83301 -23.499 11.5s-9.5 16.5 -9.5 26.5s3.33301 28.5 10 55.5s15.334 60 26.001 99s23.5 91.5 38.5 157.5
s25.167 106.667 30.5 122s13.333 23 24 23s21.667 -7.66699 33 -23zM202.498 737c5.66699 2 10.8291 3 15.4961 3s9.83398 -1.66699 15.501 -5s10.167 -7 13.5 -11l16.5 -20.5c7.66699 -9.66699 13.5 -16.834 17.5 -21.501l20.5 -23c9.66699 -10.667 16.5 -18.5 20.5 -23.5
l15 -19.5c10.667 -13.333 16 -24 16 -32s-2.5 -14 -7.5 -18s-11.833 -6 -20.5 -6s-20.667 6.33301 -36 19s-27.333 24.334 -36 35.001l-39 49c-18.667 -9.33301 -38.167 -22 -58.5 -38s-37.166 -28.667 -50.499 -38s-24.5 -14 -33.5 -14s-16.667 3 -23 9s-9.5 15 -9.5 27
c0 24 23 49 69 75c7.33301 4 16.333 9.33301 27 16l26 16c6.66699 4 13.834 8 21.501 12s14.334 7 20.001 9z" />
    <glyph glyph-name="idieresis" unicode="&#xef;" horiz-adv-x="238" 
d="M198 488c11.333 -15.333 16.998 -30 16.998 -44c0 -36.667 -34 -162.667 -102 -378c-11.333 -33.333 -26 -50 -44 -50c-9.33301 0 -17.166 3.83301 -23.499 11.5s-9.5 16.5 -9.5 26.5s3.33301 28.5 10 55.5s15.334 60 26.001 99s23.5 91.5 38.5 157.5
s25.167 106.667 30.5 122s13.333 23 24 23s21.667 -7.66699 33 -23zM272.998 704c10.667 0 22.999 -13.001 36.999 -39.001s21 -44 21 -54s-3 -17.833 -9 -23.5s-12 -8.5 -18 -8.5c-14.667 0 -31 8.66699 -49 26s-27 32.333 -27 45s4.83301 24.834 14.5 36.501
s19.834 17.5 30.501 17.5zM121.997 703.999c10.667 0 23 -13 37 -39s21 -44 21 -54s-2.83301 -17.833 -8.5 -23.5s-11.5 -8.5 -17.5 -8.5c-15.333 0 -31.833 8.66699 -49.5 26s-26.5 32.5 -26.5 45.5s4.66699 25.167 14 36.5s19.333 17 30 17z" />
    <glyph glyph-name="eth" unicode="&#xf0;" horiz-adv-x="452" 
d="M281 591c-24 34.667 -46.332 52.001 -66.999 52.001c-5.33301 0 -13.5 -2.5 -24.5 -7.5s-19.5 -7.5 -25.5 -7.5c-12 0 -18 7.5 -18 22.5s8.33301 29.167 25 42.5s34 20 52 20c49.333 0 94.333 -30.667 135 -92c51.333 20 80.666 30 87.999 30
c15.333 0 23 -5.33301 23 -16c0 -12.667 -28.333 -32.334 -85 -59.001c26 -55.333 39 -114.333 39 -177s-11.833 -123.5 -35.5 -182.5s-56.334 -107.333 -98.001 -145s-86.5 -56.5 -134.5 -56.5c-34 0 -63.167 15 -87.5 45s-36.5 69 -36.5 117c0 78 22.5 145.833 67.5 203.5
s97.833 86.5 158.5 86.5c25.333 0 50.333 -11.667 75 -35c-2.66699 40 -11 77 -25 111c-56.667 -21.333 -90.334 -32 -101.001 -32c-21.333 0 -32 6 -32 18c0 10 7.83301 19.167 23.5 27.5s32.834 15.833 51.501 22.5s29.334 10.667 32.001 12zM162.001 86.001
c36 0 72.332 30.168 108.999 90.501s57.334 123.166 62.001 188.499c-20 24.667 -39.667 37 -59 37c-36.667 0 -71.667 -22.333 -105 -67s-50 -100 -50 -166c0 -20.667 4.16699 -39.667 12.5 -57s18.5 -26 30.5 -26z" />
    <glyph glyph-name="ntilde" unicode="&#xf1;" horiz-adv-x="532" 
d="M284.5 431c41 53.333 74.334 79.9961 100.001 79.9961s50 -13.667 73 -41s34.5 -56.333 34.5 -87c0 -44.667 -11 -103.334 -33 -176.001c-41.333 -128 -77.333 -192 -108 -192c-15.333 0 -23 10 -23 30c0 16 7.33301 45 22 87c39.333 111.333 59 188 59 230
c0 14 -3.16699 26 -9.5 36s-12.333 15 -18 15s-11.167 -1.16699 -16.5 -3.5s-11 -6.33301 -17 -12s-11.833 -11.667 -17.5 -18s-12.167 -14.5 -19.5 -24.5l-20 -28l-22.5 -34l-23 -36.5l-25 -40l-26 -40.5l-27.5 -44c-11.333 -18.667 -20.833 -33.667 -28.5 -45l-24.5 -35
c-17.333 -24.667 -30.5 -37 -39.5 -37s-20 7.5 -33 22.5s-19.5 28.167 -19.5 39.5c0 2.66699 6.16699 23.334 18.5 62.001s21.166 68 26.499 88c17.333 64.667 27.333 136.334 30 215.001c2 48.667 9 73 21 73c14.667 0 29.167 -7.66699 43.5 -23s21.5 -32.166 21.5 -50.499
s-5.5 -53.666 -16.5 -105.999s-23.833 -101.166 -38.5 -146.499c63.333 108 115.5 188.667 156.5 242zM188.001 565.996c-22 0 -32.999 11.167 -32.999 33.5s13 47 39 74s52.333 40.5 79 40.5c16 0 30.167 -4 42.5 -12s21.5 -16.667 27.5 -26c16.667 -27.333 31 -42 43 -44
c11.333 2 24.166 14.167 38.499 36.5s27.833 33.5 40.5 33.5c16.667 0 25 -11.5 25 -34.5s-10.667 -46.833 -32 -71.5s-44.333 -37 -69 -37c-36 0 -73.333 29.333 -112 88c-12.667 -6 -24.167 -16 -34.5 -30l-27.5 -36c-8 -10 -17 -15 -27 -15z" />
    <glyph glyph-name="ograve" unicode="&#xf2;" horiz-adv-x="452" 
d="M181.5 683c-1 2.66699 -1.5 7.99609 -1.5 15.9961s5 18.167 15 30.5s19.5 18.5 28.5 18.5s16.333 -2.16699 22 -6.5s15 -13.666 28 -27.999l55 -58.5c23.667 -24.667 37 -40.167 40 -46.5s4.5 -12.666 4.5 -18.999s-2.83301 -12.5 -8.5 -18.5s-11.5 -9 -17.5 -9
s-12.333 2.16699 -19 6.5s-16.5 11.5 -29.5 21.5l-30.5 23l-24 17l-19 13l-15 10.5c-6 4.33301 -10.5 7.83301 -13.5 10.5s-6 5.83398 -9 9.50098s-5 6.83398 -6 9.50098zM333 340.996c0 22.667 -3.66699 44.168 -11 64.501s-18 35.166 -32 44.499
c-46 -12.667 -85.5 -48.167 -118.5 -106.5s-49.5 -113.166 -49.5 -164.499s12.667 -83.333 38 -96c48 9.33301 88.833 42.166 122.5 98.499s50.5 109.5 50.5 159.5zM161.5 460.497c37.667 33.667 76.332 50.5 115.999 50.5s72.834 -16.833 99.501 -50.5s40 -74.667 40 -123
s-11.667 -97.666 -35 -147.999s-55.5 -92 -96.5 -125s-84.5 -49.5 -130.5 -49.5c-34 0 -62.333 15.667 -85 47s-34 71.166 -34 119.499s11.5 98.5 34.5 150.5s53.333 94.833 91 128.5z" />
    <glyph glyph-name="oacute" unicode="&#xf3;" horiz-adv-x="452" 
d="M333 341c0 22.667 -3.66699 44.168 -11 64.501s-18 35.166 -32 44.499c-46 -12.667 -85.5 -48.167 -118.5 -106.5s-49.5 -113.166 -49.5 -164.499s12.667 -83.333 38 -96c48 9.33301 88.833 42.166 122.5 98.499s50.5 109.5 50.5 159.5zM161.5 460.501
c37.667 33.667 76.332 50.5 115.999 50.5s72.834 -16.833 99.501 -50.5s40 -74.667 40 -123s-11.667 -97.666 -35 -147.999s-55.5 -92 -96.5 -125s-84.5 -49.5 -130.5 -49.5c-34 0 -62.333 15.667 -85 47s-34 71.166 -34 119.499s11.5 98.5 34.5 150.5
s53.333 94.833 91 128.5zM295.498 570.501c-5 5.66699 -7.50098 13.001 -7.50098 22.001s4.16699 18.833 12.5 29.5s20.5 23.834 36.5 39.501l39 38c10 9.66699 17.5 17.167 22.5 22.5s10.833 10.666 17.5 15.999c12 9.33301 22.333 14 31 14s17.334 -6.16699 26.001 -18.5
s13 -23.333 13 -33s-0.833008 -16.834 -2.5 -21.501s-5.66699 -9.66699 -12 -15s-12.166 -9.66602 -17.499 -12.999l-53 -35.5c-12.667 -8.33301 -23.334 -15.833 -32.001 -22.5s-15 -11.334 -19 -14.001c-17.333 -11.333 -29.5 -17 -36.5 -17s-13 2.83301 -18 8.5z" />
    <glyph glyph-name="ocircumflex" unicode="&#xf4;" horiz-adv-x="452" 
d="M333 341c0 22.667 -3.66699 44.168 -11 64.501s-18 35.166 -32 44.499c-46 -12.667 -85.5 -48.167 -118.5 -106.5s-49.5 -113.166 -49.5 -164.499s12.667 -83.333 38 -96c48 9.33301 88.833 42.166 122.5 98.499s50.5 109.5 50.5 159.5zM161.5 460.501
c37.667 33.667 76.332 50.5 115.999 50.5s72.834 -16.833 99.501 -50.5s40 -74.667 40 -123s-11.667 -97.666 -35 -147.999s-55.5 -92 -96.5 -125s-84.5 -49.5 -130.5 -49.5c-34 0 -62.333 15.667 -85 47s-34 71.166 -34 119.499s11.5 98.5 34.5 150.5
s53.333 94.833 91 128.5zM315.498 737.001c5.66699 2 10.8291 3 15.4961 3s9.83398 -1.66699 15.501 -5s10.167 -7 13.5 -11l16.5 -20.5c7.66699 -9.66699 13.5 -16.834 17.5 -21.501l20.5 -23c9.66699 -10.667 16.5 -18.5 20.5 -23.5l15 -19.5
c10.667 -13.333 16 -24 16 -32s-2.5 -14 -7.5 -18s-11.833 -6 -20.5 -6s-20.667 6.33301 -36 19s-27.333 24.334 -36 35.001l-39 49c-18.667 -9.33301 -38.167 -22 -58.5 -38s-37.166 -28.667 -50.499 -38s-24.5 -14 -33.5 -14s-16.667 3 -23 9s-9.5 15 -9.5 27
c0 24 23 49 69 75c7.33301 4 16.333 9.33301 27 16l26 16c6.66699 4 13.834 8 21.501 12s14.334 7 20.001 9z" />
    <glyph glyph-name="otilde" unicode="&#xf5;" horiz-adv-x="452" 
d="M155 596c0 24.667 13.168 50.499 39.501 77.499s52.833 40.5 79.5 40.5c15.333 0 29.166 -4 41.499 -12s21.5 -16.667 27.5 -26c16.667 -27.333 31 -42 43 -44c11.333 2 24.166 14.167 38.499 36.5s27.833 33.5 40.5 33.5c16.667 0 25 -11.5 25 -34.5
s-10.667 -46.833 -32 -71.5s-44.333 -37 -69 -37c-36.667 0 -73.667 29.333 -111 88c-15.333 -7.33301 -31.166 -22.666 -47.499 -45.999s-29.833 -35 -40.5 -35c-23.333 0 -35 10 -35 30zM333.001 340.999c0 22.667 -3.66699 44.168 -11 64.501s-18 35.166 -32 44.499
c-46 -12.667 -85.5 -48.167 -118.5 -106.5s-49.5 -113.166 -49.5 -164.499s12.667 -83.333 38 -96c48 9.33301 88.833 42.166 122.5 98.499s50.5 109.5 50.5 159.5zM161.501 460.5c37.667 33.667 76.332 50.5 115.999 50.5s72.834 -16.833 99.501 -50.5s40 -74.667 40 -123
s-11.667 -97.666 -35 -147.999s-55.5 -92 -96.5 -125s-84.5 -49.5 -130.5 -49.5c-34 0 -62.333 15.667 -85 47s-34 71.166 -34 119.499s11.5 98.5 34.5 150.5s53.333 94.833 91 128.5z" />
    <glyph glyph-name="odieresis" unicode="&#xf6;" horiz-adv-x="452" 
d="M333 341c0 22.667 -3.66699 44.168 -11 64.501s-18 35.166 -32 44.499c-46 -12.667 -85.5 -48.167 -118.5 -106.5s-49.5 -113.166 -49.5 -164.499s12.667 -83.333 38 -96c48 9.33301 88.833 42.166 122.5 98.499s50.5 109.5 50.5 159.5zM161.5 460.501
c37.667 33.667 76.332 50.5 115.999 50.5s72.834 -16.833 99.501 -50.5s40 -74.667 40 -123s-11.667 -97.666 -35 -147.999s-55.5 -92 -96.5 -125s-84.5 -49.5 -130.5 -49.5c-34 0 -62.333 15.667 -85 47s-34 71.166 -34 119.499s11.5 98.5 34.5 150.5
s53.333 94.833 91 128.5zM385.998 704.001c10.667 0 23 -13.001 37 -39.001s21 -44 21 -54s-2.83301 -17.833 -8.5 -23.5s-11.834 -8.5 -18.501 -8.5c-14.667 0 -31 8.66699 -49 26s-27 32.333 -27 45s4.83301 24.834 14.5 36.501s19.834 17.5 30.501 17.5zM234.998 704
c10.667 0 23 -13 37 -39s21 -44 21 -54s-2.83301 -17.833 -8.5 -23.5s-11.5 -8.5 -17.5 -8.5c-14.667 0 -31 8.66699 -49 26s-27 32.5 -27 45.5s4.66699 25.167 14 36.5s19.333 17 30 17z" />
    <glyph glyph-name="divide" unicode="&#xf7;" horiz-adv-x="600" 
d="M378 445c-16.667 0 -35.666 10.666 -56.999 31.999s-32 39.333 -32 54s5.83301 29.167 17.5 43.5s23.667 21.5 36 21.5s26.666 -16.333 42.999 -49s24.5 -57.667 24.5 -75c0 -5.33301 -3.66699 -11.166 -11 -17.499s-14.333 -9.5 -21 -9.5zM290.001 48.999
c-16.667 0 -35.666 10.6689 -56.999 32.002s-32 39.166 -32 53.499s5.83301 28.666 17.5 42.999s23.667 21.5 36 21.5s26.666 -16.167 42.999 -48.5s24.5 -56.833 24.5 -73.5c0 -5.33301 -3.66699 -11.333 -11 -18s-14.333 -10 -21 -10zM606.002 359.001
c0 -24.667 -54.5 -44 -163.5 -58s-222.5 -21 -340.5 -21c-16 0 -30.333 6.66699 -43 20s-19 27 -19 41s9 21 27 21c112 0 212.5 3.16699 301.5 9.5s145.5 9.5 169.5 9.5c45.333 0 68 -7.33301 68 -22z" />
    <glyph glyph-name="oslash" unicode="&#xf8;" horiz-adv-x="457" 
d="M444 343c0 -78 -28.8311 -152.166 -86.498 -222.499s-121.834 -105.5 -192.501 -105.5c-26.667 0 -52.334 11.333 -77.001 34c-22 -22.667 -38 -34 -48 -34c-13.333 0 -20 6.33301 -20 19c0 7.33301 12.333 26.666 37 57.999c-14 26.667 -21 55 -21 85
c0 50 12.667 100.833 38 152.5s59 94.834 101 129.501s85 52 129 52c32 0 60 -11.333 84 -34c26 24 47 36 63 36s24 -6.66699 24 -20c0 -10 -12 -28.667 -36 -56l-12 -14c11.333 -24.667 17 -51.334 17 -80.001zM113.002 167.001v-5l161 187.5c32.667 39 55 64.833 67 77.5
c-10 12 -21.667 19.667 -35 23c-48 -5.33301 -92.167 -39.833 -132.5 -103.5s-60.5 -123.5 -60.5 -179.5zM370.002 351.001l0.000976562 9.00195l-236 -262c9.33301 -11.333 19.666 -18.333 30.999 -21c35.333 1.33301 69.5 18.666 102.5 51.999s58.333 70.666 76 111.999
s26.5 78 26.5 110z" />
    <glyph glyph-name="ugrave" unicode="&#xf9;" horiz-adv-x="479" 
d="M392 505c2.66699 4 8.49902 6 17.499 6s20 -8.66699 33 -26s19.5 -34 19.5 -50c0 -8.66699 -14.667 -60 -44 -154l-68 -224c-8 -28 -19.333 -42 -34 -42c-8.66699 0 -16 3.66699 -22 11s-9 20.666 -9 39.999s7.66699 54.333 23 105
c-28 -45.333 -58.333 -82.666 -91 -111.999s-62.5 -44 -89.5 -44s-52.5 12.667 -76.5 38s-36 51.333 -36 78c0 63.333 18.5 142.5 55.5 237.5s67.833 142.5 92.5 142.5c11.333 0 21.5 -5.5 30.5 -16.5s13.5 -21.5 13.5 -31.5s-9 -33.667 -27 -71
c-53.333 -112 -80 -198.667 -80 -260c0 -10.667 3.33301 -19.5 10 -26.5s14.667 -10.5 24 -10.5c25.333 0 55.5 22.333 90.5 67s66.833 96.667 95.5 156s50 114.333 64 165c2.66699 10.667 5.33398 18 8.00098 22zM180.499 683c-1 2.66699 -1.5 7.99609 -1.5 15.9961
s5 18.167 15 30.5s19.5 18.5 28.5 18.5s16.333 -2.16699 22 -6.5s15 -13.666 28 -27.999l55 -58.5c23.667 -24.667 37 -40.167 40 -46.5s4.5 -12.666 4.5 -18.999s-2.83301 -12.5 -8.5 -18.5s-11.5 -9 -17.5 -9s-12.333 2.16699 -19 6.5s-16.5 11.5 -29.5 21.5l-30.5 23
l-24 17l-19 13l-15 10.5c-6 4.33301 -10.5 7.83301 -13.5 10.5s-6 5.83398 -9 9.50098s-5 6.83398 -6 9.50098z" />
    <glyph glyph-name="uacute" unicode="&#xfa;" horiz-adv-x="479" 
d="M472 733.5c8.66699 -12.333 13.002 -23.332 13.002 -32.999s-0.833008 -16.834 -2.5 -21.501s-5.66699 -9.66699 -12 -15s-11.833 -9.66602 -16.5 -12.999l-54 -35.5c-12.667 -8.33301 -23.334 -15.833 -32.001 -22.5s-15 -11.334 -19 -14.001
c-17.333 -11.333 -29.5 -17 -36.5 -17s-13 2.83301 -18 8.5s-7.5 13.167 -7.5 22.5s4.16699 19.333 12.5 30s20.5 23.834 36.5 39.501l38.5 37.5l22.5 22c5.33301 5.33301 11 10.666 17 15.999c11.333 9.33301 21.666 14 30.999 14s18.333 -6.16699 27 -18.5z
M392.002 505.001c2.66699 4 8.49902 6 17.499 6s20 -8.66699 33 -26s19.5 -34 19.5 -50c0 -8.66699 -14.667 -60 -44 -154l-68 -224c-8 -28 -19.333 -42 -34 -42c-8.66699 0 -16 3.66699 -22 11s-9 20.666 -9 39.999s7.66699 54.333 23 105
c-28 -45.333 -58.333 -82.666 -91 -111.999s-62.5 -44 -89.5 -44s-52.5 12.667 -76.5 38s-36 51.333 -36 78c0 63.333 18.5 142.5 55.5 237.5s67.833 142.5 92.5 142.5c11.333 0 21.5 -5.5 30.5 -16.5s13.5 -21.5 13.5 -31.5s-9 -33.667 -27 -71
c-53.333 -112 -80 -198.667 -80 -260c0 -10.667 3.33301 -19.5 10 -26.5s14.667 -10.5 24 -10.5c25.333 0 55.5 22.333 90.5 67s66.833 96.667 95.5 156s50 114.333 64 165c2.66699 10.667 5.33398 18 8.00098 22z" />
    <glyph glyph-name="ucircumflex" unicode="&#xfb;" horiz-adv-x="479" 
d="M392 505c2.66699 4 8.49902 6 17.499 6s20 -8.66699 33 -26s19.5 -34 19.5 -50c0 -8.66699 -14.667 -60 -44 -154l-68 -224c-8 -28 -19.333 -42 -34 -42c-8.66699 0 -16 3.66699 -22 11s-9 20.666 -9 39.999s7.66699 54.333 23 105
c-28 -45.333 -58.333 -82.666 -91 -111.999s-62.5 -44 -89.5 -44s-52.5 12.667 -76.5 38s-36 51.333 -36 78c0 63.333 18.5 142.5 55.5 237.5s67.833 142.5 92.5 142.5c11.333 0 21.5 -5.5 30.5 -16.5s13.5 -21.5 13.5 -31.5s-9 -33.667 -27 -71
c-53.333 -112 -80 -198.667 -80 -260c0 -10.667 3.33301 -19.5 10 -26.5s14.667 -10.5 24 -10.5c25.333 0 55.5 22.333 90.5 67s66.833 96.667 95.5 156s50 114.333 64 165c2.66699 10.667 5.33398 18 8.00098 22zM216.999 587c-13.333 -9.33301 -24.501 -14 -33.501 -14
s-16.667 3 -23 9s-9.5 15 -9.5 27c0 24 23 49 69 75c7.33301 4 16.333 9.33301 27 16l26 16l21 12c16 8 27.167 12 33.5 12s12.333 -1.66699 18 -5s10.167 -7 13.5 -11l16.5 -20.5c7.66699 -9.66699 13.5 -16.834 17.5 -21.501l20.5 -23
c9.66699 -10.667 16.5 -18.5 20.5 -23.5l15 -19.5c10.667 -13.333 16 -24 16 -32s-2.5 -14 -7.5 -18s-11.833 -6 -20.5 -6s-20.667 6.33301 -36 19s-27.333 24.334 -36 35.001l-39 49c-18.667 -9.33301 -38.167 -22 -58.5 -38s-37.166 -28.667 -50.499 -38z" />
    <glyph glyph-name="udieresis" unicode="&#xfc;" horiz-adv-x="479" 
d="M392 505c2.66699 4 8.49902 6 17.499 6s20 -8.66699 33 -26s19.5 -34 19.5 -50c0 -8.66699 -14.667 -60 -44 -154l-68 -224c-8 -28 -19.333 -42 -34 -42c-8.66699 0 -16 3.66699 -22 11s-9 20.666 -9 39.999s7.66699 54.333 23 105
c-28 -45.333 -58.333 -82.666 -91 -111.999s-62.5 -44 -89.5 -44s-52.5 12.667 -76.5 38s-36 51.333 -36 78c0 63.333 18.5 142.5 55.5 237.5s67.833 142.5 92.5 142.5c11.333 0 21.5 -5.5 30.5 -16.5s13.5 -21.5 13.5 -31.5s-9 -33.667 -27 -71
c-53.333 -112 -80 -198.667 -80 -260c0 -10.667 3.33301 -19.5 10 -26.5s14.667 -10.5 24 -10.5c25.333 0 55.5 22.333 90.5 67s66.833 96.667 95.5 156s50 114.333 64 165c2.66699 10.667 5.33398 18 8.00098 22zM265.999 579c-15.333 0 -31.833 8.66699 -49.5 26
s-26.5 32.5 -26.5 45.5s4.66699 25.167 14 36.5s19.333 17 30 17s23 -13 37 -39s21 -44 21 -54s-2.83301 -17.833 -8.5 -23.5s-11.5 -8.5 -17.5 -8.5zM415.999 579c-14.667 0 -31 8.66602 -49 25.999s-27 32.333 -27 45s4.83301 24.834 14.5 36.501s19.834 17.5 30.501 17.5
s23 -13 37 -39s21 -44 21 -54s-2.83301 -17.833 -8.5 -23.5s-11.834 -8.5 -18.501 -8.5z" />
    <glyph glyph-name="yacute" unicode="&#xfd;" horiz-adv-x="469" 
d="M496 733.5c8.66699 -12.333 12.999 -23.332 12.999 -32.999s-0.833008 -16.834 -2.5 -21.501s-5.66699 -9.66699 -12 -15s-11.833 -9.66602 -16.5 -12.999l-54 -35.5c-12.667 -8.33301 -23.334 -15.833 -32.001 -22.5s-15 -11.334 -19 -14.001
c-17.333 -11.333 -29.5 -17 -36.5 -17s-13 2.83301 -18 8.5s-7.5 13 -7.5 22s4.16699 18.833 12.5 29.5s20.5 23.834 36.5 39.501l39 38c10 9.66699 17.5 17.167 22.5 22.5s10.5 10.666 16.5 15.999c12.667 9.33301 23.334 14 32.001 14s17.334 -6.16699 26.001 -18.5z
M456.499 487.501c12.333 -15.667 18.5 -33.1689 18.5 -52.502c0 -13.333 -13.667 -58.666 -41 -135.999l-55.5 -157.5l-39 -110l-47.5 -133.5c-33.333 -95.333 -83.333 -143 -150 -143c-38 0 -74.333 11.5 -109 34.5s-52 46.833 -52 71.5
c0 9.33301 4.16699 19.666 12.5 30.999s15.5 17 21.5 17s15.667 -7.33301 29 -22c38.667 -44 71.667 -66 99 -66c20.667 0 39.334 18.167 56.001 54.5s32.5 77.333 47.5 123s23.333 70.834 25 75.501s3.66699 10.667 6 18l6.5 20c-47.333 -64.667 -94 -97 -140 -97
c-28 0 -53.833 13 -77.5 39s-35.5 56.667 -35.5 92s8.66699 83 26 143s37.666 112 60.999 156s42.333 66 57 66c12 0 23.167 -5.5 33.5 -16.5s15.5 -22.167 15.5 -33.5s-8.66699 -35 -26 -71c-54 -110.667 -81 -196.667 -81 -258c0 -10.667 3.33301 -19.5 10 -26.5
s14.667 -10.5 24 -10.5c24 0 52.667 21.333 86 64s64 93.334 92 152.001c23.333 49.333 47.666 112.333 72.999 189c2.66699 7.33301 9.33398 11 20.001 11s22.167 -7.83301 34.5 -23.5z" />
    <glyph glyph-name="thorn" unicode="&#xfe;" horiz-adv-x="526" 
d="M218 474c42.667 19.333 81.5 28.998 116.5 28.998s71.333 -19.667 109 -59s56.5 -80 56.5 -122s-17 -81.667 -51 -119s-73.667 -65.833 -119 -85.5s-84.5 -29.5 -117.5 -29.5s-58.833 7.33301 -77.5 22c-52.667 -206.667 -83.5 -310 -92.5 -310
s-19.833 7.16699 -32.5 21.5s-19 28.166 -19 41.499s14.333 77 43 191c84.667 340.667 127 561.334 127 662.001c0 10.667 1.5 18.334 4.5 23.001s9.5 7 19.5 7s22.5 -9.83301 37.5 -29.5s22.5 -41.667 22.5 -66s-9 -83.166 -27 -176.499zM193 161.998
c49.333 0 99.501 16.834 150.501 50.501s76.5 70.167 76.5 109.5c0 27.333 -9.33301 50.166 -28 68.499s-43.334 27.5 -74.001 27.5s-70.667 -15 -120 -45c-8.66699 -43.333 -24.667 -110.333 -48 -201c20 -6.66699 34.333 -10 43 -10z" />
    <glyph glyph-name="ydieresis" unicode="&#xff;" horiz-adv-x="469" 
d="M456.5 487.5c12.333 -15.667 18.5 -33.1689 18.5 -52.502c0 -13.333 -13.667 -58.666 -41 -135.999l-55.5 -157.5l-39 -110l-47.5 -133.5c-33.333 -95.333 -83.333 -143 -150 -143c-38 0 -74.333 11.5 -109 34.5s-52 46.833 -52 71.5
c0 9.33301 4.16699 19.666 12.5 30.999s15.5 17 21.5 17s15.667 -7.33301 29 -22c38.667 -44 71.667 -66 99 -66c20.667 0 39.334 18.167 56.001 54.5s32.5 77.333 47.5 123s23.333 70.834 25 75.501s3.66699 10.667 6 18l6.5 20c-47.333 -64.667 -94 -97 -140 -97
c-28 0 -53.833 13 -77.5 39s-35.5 56.667 -35.5 92s8.66699 83 26 143s37.666 112 60.999 156s42.333 66 57 66c12 0 23.167 -5.5 33.5 -16.5s15.5 -22.167 15.5 -33.5s-8.66699 -35 -26 -71c-54 -110.667 -81 -196.667 -81 -258c0 -10.667 3.33301 -19.5 10 -26.5
s14.667 -10.5 24 -10.5c24 0 52.667 21.333 86 64s64 93.334 92 152.001c23.333 49.333 47.666 112.333 72.999 189c2.66699 7.33301 9.33398 11 20.001 11s22.167 -7.83301 34.5 -23.5zM290 577.998c-14.667 0 -31 8.83105 -49 26.498s-27 32.834 -27 45.501
s4.83301 24.834 14.5 36.501s19.667 17.5 30 17.5s22.5 -13 36.5 -39s21 -44 21 -54s-2.83301 -18 -8.5 -24s-11.5 -9 -17.5 -9zM440 577.996c-14.667 0 -30.999 8.83105 -48.999 26.498s-27 32.834 -27 45.501s5 24.834 15 36.501s20.167 17.5 30.5 17.5s22.5 -13 36.5 -39
s21 -44 21 -54s-2.83301 -18 -8.5 -24s-11.834 -9 -18.501 -9z" />
    <glyph glyph-name="Amacron" unicode="&#x100;" horiz-adv-x="608" 
d="M564 363c0 -12.667 -29.332 -27.335 -87.999 -44.002c5.33301 -69.333 8 -128.333 8 -177c0 -84 -11 -126 -33 -126c-12 0 -21.167 7 -27.5 21s-11.166 38.333 -14.499 73c-10 119.333 -15.333 182 -16 188c-97.333 -25.333 -161.666 -42.666 -192.999 -51.999
c-58.667 -153.333 -93.5 -230 -104.5 -230s-22.667 6.5 -35 19.5s-18.5 26.833 -18.5 41.5c0 4.66699 19.333 52.334 58 143.001c-2 -0.666992 -7 -1 -15 -1s-17.167 4.33301 -27.5 13s-15.5 19.5 -15.5 32.5s33 30.167 99 51.5c10.667 24 21.5 50.833 32.5 80.5
s30.667 78.167 59 145.5s45.666 109 51.999 125s18.666 30.5 36.999 43.5s36.166 19.5 53.499 19.5c20.667 0 39.167 -33 55.5 -99s29.5 -147.667 39.5 -245c18.667 2 34.667 3 48 3c30.667 0 46 -8.66699 46 -26zM236.001 341.999c50 13.333 100 24 150 32
c-12 114 -23.667 199.333 -35 256c-34 -78.667 -72.333 -174.667 -115 -288zM255.001 798.999c-12.667 0 -24.833 5.83301 -36.5 17.5s-17.5 22.167 -17.5 31.5c0 18.667 58.667 28 176 28c63.333 0 107.5 -1.5 132.5 -4.5s37.5 -9.33301 37.5 -19s-10 -16.667 -30 -21
s-68 -10.833 -144 -19.5s-115.333 -13 -118 -13z" />
    <glyph glyph-name="amacron" unicode="&#x101;" horiz-adv-x="472" 
d="M373 655c63.333 0 107.501 -1.5 132.501 -4.5s37.5 -9.33301 37.5 -19s-9.83301 -16.667 -29.5 -21s-67.667 -10.833 -144 -19.5s-115.5 -13 -117.5 -13c-12.667 0 -24.834 5.66699 -36.501 17s-17.5 22 -17.5 32c0 18.667 58.333 28 175 28zM300.001 511
c30 0 57.667 -15.1689 83 -45.502s38 -57.666 38 -81.999s-8.33301 -49.166 -25 -74.499c8 -10 12 -18.667 12 -26c0 -18.667 -4.16699 -50.667 -12.5 -96s-13.333 -75 -15 -89s-3.16699 -25.167 -4.5 -33.5l-4 -24.5c-3.33301 -16.667 -9.66602 -25 -18.999 -25
c-24 0 -38.333 37.333 -43 112c-60 -74.667 -115 -112 -165 -112c-30.667 0 -60.834 13.167 -90.501 39.5s-44.5 53.5 -44.5 81.5c0 40 14.667 89.5 44 148.5s67.333 111.5 114 157.5s90.667 69 132 69zM346.001 334.998c0 62 -11.998 93 -35.998 93
c-26 0 -56.5 -18.5 -91.5 -55.5s-64.5 -78.833 -88.5 -125.5s-36 -83.667 -36 -111c0 -11.333 4.66699 -20.5 14 -27.5s20.333 -10.5 33 -10.5c31.333 0 66.666 21.167 105.999 63.5s66.666 93.833 81.999 154.5c2 10 7.66699 16 17 18v1z" />
    <glyph glyph-name="Abreve" unicode="&#x102;" horiz-adv-x="608" 
d="M564 363c0 -12.667 -29.332 -27.335 -87.999 -44.002c5.33301 -69.333 8 -128.333 8 -177c0 -84 -11 -126 -33 -126c-12 0 -21.167 7 -27.5 21s-11.166 38.333 -14.499 73c-10 119.333 -15.333 182 -16 188c-97.333 -25.333 -161.666 -42.666 -192.999 -51.999
c-58.667 -153.333 -93.5 -230 -104.5 -230s-22.667 6.5 -35 19.5s-18.5 26.833 -18.5 41.5c0 4.66699 19.333 52.334 58 143.001c-2 -0.666992 -7 -1 -15 -1s-17.167 4.33301 -27.5 13s-15.5 19.5 -15.5 32.5s33 30.167 99 51.5c10.667 24 21.5 50.833 32.5 80.5
s30.667 78.167 59 145.5s45.666 109 51.999 125s18.666 30.5 36.999 43.5s36.166 19.5 53.499 19.5c20.667 0 39.167 -33 55.5 -99s29.5 -147.667 39.5 -245c18.667 2 34.667 3 48 3c30.667 0 46 -8.66699 46 -26zM236.001 341.999c50 13.333 100 24 150 32
c-12 114 -23.667 199.333 -35 256c-34 -78.667 -72.333 -174.667 -115 -288zM501.501 824.499c-33.667 -24.333 -67.333 -36.499 -101 -36.499s-64.167 12 -91.5 36s-41 48.333 -41 73c0 16.667 4.83301 30 14.5 40s18.667 15 27 15s15.166 -5 20.499 -15s10.333 -21 15 -33
s12.667 -23 24 -33s24.833 -15 40.5 -15s29.834 3.16699 42.501 9.5s22.667 13.166 30 20.499c19.333 20.667 35 31 47 31c15.333 0 23 -7.66699 23 -23c0 -22 -16.833 -45.167 -50.5 -69.5z" />
    <glyph glyph-name="abreve" unicode="&#x103;" horiz-adv-x="472" 
d="M526 696c15.333 0 22.998 -7.66699 22.998 -23c0 -22 -17 -45.167 -51 -69.5s-67.833 -36.5 -101.5 -36.5s-64 11.833 -91 35.5s-40.5 48.167 -40.5 73.5c0 16.667 4.83301 30 14.5 40s19.834 15 30.501 15c7.33301 0 14 -8 20 -24s15 -32 27 -48s28.167 -24 48.5 -24
s37.833 5.16699 52.5 15.5s27.334 20.5 38.001 30.5s20.667 15 30 15zM299.998 511c30 0 57.667 -15.1689 83 -45.502s38 -57.666 38 -81.999s-8.33301 -49.166 -25 -74.499c8 -10 12 -18.667 12 -26c0 -18.667 -4.16699 -50.667 -12.5 -96s-13.333 -75 -15 -89
s-3.16699 -25.167 -4.5 -33.5l-4 -24.5c-3.33301 -16.667 -9.66602 -25 -18.999 -25c-24 0 -38.333 37.333 -43 112c-60 -74.667 -115 -112 -165 -112c-30.667 0 -60.834 13.167 -90.501 39.5s-44.5 53.5 -44.5 81.5c0 40 14.667 89.5 44 148.5s67.333 111.5 114 157.5
s90.667 69 132 69zM345.998 334.998c0 62 -11.998 93 -35.998 93c-26 0 -56.5 -18.5 -91.5 -55.5s-64.5 -78.833 -88.5 -125.5s-36 -83.667 -36 -111c0 -11.333 4.66699 -20.5 14 -27.5s20.333 -10.5 33 -10.5c31.333 0 66.666 21.167 105.999 63.5
s66.666 93.833 81.999 154.5c2 10 7.66699 16 17 18v1z" />
    <glyph glyph-name="Aogonek" unicode="&#x104;" horiz-adv-x="608" 
d="M564 363c0 -12.667 -29.3301 -27.3359 -87.9971 -44.0029c5.33301 -69.333 8 -130.166 8 -182.499s-4.33301 -87.5 -13 -105.5v-5c0 -14.667 -15.833 -35.167 -47.5 -61.5s-47.5 -46.833 -47.5 -61.5c0 -12.667 13 -19 39 -19c8 0 17.333 2 28 6s19 6 25 6s12 -3 18 -9
s9 -12.667 9 -20c0 -16 -12.833 -28.333 -38.5 -37s-50.334 -13 -74.001 -13s-44 6.5 -61 19.5s-25.5 30.333 -25.5 52s14.167 51 42.5 88s55.166 61.167 80.499 72.5c-3.33301 12 -6.66602 32.333 -9.99902 61c-10 119.333 -15.333 182 -16 188
c-97.333 -25.333 -161.666 -42.666 -192.999 -51.999c-58.667 -153.333 -93.5 -230 -104.5 -230s-22.667 6.5 -35 19.5s-18.5 26.833 -18.5 41.5c0 4.66699 19.333 52.334 58 143.001c-2 -0.666992 -7 -1 -15 -1s-17.167 4.33301 -27.5 13s-15.5 19.5 -15.5 32.5
s33 30.167 99 51.5c10.667 24 21.5 50.833 32.5 80.5s30.667 78.167 59 145.5s45.666 109 51.999 125s18.666 30.5 36.999 43.5s36.166 19.5 53.499 19.5c20.667 0 39.167 -33 55.5 -99s29.5 -147.667 39.5 -245c18.667 2 34.667 3 48 3c30.667 0 46 -8.66699 46 -26z
M236.003 341.998c50 13.333 100 24 150 32c-12 114 -23.667 199.333 -35 256c-34 -78.667 -72.333 -174.667 -115 -288z" />
    <glyph glyph-name="aogonek" unicode="&#x105;" horiz-adv-x="472" 
d="M275 -86c0 -12.667 13 -19.001 39 -19.001c8 0 17.333 2 28 6s19 6 25 6s12 -2.83301 18 -8.5s9 -12.167 9 -19.5c0 -16.667 -12.667 -29.167 -38 -37.5s-50 -12.5 -74 -12.5s-44.5 6.33301 -61.5 19s-25.5 27.667 -25.5 45c0 26.667 14.333 58.334 43 95.001
s56 60.667 82 72c-6 22 -9.33301 44.333 -10 67c-60 -74.667 -115 -112 -165 -112c-30.667 0 -60.834 13.167 -90.501 39.5s-44.5 53.5 -44.5 81.5c0 40 14.667 89.5 44 148.5s67.333 111.5 114 157.5s90.667 69 132 69c30 0 57.667 -15.167 83 -45.5s38 -57.666 38 -81.999
s-8.33301 -49.166 -25 -74.499c8 -10 12 -18.667 12 -26c0 -18.667 -4.16699 -50.834 -12.5 -96.501s-13.5 -75.834 -15.5 -90.501c-3.33301 -31.333 -6.66602 -52.333 -9.99902 -63c-2 -14 -18.333 -33.667 -49 -59s-46 -45.333 -46 -60zM346 334.999
c0 62 -11.998 93 -35.998 93c-26 0 -56.5 -18.5 -91.5 -55.5s-64.5 -78.833 -88.5 -125.5s-36 -83.667 -36 -111c0 -11.333 4.66699 -20.5 14 -27.5s20.333 -10.5 33 -10.5c31.333 0 66.666 21.167 105.999 63.5s66.666 93.833 81.999 154.5c2 10 7.66699 16 17 18v1z" />
    <glyph glyph-name="Cacute" unicode="&#x106;" horiz-adv-x="685" 
d="M490 792c-5.33301 5.33301 -7.99902 12.5 -7.99902 21.5s4 18.667 12 29s20.333 23.666 37 39.999l39.5 38.5l22.5 22c5.33301 5.33301 11 10.333 17 15c11.333 10 21.666 15 30.999 15s18.333 -6.16699 27 -18.5s13 -23.333 13 -33s-0.833008 -16.834 -2.5 -21.501
s-5.66699 -9.66699 -12 -15s-11.833 -9.66602 -16.5 -12.999l-54.5 -35.5c-13 -8.33301 -23.833 -15.666 -32.5 -21.999l-19 -14c-4 -3 -8.66699 -5.83301 -14 -8.5c-8 -5.33301 -15.333 -8 -22 -8s-12.667 2.66699 -18 8zM471.001 718
c16.667 0 34.167 -11.001 52.5 -33.001s27.5 -40.167 27.5 -54.5s-2.33301 -21.5 -7 -21.5s-14 2.5 -28 7.5s-27 7.5 -39 7.5c-34.667 0 -77.167 -21.667 -127.5 -65s-94.666 -98.166 -132.999 -164.499s-57.5 -127.5 -57.5 -183.5c0 -30.667 9.33301 -54.5 28 -71.5
s43.5 -25.5 74.5 -25.5s62.833 4.5 95.5 13.5s59 19.167 79 30.5c54 28.667 83.667 43 89 43c11.333 0 17 -7.5 17 -22.5s-15.333 -35 -46 -60s-68.667 -47.5 -114 -67.5s-86 -30 -122 -30c-46.667 0 -90.667 20.167 -132 60.5s-62 84.833 -62 133.5
c0 62.667 20.5 133.5 61.5 212.5s93.667 147.167 158 204.5s126.166 86 185.499 86z" />
    <glyph glyph-name="cacute" unicode="&#x107;" horiz-adv-x="447" 
d="M86.5 60.5c-34.333 30.333 -51.4971 66.3301 -51.4971 107.997s14 89.834 42 144.501s64.333 101.334 109 140.001s88 58 130 58c27.333 0 51.166 -12.167 71.499 -36.5s30.5 -44.5 30.5 -60.5s-5.33301 -24 -16 -24c-8 0 -20 6 -36 18s-30.333 18 -43 18
c-36 0 -78 -31.667 -126 -95s-72 -118.666 -72 -165.999c0 -20.667 6.5 -37 19.5 -49s34 -18 63 -18s55.667 3.5 80 10.5s43.166 14 56.499 21s23.666 10.5 30.999 10.5c12.667 0 19 -6.33301 19 -19c0 -19.333 -23.167 -41.833 -69.5 -67.5s-89 -38.5 -128 -38.5
s-75.667 15.167 -110 45.5zM302.503 570.497c-5 5.66699 -7.49805 13.168 -7.49805 22.501s4.16699 19.333 12.5 30s20.5 23.834 36.5 39.501l38.5 37.5l22.5 22c5.33301 5.33301 11 10.666 17 15.999c11.333 9.33301 21.666 14 30.999 14s18.333 -6.16699 27 -18.5
s13 -23.333 13 -33s-0.833008 -16.834 -2.5 -21.501s-5.66699 -9.66699 -12 -15s-11.833 -9.66602 -16.5 -12.999l-54 -35.5c-12.667 -8.33301 -23.334 -15.833 -32.001 -22.5s-15 -11.334 -19 -14.001c-16.667 -11.333 -28.667 -17 -36 -17s-13.5 2.83301 -18.5 8.5z" />
    <glyph glyph-name="Ccaron" unicode="&#x10c;" horiz-adv-x="692" 
d="M646 943c19.333 0 28.9971 -8.66895 28.9971 -26.002c0 -9.33301 -3.66699 -17.666 -11 -24.999s-20.666 -17.166 -39.999 -29.499s-33 -21.5 -41 -27.5s-19 -15 -33 -27c-26.667 -22.667 -44.334 -34 -53.001 -34c-13.333 0 -41.666 21.5 -84.999 64.5
s-65 76.833 -65 101.5c0 10.667 2.83301 19.5 8.5 26.5s13.334 10.5 23.001 10.5s19.167 -5.66699 28.5 -17l39 -49.5c16.667 -21.667 35.667 -40.834 57 -57.501c33.333 30.667 62.833 53.334 88.5 68.001s43.834 22 54.501 22zM470.997 717.998
c16.667 0 34.167 -11.001 52.5 -33.001s27.5 -40.167 27.5 -54.5s-2.33301 -21.5 -7 -21.5s-14 2.5 -28 7.5s-27 7.5 -39 7.5c-34.667 0 -77.167 -21.667 -127.5 -65s-94.666 -98.166 -132.999 -164.499s-57.5 -127.5 -57.5 -183.5c0 -30.667 9.33301 -54.5 28 -71.5
s43.5 -25.5 74.5 -25.5s62.833 4.5 95.5 13.5s59 19.167 79 30.5c54 28.667 83.667 43 89 43c11.333 0 17 -7.5 17 -22.5s-15.333 -35 -46 -60s-68.667 -47.5 -114 -67.5s-86 -30 -122 -30c-46.667 0 -90.667 20.167 -132 60.5s-62 84.833 -62 133.5
c0 62.667 20.5 133.5 61.5 212.5s93.667 147.167 158 204.5s126.166 86 185.499 86z" />
    <glyph glyph-name="ccaron" unicode="&#x10d;" horiz-adv-x="447" 
d="M86.5 60.5c-34.333 30.333 -51.4971 66.3301 -51.4971 107.997s14 89.834 42 144.501s64.333 101.334 109 140.001s88 58 130 58c27.333 0 51.166 -12.167 71.499 -36.5s30.5 -44.5 30.5 -60.5s-5.33301 -24 -16 -24c-8 0 -20 6 -36 18s-30.333 18 -43 18
c-36 0 -78 -31.667 -126 -95s-72 -118.666 -72 -165.999c0 -20.667 6.5 -37 19.5 -49s34 -18 63 -18s55.667 3.5 80 10.5s43.166 14 56.499 21s23.666 10.5 30.999 10.5c12.667 0 19 -6.33301 19 -19c0 -19.333 -23.167 -41.833 -69.5 -67.5s-89 -38.5 -128 -38.5
s-75.667 15.167 -110 45.5zM458.003 721.997c20 0 29.999 -8.66602 29.999 -25.999c0 -9.33301 -3.83301 -17.833 -11.5 -25.5s-21.167 -17.5 -40.5 -29.5s-33 -21 -41 -27s-18.667 -14.833 -32 -26.5s-24 -20.334 -32 -26.001s-15.333 -8.5 -22 -8.5
c-13.333 0 -41.666 21.5 -84.999 64.5s-65 76.833 -65 101.5c0 10.667 3 19.5 9 26.5s13.667 10.5 23 10.5s18.666 -5.66699 27.999 -17l39 -49.5c16.667 -21.667 35.667 -40.834 57 -57.501c33.333 30.667 62.833 53.334 88.5 68.001s43.834 22 54.501 22z" />
    <glyph glyph-name="Dcaron" unicode="&#x10e;" horiz-adv-x="645" 
d="M604 889c19.333 0 28.998 -8.33203 28.998 -24.999c0 -9.33301 -3.83301 -17.833 -11.5 -25.5s-21.167 -17.5 -40.5 -29.5s-33 -21 -41 -27s-18.667 -14.833 -32 -26.5s-24 -20.334 -32 -26.001s-15.333 -8.5 -22 -8.5c-13.333 0 -41.666 21.5 -84.999 64.5
s-65 76.833 -65 101.5c0 10 3 18.5 9 25.5s13.833 10.5 23.5 10.5s19.167 -5.66699 28.5 -17l39.5 -49.5c17 -21.667 35.833 -40.834 56.5 -57.501c33.333 30.667 62.833 53.334 88.5 68.001s43.834 22 54.501 22zM150.998 721.001c62.667 0 129.5 -16.332 200.5 -48.999
s132.167 -77.834 183.5 -135.501s77 -117.5 77 -179.5c0 -40.667 -28.167 -88.5 -84.5 -143.5s-121.5 -102 -195.5 -141s-135.333 -58.5 -184 -58.5c-12.667 0 -27.167 10.833 -43.5 32.5s-24.5 43.667 -24.5 66s19.333 102.833 58 241.5s59.667 230 63 274
c-21.333 8.66699 -38.333 20 -51 34s-19 27.333 -19 40s6.66699 19 20 19zM519.998 368.002c0 41.333 -24.667 86.1699 -74 134.503s-106.666 83.166 -171.999 104.499c3.33301 -12 5 -26.167 5 -42.5s-5.83301 -46.833 -17.5 -91.5s-32.834 -119.334 -63.501 -224.001
c-12.667 -44 -23 -92.333 -31 -145c46 6 97.5 26.167 154.5 60.5s104.333 71.166 142 110.499s56.5 70.333 56.5 93z" />
    <glyph glyph-name="dcaron" unicode="&#x10f;" horiz-adv-x="732" 
d="M622 762c11.333 9.33301 24.667 14.0039 40 14.0039s30.833 -7.16699 46.5 -21.5s23.5 -31.5 23.5 -51.5c0 -34 -16.833 -65.5 -50.5 -94.5s-63.5 -43.5 -89.5 -43.5c-14.667 0 -22 5.66699 -22 17c0 9.33301 13.5 24.666 40.5 45.999s42.5 40 46.5 56
c-4.66699 7.33301 -14.5 14.666 -29.5 21.999s-22.5 16.166 -22.5 26.499s5.66699 20.166 17 29.499zM485.001 791.004c11.333 0 24.666 -9.83594 39.999 -29.5029s23 -38.167 23 -55.5s-8.16699 -66.666 -24.5 -147.999s-35.5 -165 -57.5 -251
c-48 -194.667 -79.667 -292 -95 -292c-9.33301 0 -19.5 5.66699 -30.5 17s-16.5 22.5 -16.5 33.5s2.66699 28.167 8 51.5c-65.333 -68 -123 -102 -173 -102c-29.333 0 -55.666 13.333 -78.999 40s-35 54.334 -35 83.001c0 41.333 11.167 90.5 33.5 147.5
s54.5 108.833 96.5 155.5s86.333 70 133 70s80 -28.333 100 -85c34 146.667 52.667 258.334 56 335.001c0 20 7 30 21 30zM375.001 300.001c0 36 -6.16602 66.333 -18.499 91s-27.166 37 -44.499 37c-28.667 0 -57.834 -17.667 -87.501 -53s-53.334 -75.833 -71.001 -121.5
s-26.5 -85.167 -26.5 -118.5c0 -12 4.33301 -21.667 13 -29s19 -11 31 -11c25.333 0 60.333 18.667 105 56s77 81.333 97 132l2 9v8z" />
    <glyph glyph-name="Dcroat" unicode="&#x110;" horiz-adv-x="625" 
d="M153.5 662c-13 14 -19.5 27.333 -19.5 40s6.66699 19 20 19c46.667 0 97 -10 151 -30s104 -46.167 150 -78.5s84.333 -71.333 115 -117s46 -90.334 46 -134.001s-28.167 -93 -84.5 -148s-121.5 -102 -195.5 -141s-135.667 -58.5 -185 -58.5
c-12.667 0 -27.167 10.833 -43.5 32.5s-24.5 42.834 -24.5 63.501s12 75.334 36 164.001c-33.333 -4 -54.833 -6 -64.5 -6s-19.834 3.66699 -30.501 11s-16 17.666 -16 30.999c0 20.667 36 34.667 108 42l26 3c38.667 142.667 59.334 233.667 62.001 273
c-20.667 8.66699 -37.5 20 -50.5 34zM524 368c0 41.333 -24.832 86.168 -74.499 134.501s-107.167 83.166 -172.5 104.499c3.33301 -12 5 -23.333 5 -34c0 -30 -15.333 -98.667 -46 -206c26.667 2.66699 41 4 43 4c22.667 0 41.5 -3.83301 56.5 -11.5
s22.5 -18.167 22.5 -31.5c0 -9.33301 -11.333 -16.666 -34 -21.999c-27.333 -7.33301 -64.333 -13.333 -111 -18l-11 -39c-10.667 -32.667 -21.334 -81 -32.001 -145c46 6 97.5 26.167 154.5 60.5s104.5 71.166 142.5 110.499s57 70.333 57 93z" />
    <glyph glyph-name="dcroat" unicode="&#x111;" horiz-adv-x="508" 
d="M371 15c-9.33301 0 -19.499 5.66992 -30.499 17.0029s-16.5 22.333 -16.5 33s2.66699 27.667 8 51c-67.333 -67.333 -125 -101 -173 -101c-29.333 0 -55.666 13.333 -78.999 40s-35 54.334 -35 83.001c0 41.333 11.167 90.5 33.5 147.5s54.5 108.833 96.5 155.5
s86.333 70 133 70s80 -28 100 -84c14 59.333 25.333 112.333 34 159c-15.333 -2.66699 -29 -3.83398 -41 -3.50098s-23.833 6.16602 -35.5 17.499s-17.5 21.666 -17.5 30.999c0 15.333 35.333 24.333 106 27c6 43.333 9.16699 76.333 9.5 99s7.5 34 21.5 34
c11.333 0 24.666 -9.83301 39.999 -29.5s23 -38.834 23 -57.501c0 -8 -2 -23 -6 -45c56.667 0 96 -1.5 118 -4.5s33 -9.33301 33 -19s-10 -16.667 -30 -21s-61.667 -9.83301 -125 -16.5l-7 -1c-14.667 -80 -36.334 -176.667 -65.001 -290
c-48 -194.667 -79.667 -292 -95 -292zM375.001 300.003c0 36 -6.16699 66.333 -18.5 91s-27.166 37 -44.499 37c-28.667 0 -57.834 -17.667 -87.501 -53s-53.334 -75.833 -71.001 -121.5s-26.5 -85.167 -26.5 -118.5c0 -12 4.33301 -21.667 13 -29s19 -11 31 -11
c24.667 0 59.334 18.5 104.001 55.5s77 80.5 97 130.5l3 12v7z" />
    <glyph glyph-name="Emacron" unicode="&#x112;" horiz-adv-x="585" 
d="M208 333c-36 -114 -54.001 -182.999 -54.001 -206.999c0 -8 2.5 -14.5 7.5 -19.5s11.5 -7.5 19.5 -7.5c76.667 0 161.334 12.333 254.001 37c30 8 47.333 12 52 12c10 0 15 -7 15 -21c0 -24 -36.833 -48.667 -110.5 -74s-144.834 -38 -213.501 -38
c-30.667 0 -57.5 9 -80.5 27s-34.5 40.667 -34.5 68s9.83301 74 29.5 140s39.5 136.333 59.5 211s30 137.667 30 189c0 7.33301 1.33301 15 4 23c11.333 24.667 84 37 218 37s201 -9.66699 201 -29c0 -13.333 -14.333 -22.333 -43 -27
c-24 -4.66699 -55.833 -8.83398 -95.5 -12.501s-67.5 -6.33398 -83.5 -8.00098s-54.667 -7.83398 -116 -18.501v-3c0 -45.333 -12.333 -113.666 -37 -204.999c4 -0.666992 17.5 -1 40.5 -1s53.833 1.66699 92.5 5s67.834 5 87.501 5s29.5 -4.66699 29.5 -14
c0 -23.333 -27.333 -40.666 -82 -51.999s-118 -17 -190 -17zM292.999 799.001c-12.667 0 -24.833 5.83301 -36.5 17.5s-17.5 22.167 -17.5 31.5c0 18.667 58.333 28 175 28c63.333 0 107.5 -1.5 132.5 -4.5s37.5 -9.33301 37.5 -19s-10 -16.667 -30 -21
s-68 -10.833 -144 -19.5s-115 -13 -117 -13z" />
    <glyph glyph-name="emacron" unicode="&#x113;" horiz-adv-x="438" 
d="M297 655c63.333 0 107.5 -1.5 132.5 -4.5s37.5 -9.33301 37.5 -19s-10 -16.667 -30 -21s-68 -10.833 -144 -19.5s-115 -13 -117 -13c-13.333 0 -25.833 5.66699 -37.5 17s-17.5 22 -17.5 32c0 18.667 58.667 28 176 28zM151.5 458c40.333 35.333 80.1689 53 119.502 53
s75.166 -18.667 107.499 -56s48.5 -73.833 48.5 -109.5s-19.333 -64.667 -58 -87s-82.167 -33.5 -130.5 -33.5s-91.833 5.33301 -130.5 16c-9.33301 -29.333 -14 -55.5 -14 -78.5s7.16699 -40.833 21.5 -53.5s37.833 -19 70.5 -19s66.5 5.83301 101.5 17.5
s54.167 17.5 57.5 17.5c17.333 0 26 -6.66699 26 -20c0 -18 -20.167 -37.5 -60.5 -58.5s-79.833 -31.5 -118.5 -31.5c-52 0 -94.5 15.5 -127.5 46.5s-49.5 70.167 -49.5 117.5s12.667 96.833 38 148.5s58.166 95.167 98.499 130.5zM130.003 297
c30 -5.33301 61.3311 -7.99902 93.998 -7.99902s61.667 5.5 87 16.5s38 25.5 38 43.5s-8.16699 36.333 -24.5 55s-32.5 28 -48.5 28c-25.333 0 -51.166 -12.833 -77.499 -38.5s-49.166 -57.834 -68.499 -96.501z" />
    <glyph glyph-name="Edotaccent" unicode="&#x116;" horiz-adv-x="585" 
d="M208 333c-36 -114 -54.001 -182.999 -54.001 -206.999c0 -8 2.5 -14.5 7.5 -19.5s11.5 -7.5 19.5 -7.5c76.667 0 161.334 12.333 254.001 37c30 8 47.333 12 52 12c10 0 15 -7 15 -21c0 -24 -36.833 -48.667 -110.5 -74s-144.834 -38 -213.501 -38
c-30.667 0 -57.5 9 -80.5 27s-34.5 40.667 -34.5 68s9.83301 74 29.5 140s39.5 136.333 59.5 211s30 137.667 30 189c0 7.33301 1.33301 15 4 23c11.333 24.667 84 37 218 37s201 -9.66699 201 -29c0 -13.333 -14.333 -22.333 -43 -27
c-24 -4.66699 -55.833 -8.83398 -95.5 -12.501s-67.5 -6.33398 -83.5 -8.00098s-54.667 -7.83398 -116 -18.501v-3c0 -45.333 -12.333 -113.666 -37 -204.999c4 -0.666992 17.5 -1 40.5 -1s53.833 1.66699 92.5 5s67.834 5 87.501 5s29.5 -4.66699 29.5 -14
c0 -23.333 -27.333 -40.666 -82 -51.999s-118 -17 -190 -17zM440.999 788.001c-14 0 -30.5 9.00098 -49.5 27.001s-28.5 33.5 -28.5 46.5s5.16699 25.833 15.5 38.5s21 19 32 19s23.5 -14.167 37.5 -42.5s21 -49.833 21 -64.5c0 -4.66699 -3.16699 -9.83398 -9.5 -15.501
s-12.5 -8.5 -18.5 -8.5z" />
    <glyph glyph-name="edotaccent" unicode="&#x117;" horiz-adv-x="438" 
d="M369 258.5c-38.667 -22.333 -82.1641 -33.5 -130.497 -33.5s-91.833 5.33301 -130.5 16c-9.33301 -29.333 -14 -55.5 -14 -78.5s7.16699 -40.833 21.5 -53.5s37.833 -19 70.5 -19s66.5 5.83301 101.5 17.5s54.167 17.5 57.5 17.5c17.333 0 26 -6.66699 26 -20
c0 -18 -20.167 -37.5 -60.5 -58.5s-79.833 -31.5 -118.5 -31.5c-52 0 -94.5 15.5 -127.5 46.5s-49.5 70.167 -49.5 117.5s12.667 96.833 38 148.5s58.166 95.167 98.499 130.5s80.166 53 119.499 53s75.166 -18.667 107.499 -56s48.5 -73.833 48.5 -109.5
s-19.333 -64.667 -58 -87zM276.003 432c-25.333 0 -51.168 -12.832 -77.501 -38.499s-49.166 -57.834 -68.499 -96.501c30 -5.33301 61.333 -8 94 -8s61.667 5.5 87 16.5s38 25.5 38 43.5s-8.16699 36.333 -24.5 55s-32.5 28 -48.5 28zM323.001 567.001
c-14 0 -30.501 9.00098 -49.501 27.001s-28.5 33.5 -28.5 46.5s5.33301 25.833 16 38.5s21.334 19 32.001 19s23 -14.167 37 -42.5s21 -49.833 21 -64.5c0 -4.66699 -3.16699 -9.83398 -9.5 -15.501s-12.5 -8.5 -18.5 -8.5z" />
    <glyph glyph-name="Eogonek" unicode="&#x118;" horiz-adv-x="585" 
d="M208 333c-36 -114 -54.0029 -182.997 -54.0029 -206.997c0 -8 2.5 -14.5 7.5 -19.5s11.5 -7.5 19.5 -7.5c76.667 0 161.334 12.333 254.001 37c30 8 46.667 12 50 12s6.33301 -0.666992 9 -2c17.333 -2.66699 26 -11.334 26 -26.001s-15.833 -35.167 -47.5 -61.5
s-47.5 -46.833 -47.5 -61.5c0 -12.667 13 -19 39 -19c8 0 17.333 1.83301 28 5.5s19 5.5 25 5.5s12 -2.83301 18 -8.5s9 -12.167 9 -19.5c0 -16 -13 -28.333 -39 -37s-50.667 -13 -74 -13s-43.666 6.5 -60.999 19.5s-26 28.667 -26 47s8.66699 41.166 26 68.499
c-68.667 -20.667 -132.667 -31 -192 -31c-30.667 0 -57.5 9 -80.5 27s-34.5 40.667 -34.5 68s9.83301 74 29.5 140s39.5 136.333 59.5 211s30 137.667 30 189c0 7.33301 1.33301 15 4 23c11.333 24.667 84 37 218 37s201 -9.66699 201 -29
c0 -13.333 -14.333 -22.333 -43 -27c-24 -4.66699 -55.833 -8.83398 -95.5 -12.501s-67.5 -6.33398 -83.5 -8.00098s-54.667 -7.83398 -116 -18.501v-3c0 -45.333 -12.333 -113.666 -37 -204.999c4 -0.666992 17.5 -1 40.5 -1s53.833 1.66699 92.5 5s67.834 5 87.501 5
s29.5 -4.66699 29.5 -14c0 -23.333 -27.333 -40.666 -82 -51.999s-118 -17 -190 -17z" />
    <glyph glyph-name="eogonek" unicode="&#x119;" horiz-adv-x="438" 
d="M345 125l4.00293 -0.00195312c8 0 15.333 -2.5 22 -7.5s10 -11.5 10 -19.5c0 -15.333 -15.667 -36.166 -47 -62.499s-47 -46.833 -47 -61.5c0 -12.667 12.667 -19 38 -19c8 0 17.333 2 28 6s19 6 25 6s12 -3 18 -9s9 -12.667 9 -20c0 -16 -12.667 -28.167 -38 -36.5
s-50 -12.5 -74 -12.5s-44.5 6.33301 -61.5 19s-25.5 27.834 -25.5 45.501s7.66699 39.167 23 64.5c-12.667 -2 -25 -3 -37 -3c-52 0 -94.5 15.5 -127.5 46.5s-49.5 70.167 -49.5 117.5s12.667 96.833 38 148.5s58.166 95.167 98.499 130.5s80.166 53 119.499 53
s75.166 -18.667 107.499 -56s48.5 -73.833 48.5 -109.5s-19.333 -64.667 -58 -87s-82.167 -33.5 -130.5 -33.5s-91.833 5.33301 -130.5 16c-9.33301 -29.333 -14 -55.5 -14 -78.5s7.16699 -40.833 21.5 -53.5s37.833 -19 70.5 -19s66.5 5.83301 101.5 17.5
s54.167 17.5 57.5 17.5zM276.003 431.998c-25.333 0 -51.168 -12.832 -77.501 -38.499s-49.166 -57.834 -68.499 -96.501c30 -5.33301 61.333 -8 94 -8s61.667 5.5 87 16.5s38 25.5 38 43.5s-8.16699 36.333 -24.5 55s-32.5 28 -48.5 28z" />
    <glyph glyph-name="Ecaron" unicode="&#x11a;" horiz-adv-x="585" 
d="M208 333c-36 -114 -54.001 -182.999 -54.001 -206.999c0 -8 2.5 -14.5 7.5 -19.5s11.5 -7.5 19.5 -7.5c76.667 0 161.334 12.333 254.001 37c30 8 47.333 12 52 12c10 0 15 -7 15 -21c0 -24 -36.833 -48.667 -110.5 -74s-144.834 -38 -213.501 -38
c-30.667 0 -57.5 9 -80.5 27s-34.5 40.667 -34.5 68s9.83301 74 29.5 140s39.5 136.333 59.5 211s30 137.667 30 189c0 7.33301 1.33301 15 4 23c11.333 24.667 84 37 218 37s201 -9.66699 201 -29c0 -13.333 -14.333 -22.333 -43 -27
c-24 -4.66699 -55.833 -8.83398 -95.5 -12.501s-67.5 -6.33398 -83.5 -8.00098s-54.667 -7.83398 -116 -18.501v-3c0 -45.333 -12.333 -113.666 -37 -204.999c4 -0.666992 17.5 -1 40.5 -1s53.833 1.66699 92.5 5s67.834 5 87.501 5s29.5 -4.66699 29.5 -14
c0 -23.333 -27.333 -40.666 -82 -51.999s-118 -17 -190 -17zM405.999 774.001c-13.333 0 -41.6699 21.499 -85.0029 64.499s-65 76.833 -65 101.5c0 10.667 2.83301 19.5 8.5 26.5s13.334 10.5 23.001 10.5s19.167 -5.66699 28.5 -17l39 -49.5
c16.667 -21.667 35.667 -40.834 57 -57.501c33.333 30.667 62.833 53.334 88.5 68.001s43.834 22 54.501 22c19.333 0 29 -8.66699 29 -26c0 -9.33301 -3.66699 -17.666 -11 -24.999s-20.666 -17.166 -39.999 -29.499s-33 -21.5 -41 -27.5s-18.667 -14.833 -32 -26.5
s-24 -20.334 -32 -26.001s-15.333 -8.5 -22 -8.5z" />
    <glyph glyph-name="ecaron" unicode="&#x11b;" horiz-adv-x="438" 
d="M438 722c19.333 0 28.9971 -8.66602 28.9971 -25.999c0 -9.33301 -3.83301 -17.833 -11.5 -25.5s-21.167 -17.5 -40.5 -29.5s-33 -21 -41 -27s-18.667 -14.833 -32 -26.5s-24 -20.334 -32 -26.001s-15.333 -8.5 -22 -8.5c-13.333 0 -41.666 21.5 -84.999 64.5
s-65 76.833 -65 101.5c0 10.667 3 19.5 9 26.5s13.667 10.5 23 10.5s18.833 -5.66699 28.5 -17s22.834 -27.833 39.501 -49.5s35.667 -40.834 57 -57.501c33.333 30.667 62.833 53.334 88.5 68.001s43.834 22 54.501 22zM151.497 458.001
c40.333 35.333 80.1689 53 119.502 53s75.166 -18.667 107.499 -56s48.5 -73.833 48.5 -109.5s-19.333 -64.667 -58 -87s-82.167 -33.5 -130.5 -33.5s-91.833 5.33301 -130.5 16c-9.33301 -29.333 -14 -55.5 -14 -78.5s7.16699 -40.833 21.5 -53.5s37.833 -19 70.5 -19
s66.5 5.83301 101.5 17.5s54.167 17.5 57.5 17.5c17.333 0 26 -6.66699 26 -20c0 -18 -20.167 -37.5 -60.5 -58.5s-79.833 -31.5 -118.5 -31.5c-52 0 -94.5 15.5 -127.5 46.5s-49.5 70.167 -49.5 117.5s12.667 96.833 38 148.5s58.166 95.167 98.499 130.5zM130 297.001
c30 -5.33301 61.3311 -7.99902 93.998 -7.99902s61.667 5.5 87 16.5s38 25.5 38 43.5s-8.16699 36.333 -24.5 55s-32.5 28 -48.5 28c-25.333 0 -51.166 -12.833 -77.499 -38.5s-49.166 -57.834 -68.499 -96.501z" />
    <glyph glyph-name="Gbreve" unicode="&#x11e;" horiz-adv-x="611" 
d="M654 910c15.333 0 23 -7.66699 23 -23c0 -22 -16.833 -45.167 -50.5 -69.5s-67.334 -36.5 -101.001 -36.5s-64.167 12 -91.5 36s-41 48.333 -41 73c0 16.667 4.83301 30 14.5 40s18.667 15 27 15s15.166 -5 20.499 -15s10.333 -21 15 -33s12.667 -23 24 -33
s25.833 -15 43.5 -15s33.834 5.16699 48.501 15.5s27.334 20.5 38.001 30.5s20.667 15 30 15zM453 717c18.667 0 36.999 -11.168 54.999 -33.501s27 -40.333 27 -54s-3.66699 -20.5 -11 -20.5c-2 0 -9.33301 2.5 -22 7.5s-26.334 7.5 -41.001 7.5
c-42 0 -88.5 -23 -139.5 -69s-94.5 -103.5 -130.5 -172.5s-54 -133.167 -54 -192.5c0 -24 7.66699 -44.5 23 -61.5s33.333 -25.5 54 -25.5c32 0 69.5 17.5 112.5 52.5s82.833 80.167 119.5 135.5c-37.333 -10 -65 -15 -83 -15s-33.333 4.83301 -46 14.5
s-19 18.834 -19 27.501c0 10.667 14.333 19.167 43 25.5s64.667 9.5 108 9.5c24 0 43.5 -10.167 58.5 -30.5s22.5 -44 22.5 -71s-16.667 -90.5 -50 -190.5s-58.5 -150 -75.5 -150s-25.5 9.66699 -25.5 29c0 18.667 4.83301 44 14.5 76l30.5 98.5l26 82.5
c-32.667 -55.333 -69.667 -99.166 -111 -131.499s-81.5 -48.5 -120.5 -48.5s-77.5 18.167 -115.5 54.5s-57 76.166 -57 119.499c0 67.333 21.333 142.333 64 225s96.334 153.5 161.001 212.5s125.334 88.5 182.001 88.5z" />
    <glyph glyph-name="gbreve" unicode="&#x11f;" horiz-adv-x="471" 
d="M498 696c15.333 0 23.001 -7.66699 23.001 -23c0 -22 -16.833 -45.167 -50.5 -69.5s-67.334 -36.5 -101.001 -36.5s-64.167 12 -91.5 36s-41 48.333 -41 73c0 16.667 4.83301 30 14.5 40s18.667 15 27 15s15.166 -5 20.499 -15s10.333 -21 15 -33s12.667 -23 24 -33
s25.833 -15 43.5 -15s34 5.16699 49 15.5s27.833 20.5 38.5 30.5s20.334 15 29.001 15zM423.001 285c0 -26.667 -11.6709 -57.002 -35.0039 -91.002c-18 -40.667 -37.333 -99.167 -58 -175.5s-38 -130.833 -52 -163.5c-28 -68 -71 -102 -129 -102
c-46.667 0 -86.334 12.833 -119.001 38.5s-49 51.167 -49 76.5c0 10 3.33301 20.5 10 31.5s13.5 16.5 20.5 16.5s14.667 -5 23 -15s16.333 -20.833 24 -32.5s19.334 -22.5 35.001 -32.5s30.834 -15 45.501 -15s25.667 2.16699 33 6.5s14.333 11.333 21 21
s12.334 19.334 17.001 29.001s9.83398 23.334 15.501 41.001s10.167 32.834 13.5 45.501l14 53.5c6 23 11 41.5 15 55.5c-52 -38.667 -94.167 -58 -126.5 -58s-60.666 13.167 -84.999 39.5s-36.5 54.166 -36.5 83.499c0 40.667 13.333 90 40 148s62.167 110 106.5 156
s87.833 69 130.5 69c27.333 0 50.333 -10.333 69 -31c30.667 -34 46 -82.333 46 -145c0 -8 -0.333008 -13.667 -1 -17c8 -10 12 -21 12 -33zM100.997 135.998c0 -11.333 3.6709 -20.5 11.0039 -27.5s16.666 -10.5 27.999 -10.5c32.667 0 71.667 19.833 117 59.5
s77.666 85.5 96.999 137.5c-2.66699 11.333 -5 25.5 -7 42.5s-4 30.833 -6 41.5s-6.33301 21.5 -13 32.5s-15.334 16.5 -26.001 16.5c-38.667 0 -81.834 -37.333 -129.501 -112s-71.5 -134.667 -71.5 -180z" />
    <glyph glyph-name="Gcommaaccent" unicode="&#x122;" horiz-adv-x="611" 
d="M461 624c-42 0 -88.501 -23.001 -139.501 -69.001s-94.5 -103.5 -130.5 -172.5s-54 -133.167 -54 -192.5c0 -24 7.66699 -44.5 23 -61.5s33.333 -25.5 54 -25.5c32 0 69.5 17.5 112.5 52.5s82.833 80.167 119.5 135.5c-37.333 -10 -65 -15 -83 -15
s-33.333 4.83301 -46 14.5s-19 18.834 -19 27.501c0 10.667 14.333 19.167 43 25.5s64.667 9.5 108 9.5c24 0 43.5 -10.167 58.5 -30.5s22.5 -44 22.5 -71s-16.667 -90.5 -50 -190.5s-58.5 -150 -75.5 -150s-25.5 9.66699 -25.5 29c0 18.667 4.83301 44 14.5 76l30.5 98.5
l26 82.5c-32.667 -55.333 -69.667 -99.166 -111 -131.499s-81.5 -48.5 -120.5 -48.5s-77.5 18.167 -115.5 54.5s-57 76.166 -57 119.499c0 67.333 21.333 142.333 64 225s96.334 153.5 161.001 212.5s125.334 88.5 182.001 88.5c18.667 0 37 -11.167 55 -33.5
s27 -40.333 27 -54s-3.66699 -20.5 -11 -20.5c-2 0 -9.33301 2.5 -22 7.5s-26.334 7.5 -41.001 7.5zM163.999 -45.001c11.333 9.33301 24.832 13.9971 40.499 13.9971s31.334 -7.16699 47.001 -21.5s23.5 -31.166 23.5 -50.499c0 -34 -17 -65.667 -51 -95s-64 -44 -90 -44
c-14.667 0 -22 6 -22 18c0 8.66699 13.5 23.834 40.5 45.501s42.5 40.5 46.5 56.5c-4 6.66699 -13.667 13.834 -29 21.501s-23 16.5 -23 26.5s5.66699 19.667 17 29z" />
    <glyph glyph-name="gcommaaccent" unicode="&#x123;" horiz-adv-x="471" 
d="M423 285c0 -24 -10.668 -51.9971 -32.001 -83.9971c-14.667 -32 -28.667 -71.5 -42 -118.5l-34.5 -123c-9.66699 -35 -21.167 -69.167 -34.5 -102.5c-28.667 -69.333 -72.334 -104 -131.001 -104c-46.667 0 -86.334 12.833 -119.001 38.5s-49 51.167 -49 76.5
c0 10 3.33301 20.5 10 31.5s13.5 16.5 20.5 16.5s14.667 -5 23 -15s16.333 -20.833 24 -32.5s19.334 -22.5 35.001 -32.5s30.834 -15 45.501 -15s25.834 2.16699 33.501 6.5s14.667 11.333 21 21s12 19.5 17 29.5s10.167 23.667 15.5 41s9.83301 32.666 13.5 45.999l14.5 54
l15 56c-53.333 -40 -96 -60 -128 -60s-60.167 13.167 -84.5 39.5s-36.5 54.166 -36.5 83.499c0 40.667 13.333 90 40 148s62.167 110 106.5 156s87.833 69 130.5 69c27.333 0 50 -10 68 -30c31.333 -34.667 47 -82.334 47 -143.001c0 -9.33301 -0.333008 -16 -1 -20
c8 -10 12 -21 12 -33zM100.999 136.003c0 -12 3.66699 -21.332 11 -27.999s16.666 -10 27.999 -10c33.333 0 72.666 19.5 117.999 58.5s77.333 85.167 96 138.5c-1.33301 7.33301 -3.16602 19 -5.49902 35s-4.16602 28.167 -5.49902 36.5s-3.66602 18.166 -6.99902 29.499
c-6 21.333 -17.333 32 -34 32c-38.667 0 -81.834 -37.333 -129.501 -112s-71.5 -134.667 -71.5 -180zM375.499 569.004c-11 -9.33301 -24.333 -13.999 -40 -13.999s-31.334 7.16699 -47.001 21.5s-23.5 31.5 -23.5 51.5c0 34 16.833 65.5 50.5 94.5s63.834 43.5 90.501 43.5
c14.667 0 22 -5.66699 22 -17c0 -8.66699 -13.5 -23.834 -40.5 -45.501s-42.833 -40.5 -47.5 -56.5c4.66699 -7.33301 14.5 -14.833 29.5 -22.5s22.5 -16.5 22.5 -26.5s-5.5 -19.667 -16.5 -29z" />
    <glyph glyph-name="Imacron" unicode="&#x12a;" horiz-adv-x="310" 
d="M398.5 871.5c25 -3 37.499 -9.33301 37.499 -19s-10 -16.667 -30 -21s-68 -10.833 -144 -19.5s-115 -13 -117 -13c-13.333 0 -25.666 5.83301 -36.999 17.5s-17 22.167 -17 31.5c0 18.667 58.333 28 175 28c63.333 0 107.5 -1.5 132.5 -4.5zM87.499 43
c-13 16 -19.502 30.6689 -19.502 44.002s19.833 106.5 59.5 279.5s59.834 280.167 60.501 321.5c0 11.333 1.5 19.166 4.5 23.499s9.33301 6.5 19 6.5s22.334 -10.333 38.001 -31s23.5 -42.834 23.5 -66.501s-24 -133.167 -72 -328.5c-4.66699 -18 -11 -43.833 -19 -77.5
s-14.333 -59.5 -19 -77.5l-15 -59c-11.333 -39.333 -21 -59 -29 -59s-18.5 8 -31.5 24z" />
    <glyph glyph-name="imacron" unicode="&#x12b;" horiz-adv-x="238" 
d="M330.5 650.5c25 -3 37.501 -9.33301 37.501 -19s-10 -16.667 -30 -21s-68 -10.833 -144 -19.5s-115 -13 -117 -13c-12.667 0 -24.834 5.66699 -36.501 17s-17.5 22 -17.5 32c0 18.667 58.333 28 175 28c63.333 0 107.5 -1.5 132.5 -4.5zM198.001 488
c11.333 -15.333 16.998 -30 16.998 -44c0 -36.667 -34 -162.667 -102 -378c-11.333 -33.333 -26 -50 -44 -50c-9.33301 0 -17.166 3.83301 -23.499 11.5s-9.5 16.5 -9.5 26.5s3.33301 28.5 10 55.5s15.334 60 26.001 99s23.5 91.5 38.5 157.5s25.167 106.667 30.5 122
s13.333 23 24 23s21.667 -7.66699 33 -23z" />
    </font>
</defs>
</svg>
